<svg xmlns="http://www.w3.org/2000/svg" viewBox="0 0 16.39 17"><defs><style>.cls-1{fill:#575962;}</style></defs><title>资源 51</title><g id="图层_2" data-name="图层 2"><g id="图层_1-2" data-name="图层 1"><path class="cls-1" d="M6.68,17a9,9,0,0,1-2.22-.26c-.44-.11-1.2-.38-1.37-1a.9.9,0,0,1,.08-.68c-.19-.23-.4-.46-.63-.7a12.08,12.08,0,0,1-1.26-1.53A6.38,6.38,0,0,1,0,9.15a4.89,4.89,0,0,1,.53-2,4.82,4.82,0,0,1,2.18-2A13.54,13.54,0,0,1,2.18,3.7C2,3.26,1.9,2.85,1.74,2.49l-.08-.13a1.07,1.07,0,0,1-.24-.68C1.45.73,2.78.4,3.78.24a17.66,17.66,0,0,1,5.76,0c.89.14,2.39.37,2.47,1.4a2.14,2.14,0,0,1-.23.88,2,2,0,0,0-.1.23A19.39,19.39,0,0,1,10.6,5.39.5.5,0,0,1,9.7,5a19.34,19.34,0,0,0,1-2.52c0-.09.08-.2.13-.32A2,2,0,0,0,11,1.69c0-.05-.27-.26-1.62-.47a17.17,17.17,0,0,0-5.45,0c-1.19.2-1.47.44-1.52.51s.05.05.08.09a2.43,2.43,0,0,1,.15.26c.18.4.33.87.48,1.31a9.34,9.34,0,0,0,.69,1.72.51.51,0,0,1,0,.4.49.49,0,0,1-.27.31A4.14,4.14,0,0,0,1.42,7.61,3.8,3.8,0,0,0,1,9.17a5.51,5.51,0,0,0,1.11,3.1,11.27,11.27,0,0,0,1.17,1.4,12.77,12.77,0,0,1,.92,1.07.5.5,0,0,1,0,.66.33.33,0,0,0-.09.12,3.61,3.61,0,0,0,.64.26A8.82,8.82,0,0,0,6.77,16h0a.5.5,0,0,1,0,1Z"/><path class="cls-1" d="M10.33,16.72h-.1a5.2,5.2,0,0,1-1.92-.82.5.5,0,0,1-.15-.67A.39.39,0,0,0,8.23,15a.49.49,0,0,0-.69-.42.51.51,0,0,1-.67-.16,5.25,5.25,0,0,1-.71-1.75.45.45,0,0,1,.08-.37.49.49,0,0,1,.32-.22.46.46,0,0,0,.38-.46.47.47,0,0,0-.38-.46.49.49,0,0,1-.33-.21.51.51,0,0,1-.07-.38A4.94,4.94,0,0,1,6.78,9a.51.51,0,0,1,.32-.24.49.49,0,0,1,.39.08.49.49,0,0,0,.74-.38.47.47,0,0,0-.11-.31.5.5,0,0,1,.09-.72,5.13,5.13,0,0,1,2-.89.49.49,0,0,1,.39.08.5.5,0,0,1,.2.33.47.47,0,0,0,.93,0A.51.51,0,0,1,12,6.57a.52.52,0,0,1,.39-.07,5.15,5.15,0,0,1,2,.89.5.5,0,0,1,.2.34.48.48,0,0,1-.11.38.45.45,0,0,0-.1.3.48.48,0,0,0,.72.39.46.46,0,0,1,.39-.07.48.48,0,0,1,.32.23,5.48,5.48,0,0,1,.62,1.6.5.5,0,0,1-.39.59.47.47,0,0,0,0,.92.5.5,0,0,1,.38.59,5.26,5.26,0,0,1-.7,1.74.51.51,0,0,1-.66.17.48.48,0,0,0-.68.42.46.46,0,0,0,.06.23.51.51,0,0,1-.15.66,5.15,5.15,0,0,1-1.91.82.49.49,0,0,1-.59-.38.48.48,0,0,0-.46-.37.47.47,0,0,0-.46.37A.5.5,0,0,1,10.33,16.72ZM9.2,15.27a4.43,4.43,0,0,0,.84.36,1.47,1.47,0,0,1,2.47,0,3.49,3.49,0,0,0,.84-.36,1.23,1.23,0,0,1,0-.27A1.49,1.49,0,0,1,15,13.53a4.43,4.43,0,0,0,.28-.68,1.48,1.48,0,0,1,0-2.48c-.06-.18-.12-.35-.2-.53a1.49,1.49,0,0,1-1.77-1.43A1.68,1.68,0,0,1,13.39,8a4.32,4.32,0,0,0-.85-.38,1.47,1.47,0,0,1-2.53,0A3.78,3.78,0,0,0,9.16,8a1.77,1.77,0,0,1,.07.46A1.5,1.5,0,0,1,7.44,9.84a3.28,3.28,0,0,0-.2.52,1.48,1.48,0,0,1,.7,1.25,1.46,1.46,0,0,1-.7,1.25,5.72,5.72,0,0,0,.28.68A1.48,1.48,0,0,1,9.23,15,1.33,1.33,0,0,1,9.2,15.27Zm2.08-1.57a2.09,2.09,0,1,1,2.09-2.09A2.09,2.09,0,0,1,11.28,13.7Zm0-3.18a1.09,1.09,0,1,0,1.09,1.09A1.09,1.09,0,0,0,11.28,10.52Z"/></g></g></svg>