<svg xmlns="http://www.w3.org/2000/svg" viewBox="0 0 15.7 16.97"><defs><style>.cls-1{fill:#575962;}</style></defs><title>资源 54</title><g id="图层_2" data-name="图层 2"><g id="图层_1-2" data-name="图层 1"><path class="cls-1" d="M7.85,11.15a.52.52,0,0,1-.29-.09l-4-2.93a.49.49,0,0,1-.21-.4v-6A1.65,1.65,0,0,1,4.89,0h5.92A1.65,1.65,0,0,1,12.4,1.7v6a.49.49,0,0,1-.21.4l-4,2.93A.53.53,0,0,1,7.85,11.15ZM4.3,7.47,7.85,10,11.4,7.47V1.7a.65.65,0,0,0-.59-.7H4.89a.65.65,0,0,0-.59.7Zm7.6.26h0Z"/><path class="cls-1" d="M13.71,17H2a2,2,0,0,1-2-2V7.77A2,2,0,0,1,1.5,5.84a.49.49,0,0,1,.41.08L7.85,10l5.94-4.12a.48.48,0,0,1,.4-.08A2,2,0,0,1,15.7,7.77V15A2,2,0,0,1,13.71,17ZM1.55,6.88A1,1,0,0,0,1,7.77V15a1,1,0,0,0,1,1H13.71a1,1,0,0,0,1-1V7.77a1,1,0,0,0-.55-.89l-6,4.18a.5.5,0,0,1-.57,0Z"/><path class="cls-1" d="M3.8,8.34a.47.47,0,0,1-.28-.09L1.34,6.74A.59.59,0,0,1,1.1,6.3a.52.52,0,0,1,.18-.43L3.52,4.32a.47.47,0,0,1,.51,0,.5.5,0,0,1,.27.44V7.84A.5.5,0,0,1,4,8.28.46.46,0,0,1,3.8,8.34ZM2.44,6.28l.86.6V5.69Z"/><path class="cls-1" d="M11.9,8.34a.46.46,0,0,1-.23-.06.5.5,0,0,1-.27-.44V4.73a.5.5,0,0,1,.27-.45.49.49,0,0,1,.51,0l2.24,1.55a.51.51,0,0,1,.21.41.46.46,0,0,1-.21.41L12.18,8.25A.47.47,0,0,1,11.9,8.34Zm.5-2.66v1.2l.86-.6Z"/><path class="cls-1" d="M10.05,3.87H5.65a.5.5,0,0,1-.5-.5.5.5,0,0,1,.5-.5h4.4a.5.5,0,0,1,.5.5A.5.5,0,0,1,10.05,3.87Z"/><path class="cls-1" d="M9.13,6.49H6.57a.5.5,0,0,1,0-1H9.13a.5.5,0,0,1,0,1Z"/></g></g></svg>