<?xml version="1.0" encoding="UTF-8"?>
<svg width="260px" height="150px" viewBox="0 0 260 150" version="1.1" xmlns="http://www.w3.org/2000/svg" xmlns:xlink="http://www.w3.org/1999/xlink">
    <!-- Generator: Sketch 52.2 (67145) - http://www.bohemiancoding.com/sketch -->
    <title>审批_藏品入馆</title>
    <desc>Created with Sketch.</desc>
    <defs>
        <rect id="path-1" x="0" y="0" width="260" height="150" rx="4"></rect>
        <polygon id="path-3" points="0 0.110350877 53.9981769 0.110350877 53.9981769 18.1754386 0 18.1754386"></polygon>
        <polygon id="path-5" points="0.577438439 0.233489474 54.5374368 0.233489474 54.5374368 18.2985772 0.577438439 18.2985772"></polygon>
        <polygon id="path-7" points="0 73.8481053 112.985713 73.8481053 112.985713 0 0 0"></polygon>
    </defs>
    <g id="Page-1" stroke="none" stroke-width="1" fill="none" fill-rule="evenodd">
        <g id="审批" transform="translate(-560.000000, -292.000000)">
            <g id="审批_藏品入馆" transform="translate(560.000000, 292.000000)">
                <g id="矩形">
                    <mask id="mask-2" fill="white">
                        <use xlink:href="#path-1"></use>
                    </mask>
                    <rect stroke="#0590FF" x="0.5" y="0.5" width="259" height="149" rx="4"></rect>
                    <text id="藏品入馆" font-family="PingFang-SC-Bold, PingFang SC" font-size="14" font-weight="bold" line-spacing="14" letter-spacing="0.3000001" fill="#575962">
                        <tspan x="101" y="131">藏品入馆</tspan>
                    </text>
                </g>
                <g id="分组" transform="translate(74.000000, 30.000000)">
                    <path d="M14.2871615,13.2915684 L14.8995695,13.2915684 C16.3945466,13.2915684 17.6063741,14.6397965 17.6063741,16.3034982 C17.6063741,17.9665509 16.3945466,19.3147789 14.8995695,19.3147789 L14.2871615,19.3147789 C12.7921845,19.3147789 11.5803569,17.9665509 11.5803569,16.3034982 C11.5803569,14.6397965 12.7921845,13.2915684 14.2871615,13.2915684" id="Fill-1" fill="#E9F3FF"></path>
                    <path d="M25.0134592,13.2915684 L38.3461603,13.2915684 C40.0099879,13.2915684 41.3594937,14.6397965 41.3594937,16.3034982 C41.3594937,17.9665509 40.0099879,19.3147789 38.3461603,19.3147789 L25.0134592,19.3147789 C23.3489822,19.3147789 22.0001259,17.9665509 22.0001259,16.3034982 C22.0001259,14.6397965 23.3489822,13.2915684 25.0134592,13.2915684" id="Fill-3" fill="#E9F3FF"></path>
                    <g transform="translate(0.000000, 55.672667)">
                        <mask id="mask-4" fill="white">
                            <use xlink:href="#path-3"></use>
                        </mask>
                        <g id="Clip-6"></g>
                        <path d="M2.74654943,12.1515789 L16.2416069,12.1515789 C17.9041356,11.9782632 19.1114172,10.4911228 18.9386701,8.83001754 C18.7906011,7.40649123 17.6651471,6.28221053 16.2416069,6.13421053 L6.90936552,6.13421053 C5.24488851,5.9797193 4.02137126,4.50621053 4.17593448,2.84250877 C4.31101494,1.39301754 5.45919885,0.244719298 6.90936552,0.110350877 L51.2521241,0.110350877 C52.9159517,0.264842105 54.1401184,1.739 53.9849057,3.40205263 C53.8504747,4.85154386 52.7022908,5.99919298 51.2521241,6.13421053 L28.8664345,6.13421053 C27.2039057,6.30687719 25.9966241,7.79401754 26.1693713,9.45577193 C26.3174402,10.8786491 27.4428943,12.0035789 28.8664345,12.1515789 L47.089308,12.1515789 C48.7531356,12.3060702 49.9773023,13.7802281 49.8227391,15.4432807 C49.6876586,16.8927719 48.5394747,18.0404211 47.089308,18.1754386 L2.74654943,18.1754386 C1.08207241,18.0209474 -0.141444828,16.5467895 0.0131183908,14.8837368 C0.148198851,13.4342456 1.29638276,12.2865965 2.74654943,12.1515789" id="Fill-5" fill="#E9F3FF" mask="url(#mask-4)"></path>
                    </g>
                    <g transform="translate(58.448276, 4.391965)">
                        <mask id="mask-6" fill="white">
                            <use xlink:href="#path-5"></use>
                        </mask>
                        <g id="Clip-8"></g>
                        <path d="M51.8073178,18.2985772 L7.4645592,18.2985772 C5.88320862,18.2109456 4.66683506,16.8679105 4.73697299,15.2866474 C4.66683506,13.7053842 5.88320862,12.3617 7.4645592,12.2747175 L16.4201339,12.2747175 C17.9988868,12.1838404 19.2113638,10.8421035 19.1412259,9.26278772 C19.2113638,7.68477018 17.9975879,6.3449807 16.4201339,6.25734912 L3.3017431,6.25734912 C1.72104195,6.16971754 0.506616667,4.82538421 0.580651149,3.24606842 C0.506616667,1.66545439 1.72104195,0.321121053 3.3017431,0.233489474 L47.6380075,0.233489474 C49.219358,0.321121053 50.4357316,1.66415614 50.3655937,3.24606842 C50.4357316,4.82668246 49.219358,6.16971754 47.6380075,6.25734912 L28.2007086,6.25734912 C26.6206569,6.34108596 25.4029845,7.68282281 25.4731224,9.26278772 C25.4029845,10.8447 26.619358,12.1877351 28.2007086,12.2747175 L51.8073178,12.2747175 C53.3886684,12.3617 54.605042,13.7053842 54.534904,15.2866474 C54.605042,16.8679105 53.3886684,18.2109456 51.8073178,18.2985772" id="Fill-7" fill="#E9F3FF" mask="url(#mask-6)"></path>
                    </g>
                    <path d="M77.5915149,63.4819386 L20.5589862,63.4819386 L17.3092621,33.086114 C16.8955782,29.2108509 20.2583023,26.0061316 24.0684805,26.6435702 L73.4020724,34.9069035 C76.9602736,35.5021491 79.477446,38.7432193 79.2007908,42.3718158 L77.5915149,63.4819386 Z" id="Fill-9" fill="#79C3FD"></path>
                    <path d="M77.5915149,63.4819386 L20.5589862,63.4819386 L17.3092621,33.086114 C16.8955782,29.2108509 20.2583023,26.0061316 24.0684805,26.6435702 L73.4020724,34.9069035 C76.9602736,35.5021491 79.477446,38.7432193 79.2007908,42.3718158 L77.5915149,63.4819386 Z" id="Stroke-11" stroke="#4585F5" stroke-width="2.6" stroke-linecap="round" stroke-linejoin="round"></path>
                    <path d="M85.6975764,31.8803035 L65.0367603,33.4394965 L73.4020075,34.8273211 C76.9602086,35.4173737 79.477381,38.6279351 79.2007259,42.2221281 L77.59145,63.4821982 L32.5999155,63.4821982 L88.4530879,63.4821982 L91.951542,39.0122158 C92.4931626,35.2219877 89.5278868,31.8400579 85.6975764,31.8803035" id="Fill-13" fill="#37A3FE"></path>
                    <path d="M85.6975764,31.8803035 L65.0367603,33.4394965 L73.4020075,34.8273211 C76.9602086,35.4173737 79.477381,38.6279351 79.2007259,42.2221281 L77.59145,63.4821982 L32.5999155,63.4821982 L88.4530879,63.4821982 L91.951542,39.0122158 C92.4931626,35.2219877 89.5278868,31.8400579 85.6975764,31.8803035 Z" id="Stroke-15" stroke="#4585F5" stroke-width="2.6" stroke-linecap="round" stroke-linejoin="round"></path>
                    <path d="M56.1557397,63.4819386 L42.2879121,63.4819386 L42.2879121,51.9528684 C42.2879121,48.1249912 45.3928144,45.0228333 49.2218259,45.0228333 C53.0514868,45.0228333 56.1557397,48.1249912 56.1557397,51.9528684 L56.1557397,63.4819386 Z" id="Fill-17" fill="#EDF1F4"></path>
                    <path d="M56.1557397,63.4819386 L42.2879121,63.4819386 L42.2879121,51.9528684 C42.2879121,48.1249912 45.3928144,45.0228333 49.2218259,45.0228333 C53.0514868,45.0228333 56.1557397,48.1249912 56.1557397,51.9528684 L56.1557397,63.4819386 Z" id="Stroke-19" stroke="#4585F5" stroke-width="2.6" stroke-linecap="round" stroke-linejoin="round"></path>
                    <path d="M69.4105747,46.2409123 L69.4105747,48.3304386" id="Stroke-21" stroke="#4585F5" stroke-width="2.6" stroke-linecap="round" stroke-linejoin="round"></path>
                    <path d="M27.0857103,38.983914 L27.0857103,63.4818088" id="Stroke-23" stroke="#4585F5" stroke-width="2.6" stroke-linecap="round" stroke-linejoin="round"></path>
                    <path d="M33.598342,52.4665193 L33.598342,63.4821333" id="Stroke-25" stroke="#4585F5" stroke-width="2.6" stroke-linecap="round" stroke-linejoin="round"></path>
                    <path d="M62.5678402,54.8037509 L62.5678402,63.4818737" id="Stroke-27" stroke="#4585F5" stroke-width="2.6" stroke-linecap="round" stroke-linejoin="round"></path>
                    <path d="M69.4105747,52.4665193 L69.4105747,62.9005193" id="Stroke-29" stroke="#4585F5" stroke-width="2.6" stroke-linecap="round" stroke-linejoin="round"></path>
                    <mask id="mask-8" fill="white">
                        <use xlink:href="#path-7"></use>
                    </mask>
                    <g id="Clip-32"></g>
                    <polygon id="Fill-31" fill="#EDF1F4" mask="url(#mask-8)" points="14.9952299 69.3788947 92.9262644 69.3788947 92.9262644 63.4822632 14.9952299 63.4822632"></polygon>
                    <polygon id="Stroke-33" stroke="#4585F5" stroke-width="2.6" stroke-linecap="round" stroke-linejoin="round" mask="url(#mask-8)" points="14.9952299 69.3788947 92.9262644 69.3788947 92.9262644 63.4822632 14.9952299 63.4822632"></polygon>
                    <polygon id="Fill-34" fill="#37A3FE" mask="url(#mask-8)" points="55.7279632 7.66120702 55.7279632 27.4672421 61.5643483 27.4672421 75.5425782 27.4672421 75.5425782 21.6329263 65.821331 21.6329263 82.0387793 5.4236807 77.9110322 1.29785614 61.5643483 17.6375754 61.5643483 7.66185614"></polygon>
                    <polygon id="Stroke-35" stroke="#4585F5" stroke-width="2.6" stroke-linecap="round" stroke-linejoin="round" mask="url(#mask-8)" points="55.7279632 7.66120702 55.7279632 27.4672421 61.5643483 27.4672421 75.5425782 27.4672421 75.5425782 21.6329263 65.821331 21.6329263 82.0387793 5.4236807 77.9110322 1.29785614 61.5643483 17.6375754 61.5643483 7.66185614"></polygon>
                </g>
            </g>
        </g>
    </g>
</svg>