<?xml version="1.0" encoding="UTF-8"?>
<svg width="40px" height="40px" viewBox="0 0 40 40" version="1.1" xmlns="http://www.w3.org/2000/svg" xmlns:xlink="http://www.w3.org/1999/xlink">
    <!-- Generator: Sketch 52.2 (67145) - http://www.bohemiancoding.com/sketch -->
    <title>用车</title>
    <desc>Created with Sketch.</desc>
    <g id="用车" stroke="none" stroke-width="1" fill="none" fill-rule="evenodd">
        <g transform="translate(5.000000, 8.000000)">
            <g id="分组-18" transform="translate(2.000000, 0.000000)">
                <path d="M23.9931,11.9364 L2.3431,11.9364 C1.3251,11.9364 0.6071,10.9364 0.9331,9.9724 L3.1361,3.4484 C3.6471,1.9364 5.0651,0.9174 6.6611,0.9174 L19.6751,0.9174 C21.2711,0.9174 22.6891,1.9364 23.2001,3.4484 L25.4031,9.9724 C25.7291,10.9364 25.0111,11.9364 23.9931,11.9364" id="Fill-55" fill="#0590FF"></path>
                <path d="M3.5019,8.6166 L5.0319,4.0876 C5.2679,3.3886 5.9229,2.9176 6.6609,2.9176 L19.6749,2.9176 C20.4129,2.9176 21.0689,3.3886 21.3049,4.0876 L22.8349,8.6166 C23.0539,9.2646 22.5709,9.9366 21.8869,9.9366 L4.4499,9.9366 C3.7649,9.9366 3.2829,9.2646 3.5019,8.6166" id="Fill-57" fill="#FFFFFF"></path>
                <polygon id="Fill-59" fill="#0590FF" points="0.872 20.8939 25.482 20.8939 25.482 11.1889 0.872 11.1889"></polygon>
            </g>
            <path d="M3.1684,23.2914 L2.5394,23.2914 C1.7624,23.2914 1.1264,22.6554 1.1264,21.8784 L1.1264,11.8014 C1.1264,11.0244 1.7624,10.3894 2.5394,10.3894 L3.1684,10.3894 C3.9454,10.3894 4.5814,11.0244 4.5814,11.8014 L4.5814,21.8784 C4.5814,22.6554 3.9454,23.2914 3.1684,23.2914" id="Fill-61" fill="#0590FF"></path>
            <path d="M27.7968,23.2914 L27.1678,23.2914 C26.3908,23.2914 25.7548,22.6554 25.7548,21.8784 L25.7548,11.8014 C25.7548,11.0244 26.3908,10.3894 27.1678,10.3894 L27.7968,10.3894 C28.5738,10.3894 29.2098,11.0244 29.2098,11.8014 L29.2098,21.8784 C29.2098,22.6554 28.5738,23.2914 27.7968,23.2914" id="Fill-62" fill="#0590FF"></path>
            <path d="M4.521,11.1888 L1.991,11.1888 C1.003,11.1888 0.195,10.3808 0.195,9.3928 C0.195,9.1118 0.425,8.8818 0.706,8.8818 L4.521,8.8818 C4.584,8.8818 4.635,8.9338 4.635,8.9968 L4.635,11.0748 C4.635,11.1368 4.584,11.1888 4.521,11.1888" id="Fill-63" fill="#0590FF"></path>
            <path d="M25.8696,11.1888 L28.3996,11.1888 C29.3876,11.1888 30.1956,10.3808 30.1956,9.3928 C30.1956,9.1118 29.9656,8.8818 29.6846,8.8818 L25.8696,8.8818 C25.8066,8.8818 25.7556,8.9338 25.7556,8.9968 L25.7556,11.0748 C25.7556,11.1368 25.8066,11.1888 25.8696,11.1888" id="Fill-64" fill="#0590FF"></path>
            <path d="M7.3403,16.6932 C7.2773,17.7382 6.3783,18.5332 5.3333,18.4702 C4.2883,18.4062 3.4933,17.5072 3.5563,16.4632 C3.6203,15.4182 4.5193,14.6232 5.5643,14.6862 C6.6093,14.7502 7.4043,15.6482 7.3403,16.6932" id="Fill-65" fill="#FFFFFF"></path>
            <path d="M26.7832,16.5438 C26.7832,17.5898 25.9342,18.4388 24.8882,18.4388 C23.8412,18.4388 22.9922,17.5898 22.9922,16.5438 C22.9922,15.4968 23.8412,14.6478 24.8882,14.6478 C25.9342,14.6478 26.7832,15.4968 26.7832,16.5438" id="Fill-66" fill="#FFFFFF"></path>
        </g>
    </g>
</svg>