<?xml version="1.0" encoding="UTF-8"?>
<svg width="40px" height="40px" viewBox="0 0 40 40" version="1.1" xmlns="http://www.w3.org/2000/svg" xmlns:xlink="http://www.w3.org/1999/xlink">
    <!-- Generator: Sketch 52.2 (67145) - http://www.bohemiancoding.com/sketch -->
    <title>转正</title>
    <desc>Created with Sketch.</desc>
    <g id="转正" stroke="none" stroke-width="1" fill="none" fill-rule="evenodd">
        <g transform="translate(7.000000, 6.000000)" fill="#0590FF">
            <path d="M18.2495,24.5965 L15.1645,24.6175 C14.3195,24.6175 13.5265,24.2875 12.9315,23.6875 C12.3355,23.0885 12.0105,22.2925 12.0165,21.4485 L12.0375,18.3835 C12.0425,17.5515 12.3705,16.7675 12.9595,16.1795 L13.7755,15.3625 C13.6145,15.3485 13.4575,15.3195 13.2925,15.3195 L12.6795,15.3195 C12.1605,15.3195 11.7395,14.8995 11.7395,14.3805 C11.7395,14.0085 11.9455,13.6815 12.2515,13.4715 C14.4235,11.9795 15.9505,8.6555 15.9505,6.1545 C15.9505,2.8325 13.2565,0.1385 9.9355,0.1385 C6.6125,0.1385 3.9195,2.8325 3.9195,6.1545 C3.9195,8.6555 5.4455,11.9795 7.6175,13.4715 C7.9245,13.6815 8.1305,14.0085 8.1305,14.3805 C8.1305,14.8995 7.7095,15.3195 7.1905,15.3195 L6.5775,15.3195 C3.9115,15.3195 1.6225,17.2135 1.1235,19.8325 L0.5175,23.0095 C0.2075,24.6335 1.4535,26.1385 3.1065,26.1385 L16.7625,26.1385 C17.9085,26.1385 18.8455,25.4085 19.2175,24.4245 C18.9075,24.5265 18.5845,24.5945 18.2495,24.5965" id="Fill-67"></path>
            <path d="M17.4262,20.8705 C16.9672,21.3295 16.2222,21.3295 15.7632,20.8705 C15.3042,20.4115 15.3042,19.6665 15.7632,19.2075 C16.2222,18.7485 16.9672,18.7485 17.4262,19.2075 C17.8852,19.6665 17.8852,20.4115 17.4262,20.8705 M25.6942,13.9845 L22.6502,10.9405 C22.2012,10.4925 21.4742,10.4925 21.0262,10.9405 L14.3732,17.5935 C14.1602,17.8065 14.0392,18.0955 14.0372,18.3975 L14.0162,21.4615 C14.0122,22.1015 14.5322,22.6215 15.1722,22.6175 L18.2372,22.5965 C18.5382,22.5945 18.8272,22.4745 19.0412,22.2605 L25.6942,15.6075 C26.1422,15.1595 26.1422,14.4325 25.6942,13.9845" id="Fill-68"></path>
        </g>
    </g>
</svg>