<?xml version="1.0" encoding="UTF-8"?>
<svg width="40px" height="40px" viewBox="0 0 40 40" version="1.1" xmlns="http://www.w3.org/2000/svg" xmlns:xlink="http://www.w3.org/1999/xlink">
    <!-- Generator: Sketch 52.2 (67145) - http://www.bohemiancoding.com/sketch -->
    <title>加班</title>
    <desc>Created with Sketch.</desc>
    <defs>
        <polygon id="path-1" points="0.644948631 0.0082 16.7896432 0.0082 16.7896432 5 0.644948631 5"></polygon>
        <polygon id="path-3" points="0.434932317 0.862 15.0264902 0.862 15.0264902 15.4533677 0.434932317 15.4533677"></polygon>
    </defs>
    <g id="加班" stroke="none" stroke-width="1" fill="none" fill-rule="evenodd">
        <g transform="translate(9.000000, 4.000000)">
            <g id="分组" transform="translate(2.000000, 26.137900)">
                <mask id="mask-2" fill="white">
                    <use xlink:href="#path-1"></use>
                </mask>
                <g id="Clip-44"></g>
                <path d="M16.5561,5.0002 C16.7231,5.0002 16.8411,4.8212 16.7671,4.6712 C15.4241,1.9342 12.3381,0.0082 8.7171,0.0082 C5.0971,0.0082 2.0111,1.9342 0.6671,4.6712 C0.5941,4.8212 0.7111,5.0002 0.8781,5.0002 L16.5561,5.0002 Z" id="Fill-43" fill="#0590FF" mask="url(#mask-2)"></path>
            </g>
            <g id="分组" transform="translate(0.000000, 0.137900)">
                <mask id="mask-4" fill="white">
                    <use xlink:href="#path-3"></use>
                </mask>
                <g id="Clip-46"></g>
                <path d="M9.7534,15.0089 L0.8794,6.1349 C0.1214,5.3769 0.3634,4.0189 1.3734,3.3669 L4.7674,1.1769 C5.4864,0.7129 6.3724,0.7659 6.9124,1.3059 L14.5824,8.9759 C15.1224,9.5159 15.1754,10.4029 14.7114,11.1209 L12.5214,14.5149 C11.8704,15.5249 10.5114,15.7669 9.7534,15.0089" id="Fill-45" fill="#0590FF" mask="url(#mask-4)"></path>
            </g>
            <path d="M1.0571,9.266 C0.9311,9.14 0.7021,9.191 0.6601,9.366 C0.3081,10.811 0.8221,12.565 2.1411,13.885 C3.4611,15.204 5.2161,15.718 6.6611,15.367 C6.8351,15.325 6.8871,15.096 6.7601,14.969 L1.0571,9.266 Z" id="Fill-47" fill="#0590FF"></path>
            <path d="M8.4492,7.5775 C7.4282,6.5565 7.4282,4.8875 8.4492,3.8665 L10.0742,2.2415 C11.0952,1.2205 12.7652,1.2205 13.7852,2.2415 C14.8062,3.2615 14.8062,4.9315 13.7852,5.9525 L12.1602,7.5775 C11.1392,8.5985 9.4702,8.5985 8.4492,7.5775" id="Fill-49" fill="#0590FF"></path>
            <path d="M10.8852,5.4173 L21.3382,15.8703" id="Stroke-51" stroke="#0590FF" stroke-width="1.866" stroke-linecap="round" stroke-linejoin="round"></path>
            <path d="M10.6865,26.5218 L21.3385,15.8698" id="Stroke-53" stroke="#0590FF" stroke-width="1.866" stroke-linecap="round" stroke-linejoin="round"></path>
        </g>
    </g>
</svg>