<?xml version="1.0" encoding="UTF-8"?>
<svg width="40px" height="40px" viewBox="0 0 40 40" version="1.1" xmlns="http://www.w3.org/2000/svg" xmlns:xlink="http://www.w3.org/1999/xlink">
    <!-- Generator: Sketch 52.2 (67145) - http://www.bohemiancoding.com/sketch -->
    <title>招聘</title>
    <desc>Created with Sketch.</desc>
    <g id="招聘" stroke="none" stroke-width="1" fill="none" fill-rule="evenodd">
        <g transform="translate(4.000000, 7.000000)">
            <path d="M2.85935484,14.1132292 C2.85935484,6.88302083 8.68851613,0.9996875 15.8544516,0.9996875 C23.0193548,0.9996875 28.8495484,6.88302083 28.8495484,14.1132292" id="Stroke-69" stroke="#0590FF" stroke-width="1.792"></path>
            <path d="M25.9384774,14.11375 C25.9384774,19.7335417 21.4233806,24.2897917 15.8543484,24.2897917 C10.2853161,24.2897917 5.77021935,19.7335417 5.77021935,14.11375 C5.77021935,8.49291667 10.2853161,3.93770833 15.8543484,3.93770833 C21.4233806,3.93770833 25.9384774,8.49291667 25.9384774,14.11375" id="Fill-70" fill="#0590FF"></path>
            <path d="M4.21976774,17.9991667 C2.09950968,17.9991667 0.379767742,16.26375 0.379767742,14.1241667 C0.379767742,11.9845833 2.09950968,10.2502083 4.21976774,10.2502083" id="Fill-71" fill="#0590FF"></path>
            <path d="M27.5080258,17.9991667 C29.6282839,17.9991667 31.3480258,16.26375 31.3480258,14.1241667 C31.3480258,11.9845833 29.6282839,10.2502083 27.5080258,10.2502083" id="Fill-72" fill="#0590FF"></path>
            <path d="M21.2227097,15.5566667 C21.2227097,18.5483333 18.8185806,20.974375 15.8539355,20.974375 C12.8892903,20.974375 10.4861935,18.5483333 10.4861935,15.5566667 C10.4861935,12.565 21.2227097,12.565 21.2227097,15.5566667" id="Fill-73" fill="#FFFFFF"></path>
        </g>
    </g>
</svg>