<?xml version="1.0" encoding="UTF-8"?>
<svg width="40px" height="40px" viewBox="0 0 40 40" version="1.1" xmlns="http://www.w3.org/2000/svg" xmlns:xlink="http://www.w3.org/1999/xlink">
    <!-- Generator: Sketch 52.2 (67145) - http://www.bohemiancoding.com/sketch -->
    <title>外出申请</title>
    <desc>Created with Sketch.</desc>
    <g id="外出申请" stroke="none" stroke-width="1" fill="none" fill-rule="evenodd">
        <g transform="translate(4.000000, 6.000000)" fill="#0590FF">
            <path d="M30.8755,12.8749 C30.0975,13.6529 28.8245,13.6529 28.0465,12.8749 L19.3855,4.2129 C18.6075,3.4349 18.6075,2.1619 19.3855,1.3839 C20.1635,0.6059 21.4355,0.6059 22.2135,1.3839 L30.8755,10.0459 C31.6535,10.8239 31.6535,12.0969 30.8755,12.8749" id="Fill-11"></path>
            <path d="M10.2163,0.8539 L1.0353,10.0349 C0.2583,10.8119 0.2583,12.0849 1.0353,12.8629 L14.9223,26.7499 C15.4933,27.3209 16.4293,27.3209 17.0013,26.7499 L17.0023,26.7479 C17.5763,26.1739 17.5763,25.2439 17.0023,24.6689 L13.0533,20.7199 C12.6623,20.3299 12.6623,19.6969 13.0533,19.3059 C13.4433,18.9159 14.0763,18.9159 14.4673,19.3059 L18.5573,23.3959 C19.0533,23.8929 19.8583,23.8929 20.3533,23.3959 L20.3613,23.3899 C20.8573,22.8939 20.8573,22.0889 20.3613,21.5929 L16.2703,17.5029 C15.8803,17.1119 15.8803,16.4789 16.2703,16.0889 C16.6613,15.6979 17.2943,15.6979 17.6843,16.0889 L21.7753,20.1789 C22.2713,20.6749 23.0753,20.6749 23.5713,20.1789 L23.5783,20.1719 C24.0743,19.6759 24.0743,18.8719 23.5783,18.3759 L19.4873,14.2859 C19.0973,13.8949 19.0973,13.2619 19.4873,12.8719 C19.8783,12.4809 20.5113,12.4809 20.9023,12.8719 L24.8513,16.8199 C25.4253,17.3949 26.3563,17.3949 26.9293,16.8199 L26.9313,16.8189 C27.5033,16.2479 27.5033,15.3119 26.9313,14.7399 L13.0443,0.8539 C12.2663,0.0759 10.9943,0.0759 10.2163,0.8539" id="Fill-13"></path>
        </g>
    </g>
</svg>