<?xml version="1.0" encoding="UTF-8"?>
<svg width="40px" height="40px" viewBox="0 0 40 40" version="1.1" xmlns="http://www.w3.org/2000/svg" xmlns:xlink="http://www.w3.org/1999/xlink">
    <!-- Generator: Sketch 52.2 (67145) - http://www.bohemiancoding.com/sketch -->
    <title>预支</title>
    <desc>Created with Sketch.</desc>
    <g id="预支" stroke="none" stroke-width="1" fill="none" fill-rule="evenodd">
        <g transform="translate(7.000000, 6.000000)" fill="#0590FF">
            <path d="M24.5293,10.7674 C24.5293,13.6544 22.1893,15.1094 19.3013,15.1094 C16.4143,15.1094 14.0743,13.6544 14.0743,10.7674 C14.0743,7.8804 16.4143,3.6424 19.3013,3.6424 C22.1893,3.6424 24.5293,7.8804 24.5293,10.7674" id="Fill-31"></path>
            <path d="M19.3017,2.661 C19.8907,2.661 20.4567,2.774 20.9917,2.973 C21.2977,3.088 21.6317,2.901 21.6857,2.578 L21.8967,1.296 C21.9487,0.982 21.7057,0.696 21.3867,0.696 L17.2827,0.696 C16.9647,0.696 16.7217,0.982 16.7737,1.296 L16.9817,2.556 C17.0337,2.877 17.3647,3.063 17.6707,2.953 C18.1887,2.766 18.7337,2.661 19.3017,2.661" id="Fill-33"></path>
            <path d="M0.7851,16.0692 C0.7851,16.0692 5.7461,14.5122 9.1511,15.4372 C12.5561,16.3612 9.8811,17.0902 18.5391,17.8682 C20.3871,18.1112 20.3381,19.1822 20.2901,19.8622 C20.2411,20.5442 20.0471,21.3702 18.2961,21.4192 C16.5451,21.4682 12.7991,20.8842 12.1671,21.1762 C12.4101,21.4682 14.3071,22.7812 18.5871,22.1492 C20.2901,21.9052 22.3331,20.2522 23.3061,19.7172 C24.2781,19.1822 25.1541,19.7172 25.3971,20.1062 C25.6401,20.4952 26.3211,21.4682 24.9101,23.0732 C23.5001,24.6782 21.8951,25.9382 20.9711,26.3542 C20.0471,26.7702 13.6751,27.7422 12.0211,27.6942 C10.3671,27.6452 4.7251,24.3382 3.8981,24.0462 C3.0711,23.7542 0.7851,23.1702 0.7851,23.1702 L0.7851,16.0692 Z" id="Fill-35"></path>
        </g>
    </g>
</svg>