<?xml version="1.0" encoding="UTF-8"?>
<svg width="40px" height="40px" viewBox="0 0 40 40" version="1.1" xmlns="http://www.w3.org/2000/svg" xmlns:xlink="http://www.w3.org/1999/xlink">
    <!-- Generator: Sketch 52.2 (67145) - http://www.bohemiancoding.com/sketch -->
    <title>合同</title>
    <desc>Created with Sketch.</desc>
    <g id="合同" stroke="none" stroke-width="1" fill="none" fill-rule="evenodd">
        <g id="分组-14" transform="translate(7.000000, 6.000000)" fill="#0590FF">
            <path d="M25.1137,21.3783 L25.1137,17.8343 C25.1137,16.9273 24.3717,16.1853 23.4647,16.1853 L18.3127,16.1853 C16.9027,16.1853 15.5897,15.2853 15.2367,13.9193 C14.9177,12.6853 15.4167,11.4933 16.3607,10.7533 C17.6307,9.7573 18.4647,8.2323 18.5257,6.5083 C18.6337,3.4763 15.9997,0.6963 12.9657,0.6473 C9.7987,0.5963 7.2157,3.1483 7.2157,6.3033 C7.2157,8.1253 8.0767,9.7443 9.4147,10.7773 C10.1577,11.3523 10.6037,12.2293 10.6037,13.1693 L10.6037,13.1713 C10.6037,14.8363 9.2547,16.1853 7.5907,16.1853 L2.2807,16.1853 C1.3727,16.1853 0.6307,16.9273 0.6307,17.8343 L0.6307,21.3783 C0.6307,22.0243 1.1547,22.5493 1.8017,22.5493 L23.9427,22.5493 C24.5897,22.5493 25.1137,22.0243 25.1137,21.3783" id="Fill-19"></path>
            <path d="M0.6303,25.7977 L0.6303,25.7987 C0.6303,26.7057 1.3733,27.4477 2.2803,27.4477 L23.4643,27.4477 C24.3713,27.4477 25.1133,26.7057 25.1133,25.7987 L25.1133,25.7977 C25.1133,25.1507 24.5893,24.6267 23.9423,24.6267 L1.8013,24.6267 C1.1543,24.6267 0.6303,25.1507 0.6303,25.7977" id="Fill-21"></path>
        </g>
    </g>
</svg>