<?xml version="1.0" encoding="UTF-8"?>
<svg width="40px" height="40px" viewBox="0 0 40 40" version="1.1" xmlns="http://www.w3.org/2000/svg" xmlns:xlink="http://www.w3.org/1999/xlink">
    <!-- Generator: Sketch 52.2 (67145) - http://www.bohemiancoding.com/sketch -->
    <title>请假申请</title>
    <desc>Created with Sketch.</desc>
    <g id="请假申请" stroke="none" stroke-width="1" fill="none" fill-rule="evenodd">
        <g transform="translate(8.000000, 4.000000)" id="分组-4">
            <g>
                <path d="M24.1611,15.0892 C24.1611,11.5152 22.6001,8.3142 20.1341,6.1032 L20.1341,1.6992 C20.1341,0.8142 19.4091,0.0892 18.5231,0.0892 L5.6381,0.0892 C4.7511,0.0892 4.0271,0.8142 4.0271,1.6992 L4.0271,6.1032 C1.5601,8.3142 0.0001,11.5152 0.0001,15.0892 C0.0001,18.6622 1.5601,21.8632 4.0271,24.0752 L4.0271,28.4782 C4.0271,29.3642 4.7511,30.0892 5.6381,30.0892 L18.5231,30.0892 C19.4091,30.0892 20.1341,29.3642 20.1341,28.4782 L20.1341,24.0752 C22.6001,21.8632 24.1611,18.6622 24.1611,15.0892" id="Fill-1" fill="#0590FF"></path>
                <path d="M21.9712,15.0892 C21.9712,20.5512 17.5432,24.9792 12.0802,24.9792 C6.6182,24.9792 2.1902,20.5512 2.1902,15.0892 C2.1902,9.6272 6.6182,5.1982 12.0802,5.1982 C17.5432,5.1982 21.9712,9.6272 21.9712,15.0892" id="Fill-3" fill="#FFFFFF"></path>
                <polyline id="Stroke-5" stroke="#0590FF" stroke-width="2" stroke-linecap="round" stroke-linejoin="round" points="17.9868 15.0892 11.9828 15.0892 11.9828 7.5312"></polyline>
            </g>
        </g>
    </g>
</svg>