<?xml version="1.0" encoding="UTF-8"?>
<svg width="16px" height="15px" viewBox="0 0 16 15" version="1.1" xmlns="http://www.w3.org/2000/svg" xmlns:xlink="http://www.w3.org/1999/xlink">
    <!-- Generator: Sketch 52.2 (67145) - http://www.bohemiancoding.com/sketch -->
    <title>评论</title>
    <desc>Created with Sketch.</desc>
    <g id="Page-2" stroke="none" stroke-width="1" fill="none" fill-rule="evenodd">
        <g id="我发起的-请假申请" transform="translate(-1270.000000, -864.000000)">
            <g id="分组-5" transform="translate(870.000000, 80.000000)">
                <g id="分组-4" transform="translate(401.000000, 784.000000)">
                    <g id="评论" transform="translate(0.000000, 1.000000)">
                        <path d="M11.7826,10.428 L9.6916,10.428 L7.1706,13.027 L4.6496,10.428 L2.5576,10.428 C1.2446,10.428 0.1706,9.353 0.1706,8.04 L0.1706,2.558 C0.1706,1.244 1.2446,0.17 2.5576,0.17 L11.7826,0.17 C13.0956,0.17 14.1706,1.244 14.1706,2.558 L14.1706,8.04 C14.1706,9.353 13.0956,10.428 11.7826,10.428 Z" id="Stroke-1" stroke="#0590FF" stroke-linecap="round"></path>
                        <path d="M4.4667,5.7757 C4.4667,6.2297 4.0987,6.5987 3.6437,6.5987 C3.1897,6.5987 2.8207,6.2297 2.8207,5.7757 C2.8207,5.3207 3.1897,4.9527 3.6437,4.9527 C4.0987,4.9527 4.4667,5.3207 4.4667,5.7757" id="Fill-3" fill="#0590FF"></path>
                        <path d="M7.9931,5.7757 C7.9931,6.2297 7.6251,6.5987 7.1701,6.5987 C6.7161,6.5987 6.3471,6.2297 6.3471,5.7757 C6.3471,5.3207 6.7161,4.9527 7.1701,4.9527 C7.6251,4.9527 7.9931,5.3207 7.9931,5.7757" id="Fill-5" fill="#0590FF"></path>
                        <path d="M11.5195,5.7757 C11.5195,6.2297 11.1515,6.5987 10.6965,6.5987 C10.2425,6.5987 9.8735,6.2297 9.8735,5.7757 C9.8735,5.3207 10.2425,4.9527 10.6965,4.9527 C11.1515,4.9527 11.5195,5.3207 11.5195,5.7757" id="Fill-7" fill="#0590FF"></path>
                    </g>
                </g>
            </g>
        </g>
    </g>
</svg>