<?xml version="1.0" encoding="UTF-8"?>
<svg width="40px" height="40px" viewBox="0 0 40 40" version="1.1" xmlns="http://www.w3.org/2000/svg" xmlns:xlink="http://www.w3.org/1999/xlink">
    <!-- Generator: Sketch 52.2 (67145) - http://www.bohemiancoding.com/sketch -->
    <title>付款</title>
    <desc>Created with Sketch.</desc>
    <g id="付款" stroke="none" stroke-width="1" fill="none" fill-rule="evenodd">
        <g transform="translate(5.000000, 7.000000)" fill="#0590FF">
            <path d="M16.6103,3.9447 L15.2973,1.4367 C14.9283,0.7337 14.0503,0.4587 13.3463,0.8277 L7.6883,3.7917 C7.3533,3.9677 7.4773,4.4747 7.8563,4.4747 L16.2893,4.4747 C16.5623,4.4747 16.7363,4.1857 16.6103,3.9447" id="Fill-37"></path>
            <path d="M20.4541,21.4208 C17.4991,21.4208 15.1271,18.8728 15.4211,15.8578 C15.6771,13.2308 18.0391,11.3048 20.6791,11.3048 L25.6321,11.3048 C26.1841,11.3048 26.6321,10.8578 26.6321,10.3048 L26.6321,7.9198 C26.6321,7.1248 25.9821,6.4748 25.1871,6.4748 L2.3231,6.4748 C1.5281,6.4748 0.8781,7.1248 0.8781,7.9198 L0.8781,24.3818 C0.8781,25.1758 1.5281,25.8268 2.3231,25.8268 L25.1871,25.8268 C25.9821,25.8268 26.6321,25.1758 26.6321,24.3818 L26.6321,22.4208 C26.6321,21.8688 26.1841,21.4208 25.6321,21.4208 L20.4541,21.4208 Z" id="Fill-39"></path>
            <path d="M20.4013,17.514 C19.7653,17.514 19.2503,16.999 19.2503,16.363 C19.2503,15.727 19.7653,15.211 20.4013,15.211 C21.0373,15.211 21.5523,15.727 21.5523,16.363 C21.5523,16.999 21.0373,17.514 20.4013,17.514 M27.4823,13.305 L20.4543,13.305 C18.7683,13.305 17.3963,14.677 17.3963,16.363 C17.3963,18.049 18.7683,19.421 20.4543,19.421 L27.4823,19.421 C29.1683,19.421 30.5403,18.049 30.5403,16.363 C30.5403,14.677 29.1683,13.305 27.4823,13.305" id="Fill-41"></path>
        </g>
    </g>
</svg>