<svg xmlns="http://www.w3.org/2000/svg" viewBox="0 0 15.74 16.06"><defs><style>.cls-1{}</style></defs><title>资源 29</title><g id="图层_2" data-name="图层 2"><g id="图层_1-2" data-name="图层 1"><path class="cls-1" d="M4.22,16.06A4.23,4.23,0,0,1,1.89,8.31v-6A2.34,2.34,0,0,1,4.22,0,2.28,2.28,0,0,1,5.88.71,2.63,2.63,0,0,1,6.55,2.5V8.31a4.23,4.23,0,0,1-2.33,7.75ZM4.22,1A1.34,1.34,0,0,0,2.89,2.33V8.59A.52.52,0,0,1,2.64,9,3.22,3.22,0,1,0,5.81,9a.51.51,0,0,1-.26-.44V2.5a1.56,1.56,0,0,0-.4-1.1A1.25,1.25,0,0,0,4.22,1Z"/><path class="cls-1" d="M6.05,3.86H4a.5.5,0,0,1-.5-.5.5.5,0,0,1,.5-.5h2a.5.5,0,0,1,.5.5A.5.5,0,0,1,6.05,3.86Z"/><path class="cls-1" d="M6,7.11H4a.5.5,0,0,1-.5-.5.5.5,0,0,1,.5-.5H6a.5.5,0,0,1,.5.5A.5.5,0,0,1,6,7.11Z"/><path class="cls-1" d="M6,5.49H4.6A.51.51,0,0,1,4.1,5a.5.5,0,0,1,.5-.5H6a.5.5,0,0,1,.5.5A.5.5,0,0,1,6,5.49Z"/><path class="cls-1" d="M9.79,5.05a1.47,1.47,0,1,1,1.46-1.47A1.47,1.47,0,0,1,9.79,5.05Zm0-1.93a.47.47,0,1,0,.46.46A.47.47,0,0,0,9.79,3.12Z"/><path class="cls-1" d="M13.4,9.76a2.63,2.63,0,1,1,2.27-4,.5.5,0,1,1-.86.51,1.63,1.63,0,1,0,0,1.65.5.5,0,0,1,.86.5A2.64,2.64,0,0,1,13.4,9.76Z"/></g></g></svg>