<svg xmlns="http://www.w3.org/2000/svg" viewBox="0 0 21 19"><defs><style>.cls-1{ }</style></defs><title>资源 64</title><g id="图层_2" data-name="图层 2"><g id="图层_1-2" data-name="图层 1"><path class="cls-1" d="M14,10a5,5,0,1,1,5-5A5,5,0,0,1,14,10Zm0-9a4,4,0,1,0,4,4A4,4,0,0,0,14,1Z"/><path class="cls-1" d="M4.5,11A3.5,3.5,0,1,1,8,7.5,3.5,3.5,0,0,1,4.5,11Zm0-6A2.5,2.5,0,1,0,7,7.5,2.5,2.5,0,0,0,4.5,5Z"/><path class="cls-1" d="M20.5,19a.5.5,0,0,1-.5-.5V16c0-2.21-1.44-4-3.21-4H11.21C9.44,12,8,13.8,8,16V18.5a.5.5,0,0,1-1,0V16c0-2.76,1.89-5,4.21-5h5.58C19.11,11,21,13.25,21,16V18.5A.5.5,0,0,1,20.5,19Z"/><path class="cls-1" d="M.5,19a.5.5,0,0,1-.5-.5V15.83A3.59,3.59,0,0,1,3.29,12H6.5a.5.5,0,0,1,0,1H3.29A2.61,2.61,0,0,0,1,15.83V18.5A.5.5,0,0,1,.5,19Z"/></g></g></svg>