<svg xmlns="http://www.w3.org/2000/svg" viewBox="0 0 10.53 10.53"><defs><style>.cls-1{ }</style></defs><title>资源 59</title><g id="图层_2" data-name="图层 2"><g id="图层_1-2" data-name="图层 1"><path class="cls-1" d="M10,2.42a.5.5,0,0,1-.5-.5V1H8.61a.5.5,0,0,1-.5-.5.5.5,0,0,1,.5-.5H10a.5.5,0,0,1,.5.5V1.92A.5.5,0,0,1,10,2.42Z"/><path class="cls-1" d="M8.78,10.53h-7A1.75,1.75,0,0,1,0,8.78v-7A1.76,1.76,0,0,1,1.75,0H6A.5.5,0,0,1,6,1H1.75A.76.76,0,0,0,1,1.75v7a.75.75,0,0,0,.75.75h7a.74.74,0,0,0,.75-.75V4.49A.51.51,0,0,1,10,4a.5.5,0,0,1,.5.5V8.78A1.75,1.75,0,0,1,8.78,10.53Z"/><path class="cls-1" d="M5.27,5.77a.51.51,0,0,1-.36-.15.51.51,0,0,1,0-.71L9.68.15a.5.5,0,0,1,.71,0,.5.5,0,0,1,0,.7L5.62,5.62A.5.5,0,0,1,5.27,5.77Z"/></g></g></svg>