<svg xmlns="http://www.w3.org/2000/svg" viewBox="0 0 10.53 10.53"><defs><style>.cls-1{ }</style></defs><title>资源 60</title><g id="图层_2" data-name="图层 2"><g id="图层_1-2" data-name="图层 1"><path class="cls-1" d="M5.27,5.77a.5.5,0,0,1-.5-.5A5.27,5.27,0,0,1,10,0a.5.5,0,0,1,.5.5A.5.5,0,0,1,10,1,4.27,4.27,0,0,0,5.77,5.27.51.51,0,0,1,5.27,5.77Z"/><path class="cls-1" d="M5.27,5.77a.51.51,0,0,1-.36-.15l-1-1a.49.49,0,1,1,.7-.7l.66.65.65-.65a.5.5,0,0,1,.71,0,.5.5,0,0,1,0,.7l-1,1A.5.5,0,0,1,5.27,5.77Z"/><path class="cls-1" d="M8.78,10.53h-7A1.75,1.75,0,0,1,0,8.78v-7A1.76,1.76,0,0,1,1.75,0H4.44a.5.5,0,0,1,.5.5.5.5,0,0,1-.5.5H1.75A.76.76,0,0,0,1,1.75v7a.75.75,0,0,0,.75.75h7a.74.74,0,0,0,.75-.75V3.38a.5.5,0,0,1,.5-.5.5.5,0,0,1,.5.5v5.4A1.75,1.75,0,0,1,8.78,10.53Z"/></g></g></svg>