<?xml version="1.0" encoding="UTF-8"?>
<svg width="15px" height="15px" viewBox="0 0 15 15" version="1.1" xmlns="http://www.w3.org/2000/svg" xmlns:xlink="http://www.w3.org/1999/xlink">
    <!-- Generator: Sketch 52.2 (67145) - http://www.bohemiancoding.com/sketch -->
    <title>分组</title>
    <desc>Created with Sketch.</desc>
    <g id="Page-1" stroke="none" stroke-width="1" fill="none" fill-rule="evenodd" stroke-linecap="round" stroke-linejoin="round">
        <g id="我发起的" transform="translate(-470.000000, -260.000000)" stroke="#0590FF">
            <g id="分组-12" transform="translate(270.000000, 248.000000)">
                <g id="分组-7-copy-4" transform="translate(80.000000, 0.000000)">
                    <g id="分组" transform="translate(121.000000, 13.000000)">
                        <path d="M11.9158667,13.2460103 L1.1508,13.2460103 C0.5152,13.2460103 0,12.6911795 0,12.0076923 L0,2.31524103 C0,1.63074872 0.5152,1.07692308 1.1508,1.07692308 L11.9158667,1.07692308 C12.5514667,1.07692308 13.0666667,1.63074872 13.0666667,2.31524103 L13.0666667,12.0076923 C13.0666667,12.6911795 12.5514667,13.2460103 11.9158667,13.2460103 Z" id="Stroke-1"></path>
                        <path d="M0,5.88717949 L13.0666667,5.88717949" id="Stroke-3"></path>
                        <path d="M2.46666667,0 L2.46666667,3.80340513" id="Stroke-5"></path>
                        <path d="M6.46666667,0 L6.46666667,3.80340513" id="Stroke-7"></path>
                        <path d="M10.4666667,0 L10.4666667,3.80340513" id="Stroke-9"></path>
                    </g>
                </g>
            </g>
        </g>
    </g>
</svg>