<?xml version="1.0" encoding="UTF-8"?>
<svg width="14px" height="14px" viewBox="0 0 14 14" version="1.1" xmlns="http://www.w3.org/2000/svg" xmlns:xlink="http://www.w3.org/1999/xlink">
    <!-- Generator: Sketch 52.2 (67145) - http://www.bohemiancoding.com/sketch -->
    <title>项目-新建分组_编辑</title>
    <desc>Created with Sketch.</desc>
    <g id="Page-1" stroke="none" stroke-width="1" fill="none" fill-rule="evenodd">
        <g id="项目-新建分组" transform="translate(-145.000000, -370.000000)">
            <g id="分组-9" transform="translate(0.000000, 80.000000)">
                <g id="项目-新建分组_编辑" transform="translate(142.000000, 287.000000)">
                    <circle id="椭圆形" cx="10" cy="10" r="10"></circle>
                    <g id="分组" transform="translate(4.000000, 4.000000)" stroke="#0590FF" stroke-linecap="round" stroke-linejoin="round">
                        <path d="M11.5171077,3.59067692 L3.46633846,11.6417538 C3.33403077,11.7737538 3.15556923,11.8488308 2.96910769,11.8512923 L0.879261538,11.8774462 C0.476492308,11.8826769 0.1488,11.5549846 0.153723077,11.1525231 L0.180184615,9.06267692 C0.182646154,8.8756 0.257723077,8.69713846 0.390030769,8.56513846 L8.4408,0.514369231 C8.92110769,0.0337538462 9.7008,0.0337538462 10.1811077,0.514369231 L11.5171077,1.85006154 C11.9977231,2.33067692 11.9977231,3.11006154 11.5171077,3.59067692 Z" id="Stroke-1"></path>
                        <path d="M0.714523077,8.24046154 L3.79083077,11.3170769" id="Stroke-3"></path>
                        <path d="M7.46452308,1.49046154 L10.5408308,4.56707692" id="Stroke-5"></path>
                    </g>
                </g>
            </g>
        </g>
    </g>
</svg>