<?xml version="1.0" encoding="UTF-8"?>
<svg width="17px" height="15px" viewBox="0 0 17 15" version="1.1" xmlns="http://www.w3.org/2000/svg" xmlns:xlink="http://www.w3.org/1999/xlink">
    <!-- Generator: Sketch 52.2 (67145) - http://www.bohemiancoding.com/sketch -->
    <title>展品</title>
    <desc>Created with Sketch.</desc>
    <defs>
        <path d="M2.992,0.195 C2.763,0.195 2.545,0.281 2.376,0.436 C2.01,0.775 1.987,1.347 2.328,1.715 C2.833,2.261 3.085,2.835 3.085,3.436 C3.085,5.217 -0.354,6.026 0.128,8.012 C0.61,9.998 2.991,12.5 5.855,12.502 C8.719,12.504 10.962,10.563 11.581,8.018 C12.2,5.476 8.623,5.577 8.623,3.451 C8.623,2.75 8.863,2.133 9.344,1.595 C9.482,1.44 9.558,1.241 9.558,1.035 C9.558,0.572 9.182,0.195 8.719,0.195 L2.992,0.195 Z" id="path-1"></path>
        <path d="M2.992,0.195 C2.763,0.195 2.545,0.281 2.376,0.436 C2.01,0.775 1.987,1.347 2.328,1.715 C2.833,2.261 3.085,2.835 3.085,3.436 C3.085,5.217 -0.354,6.026 0.128,8.012 C0.61,9.998 2.991,12.5 5.855,12.502 C8.719,12.504 10.962,10.563 11.581,8.018 C12.2,5.476 8.623,5.577 8.623,3.451 C8.623,2.75 8.863,2.133 9.344,1.595 C9.482,1.44 9.558,1.241 9.558,1.035 C9.558,0.572 9.182,0.195 8.719,0.195 L2.992,0.195 Z" id="path-3"></path>
        <path d="M0.019,0.804 L0.792,11.063 C2.313,10.454 3.428,9.14 3.814,7.556 C4.348,5.361 1.261,5.45 1.261,3.614 C1.261,3.01 1.468,2.476 1.884,2.012 C2.002,1.879 2.066,1.707 2.066,1.528 C2.066,1.128 1.742,0.804 1.342,0.804" id="path-5"></path>
        <path d="M0.019,0.804 L0.792,11.063 C2.313,10.454 3.428,9.14 3.814,7.556 C4.348,5.361 1.261,5.45 1.261,3.614 C1.261,3.01 1.468,2.476 1.884,2.012 C2.002,1.879 2.066,1.707 2.066,1.528 C2.066,1.128 1.742,0.804 1.342,0.804 L0.019,0.804 Z" id="path-7"></path>
    </defs>
    <g id="Page-1" stroke="none" stroke-width="1" fill="none" fill-rule="evenodd">
        <g id="模版设置" transform="translate(-471.000000, -580.000000)">
            <g id="分组-8" transform="translate(270.000000, 181.000000)">
                <g id="分组-11-copy" transform="translate(178.000000, 387.000000)">
                    <g id="展品" transform="translate(24.000000, 13.000000)">
                        <g id="分组" transform="translate(0.000000, 0.236000)">
                            <g>
                                <mask id="mask-2" fill="white">
                                    <use xlink:href="#path-1"></use>
                                </mask>
                                <g id="Clip-2"></g>
                                <path d="M2.9917,0.1952 L8.7187,0.1952 C9.1817,0.1952 9.5577,0.5712 9.5577,1.0352 C9.5577,1.2412 9.4817,1.4402 9.3447,1.5942 C8.8637,2.1322 8.6237,2.7512 8.6237,3.4512 C8.6237,5.5772 12.1997,5.4752 11.5817,8.0182 C10.9627,10.5622 8.7187,12.5042 5.8547,12.5022 C2.9907,12.5002 0.6107,9.9982 0.1287,8.0112 C-0.3543,6.0262 3.0857,5.2172 3.0857,3.4362 C3.0857,2.8352 2.8327,2.2602 2.3277,1.7152 C1.9877,1.3472 2.0107,0.7752 2.3767,0.4352 C2.5447,0.2812 2.7627,0.1952 2.9917,0.1952 Z" id="Stroke-1" stroke="#9699A2" stroke-width="0.912" mask="url(#mask-2)"></path>
                            </g>
                            <mask id="mask-4" fill="white">
                                <use xlink:href="#path-3"></use>
                            </mask>
                            <g id="Clip-4"></g>
                        </g>
                        <path d="M2.9917,0.4312 L8.7187,0.4312 C9.1817,0.4312 9.5577,0.8072 9.5577,1.2712 C9.5577,1.4772 9.4817,1.6762 9.3447,1.8302 C8.8637,2.3682 8.6237,2.9872 8.6237,3.6872 C8.6237,5.8132 12.1997,5.7112 11.5817,8.2542 C10.9627,10.7982 8.7187,12.7402 5.8547,12.7382 C2.9907,12.7362 0.6107,10.2342 0.1287,8.2472 C-0.3543,6.2622 3.0857,5.4532 3.0857,3.6722 C3.0857,3.0712 2.8327,2.4962 2.3277,1.9512 C1.9877,1.5832 2.0107,1.0112 2.3767,0.6712 C2.5447,0.5172 2.7627,0.4312 2.9917,0.4312 Z" id="Stroke-5" stroke="#9699A2" stroke-width="0.912"></path>
                        <g id="分组" transform="translate(11.000000, 1.236000)">
                            <g>
                                <mask id="mask-6" fill="white">
                                    <use xlink:href="#path-5"></use>
                                </mask>
                                <g id="Clip-8"></g>
                                <path d="M1.3422,0.8036 C1.7422,0.8036 2.0672,1.1276 2.0672,1.5286 C2.0672,1.7066 2.0012,1.8786 1.8832,2.0116 C1.4682,2.4756 1.2612,3.0096 1.2612,3.6146 C1.2612,5.4496 4.3482,5.3616 3.8142,7.5566" id="Stroke-7" stroke="#9699A2" stroke-width="0.912" stroke-linecap="round" mask="url(#mask-6)"></path>
                            </g>
                            <mask id="mask-8" fill="white">
                                <use xlink:href="#path-7"></use>
                            </mask>
                            <g id="Clip-10"></g>
                        </g>
                        <path d="M11.019,2.0396 L12.342,2.0396 C12.743,2.0396 13.067,2.3636 13.067,2.7646 C13.067,2.9426 13.001,3.1146 12.883,3.2476 C12.468,3.7116 12.261,4.2456 12.261,4.8506 C12.261,6.6856 15.348,6.5976 14.814,8.7926 C14.428,10.3766 13.313,11.6896 11.792,12.2986" id="Stroke-11" stroke="#9699A2" stroke-width="0.912" stroke-linecap="round"></path>
                    </g>
                </g>
            </g>
        </g>
    </g>
</svg>