<?xml version="1.0" encoding="UTF-8"?>
<svg width="17px" height="15px" viewBox="0 0 17 15" version="1.1" xmlns="http://www.w3.org/2000/svg" xmlns:xlink="http://www.w3.org/1999/xlink">
    <!-- Generator: Sketch 52.2 (67145) - http://www.bohemiancoding.com/sketch -->
    <title>展品选中</title>
    <desc>Created with Sketch.</desc>
    <defs>
        <path d="M2.992,0.195 C2.763,0.195 2.545,0.281 2.376,0.436 C2.01,0.775 1.987,1.347 2.328,1.714 C2.833,2.261 3.085,2.835 3.085,3.436 C3.085,5.217 -0.354,6.026 0.128,8.012 C0.61,9.998 2.991,12.5 5.855,12.502 C8.719,12.504 10.962,10.563 11.581,8.018 C12.2,5.476 8.623,5.577 8.623,3.45 C8.623,2.751 8.863,2.132 9.344,1.595 C9.482,1.44 9.558,1.241 9.558,1.035 C9.558,0.572 9.182,0.195 8.719,0.195 L2.992,0.195 Z" id="path-1"></path>
        <path d="M2.992,0.195 C2.763,0.195 2.545,0.281 2.376,0.436 C2.01,0.775 1.987,1.347 2.328,1.714 C2.833,2.261 3.085,2.835 3.085,3.436 C3.085,5.217 -0.354,6.026 0.128,8.012 C0.61,9.998 2.991,12.5 5.855,12.502 C8.719,12.504 10.962,10.563 11.581,8.018 C12.2,5.476 8.623,5.577 8.623,3.45 C8.623,2.751 8.863,2.132 9.344,1.595 C9.482,1.44 9.558,1.241 9.558,1.035 C9.558,0.572 9.182,0.195 8.719,0.195 L2.992,0.195 Z" id="path-3"></path>
        <path d="M0.019,0.804 L0.792,11.063 C2.313,10.454 3.428,9.14 3.814,7.556 C4.348,5.361 1.261,5.45 1.261,3.614 C1.261,3.01 1.468,2.476 1.884,2.012 C2.002,1.879 2.066,1.707 2.066,1.528 C2.066,1.128 1.742,0.804 1.342,0.804" id="path-5"></path>
        <path d="M0.019,0.804 L0.792,11.063 C2.313,10.454 3.428,9.14 3.814,7.556 C4.348,5.361 1.261,5.45 1.261,3.614 C1.261,3.01 1.468,2.476 1.884,2.012 C2.002,1.879 2.066,1.707 2.066,1.528 C2.066,1.128 1.742,0.804 1.342,0.804 L0.019,0.804 Z" id="path-7"></path>
    </defs>
    <g id="Page-1" stroke="none" stroke-width="1" fill="none" fill-rule="evenodd">
        <g id="模版设置" transform="translate(-471.000000, -617.000000)">
            <g id="展品选中" transform="translate(472.000000, 618.000000)">
                <g id="分组" transform="translate(0.000000, 0.236000)">
                    <g>
                        <mask id="mask-2" fill="white">
                            <use xlink:href="#path-1"></use>
                        </mask>
                        <g id="Clip-2"></g>
                        <path d="M2.9917,0.1953 L8.7187,0.1953 C9.1817,0.1953 9.5577,0.5713 9.5577,1.0353 C9.5577,1.2413 9.4817,1.4403 9.3447,1.5943 C8.8637,2.1323 8.6237,2.7513 8.6237,3.4503 C8.6237,5.5773 12.1997,5.4753 11.5817,8.0183 C10.9627,10.5623 8.7187,12.5043 5.8547,12.5023 C2.9907,12.5003 0.6107,9.9983 0.1287,8.0113 C-0.3543,6.0263 3.0857,5.2173 3.0857,3.4363 C3.0857,2.8353 2.8327,2.2603 2.3277,1.7143 C1.9877,1.3473 2.0107,0.7753 2.3767,0.4353 C2.5447,0.2813 2.7627,0.1953 2.9917,0.1953 Z" id="Stroke-1" stroke="#0590FF" stroke-width="0.912" mask="url(#mask-2)"></path>
                    </g>
                    <mask id="mask-4" fill="white">
                        <use xlink:href="#path-3"></use>
                    </mask>
                    <g id="Clip-4"></g>
                    <polygon id="Stroke-3" stroke="#0590FF" stroke-width="0.912" mask="url(#mask-4)" points="-96.544 684.544 68.28 684.544 68.28 -210.78 -96.544 -210.78"></polygon>
                </g>
                <path d="M2.9917,0.4313 L8.7187,0.4313 C9.1817,0.4313 9.5577,0.8073 9.5577,1.2713 C9.5577,1.4773 9.4817,1.6763 9.3447,1.8303 C8.8637,2.3683 8.6237,2.9873 8.6237,3.6863 C8.6237,5.8133 12.1997,5.7113 11.5817,8.2543 C10.9627,10.7983 8.7187,12.7403 5.8547,12.7383 C2.9907,12.7363 0.6107,10.2343 0.1287,8.2473 C-0.3543,6.2623 3.0857,5.4533 3.0857,3.6723 C3.0857,3.0713 2.8327,2.4963 2.3277,1.9503 C1.9877,1.5833 2.0107,1.0113 2.3767,0.6713 C2.5447,0.5173 2.7627,0.4313 2.9917,0.4313 Z" id="Stroke-5" stroke="#0590FF" stroke-width="0.912"></path>
                <g id="分组" transform="translate(11.000000, 1.236000)">
                    <g>
                        <mask id="mask-6" fill="white">
                            <use xlink:href="#path-5"></use>
                        </mask>
                        <g id="Clip-8"></g>
                        <path d="M1.3422,0.8037 C1.7422,0.8037 2.0672,1.1277 2.0672,1.5287 C2.0672,1.7067 2.0012,1.8787 1.8832,2.0117 C1.4682,2.4757 1.2612,3.0097 1.2612,3.6147 C1.2612,5.4497 4.3482,5.3617 3.8142,7.5567" id="Stroke-7" stroke="#0590FF" stroke-width="0.912" stroke-linecap="round" mask="url(#mask-6)"></path>
                    </g>
                    <mask id="mask-8" fill="white">
                        <use xlink:href="#path-7"></use>
                    </mask>
                    <g id="Clip-10"></g>
                    <polygon id="Stroke-9" stroke="#0590FF" stroke-width="0.912" stroke-linecap="round" mask="url(#mask-8)" points="-89.514 591.497 52.753 591.497 52.753 -181.299 -89.514 -181.299"></polygon>
                </g>
                <path d="M11.019,2.0397 L12.342,2.0397 C12.743,2.0397 13.067,2.3637 13.067,2.7647 C13.067,2.9427 13.001,3.1147 12.883,3.2477 C12.468,3.7117 12.261,4.2457 12.261,4.8507 C12.261,6.6857 15.348,6.5977 14.814,8.7927 C14.428,10.3767 13.313,11.6897 11.792,12.2987" id="Stroke-11" stroke="#0590FF" stroke-width="0.912" stroke-linecap="round"></path>
            </g>
        </g>
    </g>
</svg>