<?xml version="1.0" encoding="UTF-8"?>
<svg width="16px" height="15px" viewBox="0 0 16 15" version="1.1" xmlns="http://www.w3.org/2000/svg" xmlns:xlink="http://www.w3.org/1999/xlink">
    <!-- Generator: Sketch 52.2 (67145) - http://www.bohemiancoding.com/sketch -->
    <title>文件选中</title>
    <desc>Created with Sketch.</desc>
    <g id="Page-1" stroke="none" stroke-width="1" fill="none" fill-rule="evenodd">
        <g id="模版设置" transform="translate(-619.000000, -581.000000)" stroke="#0590FF" stroke-width="0.912">
            <g id="分组-8" transform="translate(270.000000, 181.000000)">
                <g id="分组-10-copy-2" transform="translate(326.000000, 387.000000)">
                    <g id="文件选中" transform="translate(24.000000, 13.000000)">
                        <path d="M12.7625,12.3521 L9.5695,12.3521 C9.2335,12.3521 8.9085,12.4751 8.6585,12.6991 L7.0655,14.1151 L5.4715,12.6991 C5.2205,12.4751 4.8975,12.3521 4.5615,12.3521 L1.3665,12.3521 C0.8665,12.3521 0.4555,11.9421 0.4555,11.4411 L0.4555,1.3681 C0.4555,0.8661 0.8665,0.4561 1.3665,0.4561 L4.5615,0.4561 C4.8975,0.4561 5.2205,0.5791 5.4715,0.8021 L7.0655,2.2181 L8.6585,0.8021 C8.9085,0.5791 9.2335,0.4561 9.5695,0.4561 L12.7625,0.4561 C13.2645,0.4561 13.6745,0.8661 13.6745,1.3681 L13.6745,11.4411 C13.6745,11.9421 13.2645,12.3521 12.7625,12.3521 Z" id="Stroke-1"></path>
                        <path d="M7.0652,2.2183 L7.0652,14.1143" id="Stroke-3"></path>
                    </g>
                </g>
            </g>
        </g>
    </g>
</svg>