<?xml version="1.0" encoding="UTF-8"?>
<svg width="16px" height="16px" viewBox="0 0 16 16" version="1.1" xmlns="http://www.w3.org/2000/svg" xmlns:xlink="http://www.w3.org/1999/xlink">
    <!-- Generator: Sketch 52.2 (67145) - http://www.bohemiancoding.com/sketch -->
    <title>文件</title>
    <desc>Created with Sketch.</desc>
    <g id="Page-1" stroke="none" stroke-width="1" fill="none" fill-rule="evenodd">
        <g id="模版设置" transform="translate(-620.000000, -617.000000)" stroke="#9699A2" stroke-width="0.912">
            <g id="文件" transform="translate(621.000000, 618.000000)">
                <path d="M12.7625,12.3519 L9.5695,12.3519 C9.2335,12.3519 8.9085,12.4759 8.6585,12.6989 L7.0655,14.1149 L5.4715,12.6989 C5.2205,12.4759 4.8975,12.3519 4.5615,12.3519 L1.3665,12.3519 C0.8665,12.3519 0.4555,11.9419 0.4555,11.4409 L0.4555,1.3679 C0.4555,0.8659 0.8665,0.4559 1.3665,0.4559 L4.5615,0.4559 C4.8975,0.4559 5.2205,0.5789 5.4715,0.8019 L7.0655,2.2179 L8.6585,0.8019 C8.9085,0.5789 9.2335,0.4559 9.5695,0.4559 L12.7625,0.4559 C13.2645,0.4559 13.6745,0.8659 13.6745,1.3679 L13.6745,11.4409 C13.6745,11.9419 13.2645,12.3519 12.7625,12.3519 Z" id="Stroke-1"></path>
                <path d="M7.0652,2.2182 L7.0652,14.1142" id="Stroke-3"></path>
            </g>
        </g>
    </g>
</svg>