<?xml version="1.0" encoding="UTF-8"?>
<svg width="15px" height="15px" viewBox="0 0 15 15" version="1.1" xmlns="http://www.w3.org/2000/svg" xmlns:xlink="http://www.w3.org/1999/xlink">
    <!-- Generator: Sketch 52.2 (67145) - http://www.bohemiancoding.com/sketch -->
    <title>任务看板-拖拽_附件</title>
    <desc>Created with Sketch.</desc>
    <defs>
        <rect id="path-1" x="0" y="0" width="16" height="16"></rect>
    </defs>
    <g id="Page-1" stroke="none" stroke-width="1" fill="none" fill-rule="evenodd">
        <g id="任务看板-拖拽" transform="translate(-304.000000, -468.000000)">
            <g id="分组-5-copy-2" transform="translate(51.000000, 448.000000)">
                <g id="任务看板-拖拽_附件" transform="translate(252.000000, 19.000000)">
                    <mask id="mask-2" fill="white">
                        <use xlink:href="#path-1"></use>
                    </mask>
                    <g id="Mask"></g>
                    <g id="分组-7" mask="url(#mask-2)" stroke="#0590FF" stroke-linecap="round">
                        <g transform="translate(8.131728, 8.131728) rotate(-315.000000) translate(-8.131728, -8.131728) translate(4.131728, 0.631728)" id="路径">
                            <path d="M0,11 L0,8.14285714 C0,6.95938982 0.8954305,6 2,6 C3.1045695,6 4,6.95938982 4,8.14285714 L4,11"></path>
                            <path d="M0,3.75 C0,1.67893219 1.790861,0 4,0 C6.209139,0 8,1.67893219 8,3.75 L8,11.25 C8,13.3210678 6.209139,15 4,15 C1.790861,15 0,13.3210678 0,11.25"></path>
                        </g>
                    </g>
                </g>
            </g>
        </g>
    </g>
</svg>