<svg xmlns="http://www.w3.org/2000/svg" viewBox="0 0 8.69 11"><defs><style>.cls-1{ }</style></defs><title>资源 56</title><g id="图层_2" data-name="图层 2"><g id="图层_1-2" data-name="图层 1"><path class="cls-1" d="M5,9.07a.5.5,0,0,1-.5-.5V6A.5.5,0,0,1,5,5.5a.5.5,0,0,1,.5.5V8.57A.5.5,0,0,1,5,9.07Z"/><path class="cls-1" d="M5,11A3.77,3.77,0,0,1,1.28,7.17,3.78,3.78,0,0,1,5,3.33a3.77,3.77,0,0,1,3.7,3.84A3.77,3.77,0,0,1,5,11ZM5,4.33A2.78,2.78,0,0,0,2.28,7.17,2.78,2.78,0,0,0,5,10a2.77,2.77,0,0,0,2.7-2.83A2.77,2.77,0,0,0,5,4.33Z"/><path class="cls-1" d="M5,4.33a.5.5,0,0,1-.5-.5V2.58A1.67,1.67,0,0,0,2.74,1,1.67,1.67,0,0,0,1,2.58V3.83a.5.5,0,0,1-.5.5.5.5,0,0,1-.5-.5V2.58A2.67,2.67,0,0,1,2.74,0,2.67,2.67,0,0,1,5.49,2.58V3.83A.5.5,0,0,1,5,4.33Z"/></g></g></svg>