<?xml version="1.0" encoding="UTF-8"?>
<svg width="17px" height="17px" viewBox="0 0 17 17" version="1.1" xmlns="http://www.w3.org/2000/svg" xmlns:xlink="http://www.w3.org/1999/xlink">
    <!-- Generator: Sketch 52.2 (67145) - http://www.bohemiancoding.com/sketch -->
    <title>项目列表_分组</title>
    <desc>Created with Sketch.</desc>
    <g id="Page-1" stroke="none" stroke-width="1" fill="none" fill-rule="evenodd">
        <g id="项目列表" transform="translate(-39.000000, -307.000000)">
            <g id="分组-9" transform="translate(0.000000, 80.000000)">
                <g id="分组-11" transform="translate(40.000000, 228.000000)">
                    <g id="项目列表_分组">
                        <path d="M3.5,15 C1.56689474,15 0,13.4631568 0,11.5671267 L0,0.722710163 C0,0.323774153 0.330105263,0 0.736842105,0 L6.26315789,0 C6.66989474,0 7,0.323774153 7,0.722710163 L7,11.5671267 C7,13.4631568 5.43310526,15 3.5,15 Z" id="Stroke-1" stroke="#575962"></path>
                        <path d="M0,3.55789474 L6.90526316,3.55789474" id="Stroke-3" stroke="#575962"></path>
                        <path d="M5.71643664,8.44312121 C5.71643664,7.94969786 5.71643664,7.4259935 5.71643664,6.4391468 C5.71643664,6.04021079 6.0465419,5.71643664 6.45327874,5.71643664 L11.9795945,5.71643664 C12.3863314,5.71643664 12.7164366,6.04021079 12.7164366,6.4391468 L12.7164366,17.2835634" id="路径" stroke="#575962" transform="translate(9.216437, 11.500000) rotate(90.000000) translate(-9.216437, -11.500000) "></path>
                        <path d="M4.00532551,5.34643006 C4.00532551,4.66990794 4.00532551,3.65512477 4.00532551,2.30208053 C4.00532551,1.90314452 4.33543077,1.57937037 4.74216762,1.57937037 L10.2684834,1.57937037 C10.6752202,1.57937037 11.0053255,1.90314452 11.0053255,2.30208053 L10.8610088,14.522677" id="路径" stroke="#575962" transform="translate(7.505326, 8.051024) rotate(45.000000) translate(-7.505326, -8.051024) "></path>
                        <path d="M6.4855472,6.46449457 L13.3908104,6.46449457" id="Stroke-3" stroke="#575962" transform="translate(10.275021, 6.275021) rotate(45.000000) translate(-10.275021, -6.275021) "></path>
                        <path d="M4,11.5 C4,11.7763333 3.776,12 3.5,12 C3.224,12 3,11.7763333 3,11.5 C3,11.2236667 3.224,11 3.5,11 C3.776,11 4,11.2236667 4,11.5" id="Fill-5" fill="#575962"></path>
                        <path d="M12.0948486,8.08374023 L12.0948486,15.0637207" id="路径-2" stroke="#575962" stroke-linejoin="round"></path>
                    </g>
                </g>
            </g>
        </g>
    </g>
</svg>