<svg xmlns="http://www.w3.org/2000/svg" viewBox="0 0 14.96 16.06"><defs><style>.cls-1{ }</style></defs><title>资源 42</title><g id="图层_2" data-name="图层 2"><g id="图层_1-2" data-name="图层 1"><path class="cls-1" d="M3.56,12.4a.51.51,0,0,1-.25-.06.51.51,0,0,1-.19-.69l2-3.45A.68.68,0,0,0,5,7.33,4.09,4.09,0,0,1,7,0a4.15,4.15,0,0,1,3.2,1,4.13,4.13,0,0,1,1.36,3.05A4.06,4.06,0,0,1,10,7.31a.7.7,0,0,0-.16.89l2,3.45a.52.52,0,0,1-.19.69.5.5,0,0,1-.68-.19L9,8.7a1.7,1.7,0,0,1,.42-2.18,3.08,3.08,0,0,0,1.18-2.43,3.13,3.13,0,0,0-1-2.31A3.09,3.09,0,1,0,5.59,6.54,1.66,1.66,0,0,1,6,8.7L4,12.15A.48.48,0,0,1,3.56,12.4Z"/><path class="cls-1" d="M12.78,16.06H2.18A2.19,2.19,0,0,1,0,13.87v-.28a2.18,2.18,0,0,1,2.18-2.18h10.6A2.18,2.18,0,0,1,15,13.59v.28A2.19,2.19,0,0,1,12.78,16.06ZM2.18,12.41A1.18,1.18,0,0,0,1,13.59v.28a1.18,1.18,0,0,0,1.18,1.19h10.6A1.18,1.18,0,0,0,14,13.87v-.28a1.18,1.18,0,0,0-1.18-1.18Z"/></g></g></svg>