<svg xmlns="http://www.w3.org/2000/svg" xmlns:xlink="http://www.w3.org/1999/xlink" viewBox="0 0 20.83 20.83"><defs><style>.cls-1{fill:none;}.cls-2{clip-path:url(#clip-path);}.cls-3{clip-path:url(#clip-path-2);}.cls-4{}.cls-5{clip-path:url(#clip-path-3);}.cls-6{clip-path:url(#clip-path-5);}.cls-7{clip-path:url(#clip-path-7);}</style><clipPath id="clip-path" transform="translate(-1277 -100.17)"><rect class="cls-1" x="1278" y="102" width="8" height="8" rx="2"/></clipPath><clipPath id="clip-path-2" transform="translate(-1277 -100.17)"><rect class="cls-1" width="1440" height="900"/></clipPath><clipPath id="clip-path-3" transform="translate(-1277 -100.17)"><rect class="cls-1" x="1278" y="112" width="8" height="8" rx="2"/></clipPath><clipPath id="clip-path-5" transform="translate(-1277 -100.17)"><rect class="cls-1" x="1288" y="112" width="8" height="8" rx="2"/></clipPath><clipPath id="clip-path-7" transform="translate(-1277 -100.17)"><rect class="cls-1" x="1288" y="102" width="8" height="8" rx="2" transform="translate(303.46 944.63) rotate(-45)"/></clipPath></defs><title>资源 66</title><g id="图层_2" data-name="图层 2"><g id="图层_1-2" data-name="图层 1"><g class="cls-2"><g class="cls-3"><path class="cls-4" d="M1284,111h-4a3,3,0,0,1-3-3v-4a3,3,0,0,1,3-3h4a3,3,0,0,1,3,3v4A3,3,0,0,1,1284,111Zm-4-8a1,1,0,0,0-1,1v4a1,1,0,0,0,1,1h4a1,1,0,0,0,1-1v-4a1,1,0,0,0-1-1Z" transform="translate(-1277 -100.17)"/></g></g><g class="cls-5"><g class="cls-3"><path class="cls-4" d="M1284,121h-4a3,3,0,0,1-3-3v-4a3,3,0,0,1,3-3h4a3,3,0,0,1,3,3v4A3,3,0,0,1,1284,121Zm-4-8a1,1,0,0,0-1,1v4a1,1,0,0,0,1,1h4a1,1,0,0,0,1-1v-4a1,1,0,0,0-1-1Z" transform="translate(-1277 -100.17)"/></g></g><g class="cls-6"><g class="cls-3"><path class="cls-4" d="M1294,121h-4a3,3,0,0,1-3-3v-4a3,3,0,0,1,3-3h4a3,3,0,0,1,3,3v4A3,3,0,0,1,1294,121Zm-4-8a1,1,0,0,0-1,1v4a1,1,0,0,0,1,1h4a1,1,0,0,0,1-1v-4a1,1,0,0,0-1-1Z" transform="translate(-1277 -100.17)"/></g></g><g class="cls-7"><g class="cls-3"><path class="cls-4" d="M1292,111.83a3,3,0,0,1-2.12-.88l-2.83-2.83a3,3,0,0,1,0-4.24l2.83-2.83a3,3,0,0,1,4.24,0l2.83,2.83a3,3,0,0,1,0,4.24l-2.83,2.83A3,3,0,0,1,1292,111.83Zm0-9.66a1,1,0,0,0-.71.29l-2.83,2.83a1,1,0,0,0,0,1.42l2.83,2.83a1,1,0,0,0,1.42,0l2.83-2.83a1,1,0,0,0,0-1.42l-2.83-2.83A1,1,0,0,0,1292,102.17Z" transform="translate(-1277 -100.17)"/></g></g></g></g></svg>