<svg xmlns="http://www.w3.org/2000/svg" viewBox="0 0 20 17"><defs><style>.cls-1,.cls-2{ }.cls-2{fill-rule:evenodd;}</style></defs><title>资源 62</title><g id="图层_2" data-name="图层 2"><g id="图层_1-2" data-name="图层 1"><circle class="cls-1" cx="0.5" cy="0.5" r="0.5"/><circle class="cls-1" cx="0.5" cy="8.5" r="0.5"/><path class="cls-2" d="M3.5,8h11a.5.5,0,0,1,0,1H3.5a.5.5,0,0,1,0-1Z"/><circle class="cls-1" cx="0.5" cy="16.5" r="0.5"/><path class="cls-2" d="M3.5,16h16a.5.5,0,0,1,0,1H3.5a.5.5,0,0,1,0-1Z"/><path class="cls-2" d="M3.5,0h16a.5.5,0,0,1,.5.5.5.5,0,0,1-.5.5H3.5A.5.5,0,0,1,3,.5.5.5,0,0,1,3.5,0Z"/></g></g></svg>