<svg xmlns="http://www.w3.org/2000/svg" viewBox="0 0 19.83 19.8"><defs><style>.cls-1{ }</style></defs><title>资源 63</title><g id="图层_2" data-name="图层 2"><g id="图层_1-2" data-name="图层 1"><path class="cls-1" d="M6.5,9.8h-4A2.5,2.5,0,0,1,0,7.3v-4A2.51,2.51,0,0,1,2.5.8h4A2.51,2.51,0,0,1,9,3.3v4A2.5,2.5,0,0,1,6.5,9.8Zm-4-8A1.5,1.5,0,0,0,1,3.3v4A1.5,1.5,0,0,0,2.5,8.8h4A1.5,1.5,0,0,0,8,7.3v-4A1.5,1.5,0,0,0,6.5,1.8Z"/><path class="cls-1" d="M6.5,19.8h-4A2.5,2.5,0,0,1,0,17.3v-4a2.51,2.51,0,0,1,2.5-2.5h4A2.51,2.51,0,0,1,9,13.3v4A2.5,2.5,0,0,1,6.5,19.8Zm-4-8A1.5,1.5,0,0,0,1,13.3v4a1.5,1.5,0,0,0,1.5,1.5h4A1.5,1.5,0,0,0,8,17.3v-4a1.5,1.5,0,0,0-1.5-1.5Z"/><path class="cls-1" d="M16.5,19.8h-4A2.5,2.5,0,0,1,10,17.3v-4a2.51,2.51,0,0,1,2.5-2.5h4A2.51,2.51,0,0,1,19,13.3v4A2.5,2.5,0,0,1,16.5,19.8Zm-4-8A1.5,1.5,0,0,0,11,13.3v4a1.5,1.5,0,0,0,1.5,1.5h4A1.5,1.5,0,0,0,18,17.3v-4a1.5,1.5,0,0,0-1.5-1.5Z"/><path class="cls-1" d="M14.5,10.63a2.49,2.49,0,0,1-1.77-.73L9.9,7.07a2.5,2.5,0,0,1,0-3.53L12.73.71a2.55,2.55,0,0,1,3.54,0L19.1,3.54a2.5,2.5,0,0,1,0,3.53L16.27,9.9A2.49,2.49,0,0,1,14.5,10.63ZM10.61,4.24a1.51,1.51,0,0,0,0,2.13l2.83,2.82a1.53,1.53,0,0,0,2.12,0l2.83-2.82a1.51,1.51,0,0,0,0-2.13L15.56,1.42a1.53,1.53,0,0,0-2.12,0Z"/></g></g></svg>