<?xml version="1.0" encoding="UTF-8"?>
<svg width="14px" height="15px" viewBox="0 0 14 15" version="1.1" xmlns="http://www.w3.org/2000/svg" xmlns:xlink="http://www.w3.org/1999/xlink">
    <!-- Generator: Sketch 52.2 (67145) - http://www.bohemiancoding.com/sketch -->
    <title>日程</title>
    <desc>Created with Sketch.</desc>
    <g id="Page-1" stroke="none" stroke-width="1" fill="none" fill-rule="evenodd">
        <g id="模版设置" transform="translate(-766.000000, -618.000000)" fill="#9699A2">
            <g id="日程" transform="translate(766.000000, 618.000000)">
                <path d="M12.459,14.207 L1.367,14.207 C0.613,14.207 0,13.593 0,12.839 L0,2.849 C0,2.095 0.613,1.481 1.367,1.481 L2.355,1.481 C2.607,1.481 2.812,1.686 2.812,1.937 C2.812,2.189 2.607,2.394 2.355,2.394 L1.367,2.394 C1.116,2.394 0.912,2.598 0.912,2.849 L0.912,12.839 C0.912,13.091 1.116,13.295 1.367,13.295 L12.459,13.295 C12.711,13.295 12.915,13.091 12.915,12.839 L12.915,2.849 C12.915,2.598 12.711,2.394 12.459,2.394 L11.243,2.394 C10.991,2.394 10.787,2.189 10.787,1.937 C10.787,1.686 10.991,1.481 11.243,1.481 L12.459,1.481 C13.213,1.481 13.827,2.095 13.827,2.849 L13.827,12.839 C13.827,13.593 13.213,14.207 12.459,14.207" id="Fill-1"></path>
                <path d="M4.3496,3.5332 C4.0976,3.5332 3.8936,3.3292 3.8936,3.0772 L3.8936,0.4562 C3.8936,0.2042 4.0976,0.0002 4.3496,0.0002 C4.6016,0.0002 4.8056,0.2042 4.8056,0.4562 L4.8056,3.0772 C4.8056,3.3292 4.6016,3.5332 4.3496,3.5332" id="Fill-3"></path>
                <path d="M9.4775,3.5332 C9.2255,3.5332 9.0215,3.3292 9.0215,3.0772 L9.0215,0.4562 C9.0215,0.2042 9.2255,0.0002 9.4775,0.0002 C9.7295,0.0002 9.9335,0.2042 9.9335,0.4562 L9.9335,3.0772 C9.9335,3.3292 9.7295,3.5332 9.4775,3.5332" id="Fill-5"></path>
                <path d="M7.6348,2.3935 L6.1918,2.3935 C5.9398,2.3935 5.7358,2.1895 5.7358,1.9375 C5.7358,1.6855 5.9398,1.4815 6.1918,1.4815 L7.6348,1.4815 C7.8868,1.4815 8.0908,1.6855 8.0908,1.9375 C8.0908,2.1895 7.8868,2.3935 7.6348,2.3935" id="Fill-7"></path>
                <path d="M6.1064,5.8623 C6.3984,6.1313 6.5434,6.4763 6.5434,6.8973 C6.5434,7.3053 6.3864,7.6843 6.0734,8.0353 C5.8844,8.2273 5.5524,8.4853 5.0784,8.8083 C4.5614,9.1493 4.2524,9.4523 4.1494,9.7163 L6.5504,9.7163 L6.5504,10.3623 L3.2414,10.3623 C3.2414,9.8833 3.4004,9.4633 3.7184,9.1043 C3.8844,8.9073 4.2464,8.6153 4.8014,8.2293 C5.1284,7.9973 5.3574,7.8123 5.4884,7.6773 C5.7084,7.4313 5.8174,7.1693 5.8174,6.8913 C5.8174,6.6223 5.7444,6.4203 5.5954,6.2863 C5.4474,6.1513 5.2304,6.0843 4.9434,6.0843 C4.6374,6.0843 4.4094,6.1873 4.2564,6.3933 C4.0994,6.5913 4.0144,6.8843 4.0014,7.2743 L3.2684,7.2743 C3.2774,6.7363 3.4314,6.3053 3.7324,5.9833 C4.0374,5.6373 4.4504,5.4653 4.9694,5.4653 C5.4364,5.4653 5.8154,5.5973 6.1064,5.8623" id="Fill-9"></path>
                <path d="M10.1426,5.8144 C10.4296,6.0524 10.5736,6.3754 10.5736,6.7834 C10.5736,7.3124 10.3086,7.6654 9.7806,7.8394 C10.0576,7.9244 10.2736,8.0574 10.4256,8.2364 C10.5866,8.4164 10.6676,8.6494 10.6676,8.9364 C10.6676,9.3794 10.5156,9.7434 10.2096,10.0264 C9.8826,10.3134 9.4636,10.4564 8.9526,10.4564 C8.4636,10.4564 8.0686,10.3314 7.7686,10.0804 C7.4316,9.7964 7.2446,9.3864 7.2036,8.8484 L7.9436,8.8484 C7.9566,9.1754 8.0626,9.4244 8.2596,9.5954 C8.4346,9.7564 8.6636,9.8374 8.9456,9.8374 C9.2506,9.8374 9.4986,9.7484 9.6926,9.5684 C9.8586,9.4024 9.9416,9.2034 9.9416,8.9694 C9.9416,8.6874 9.8536,8.4784 9.6786,8.3434 C9.5176,8.2104 9.2776,8.1424 8.9586,8.1424 L8.6096,8.1424 L8.6096,7.5904 L8.9526,7.5904 C9.2446,7.5904 9.4656,7.5254 9.6186,7.3954 C9.7706,7.2654 9.8466,7.0794 9.8466,6.8364 C9.8466,6.5994 9.7776,6.4164 9.6386,6.2864 C9.4956,6.1554 9.2776,6.0904 8.9866,6.0904 C8.6946,6.0904 8.4676,6.1654 8.3066,6.3124 C8.1406,6.4644 8.0436,6.6874 8.0176,6.9784 L7.2976,6.9784 C7.3376,6.5024 7.5146,6.1304 7.8296,5.8624 C8.1206,5.5974 8.5036,5.4644 8.9796,5.4644 C9.4636,5.4644 9.8516,5.5824 10.1426,5.8144" id="Fill-11"></path>
            </g>
        </g>
    </g>
</svg>