<?xml version="1.0" encoding="UTF-8"?>
<svg width="14px" height="14px" viewBox="0 0 14 14" version="1.1" xmlns="http://www.w3.org/2000/svg" xmlns:xlink="http://www.w3.org/1999/xlink">
    <!-- Generator: Sketch 52.2 (67145) - http://www.bohemiancoding.com/sketch -->
    <title>日程选中</title>
    <desc>Created with Sketch.</desc>
    <g id="Page-1" stroke="none" stroke-width="1" fill="none" fill-rule="evenodd">
        <g id="模版设置" transform="translate(-768.000000, -581.000000)" fill="#0590FF">
            <g id="分组-8" transform="translate(270.000000, 181.000000)">
                <g id="分组-10-copy-3" transform="translate(474.000000, 387.000000)">
                    <g id="日程选中" transform="translate(24.000000, 13.000000)">
                        <path d="M12.6148839,14 L1.38410357,14 C0.620669704,14 0,13.3737525 0,12.6034578 L0,2.39756385 C0,1.62726916 0.620669704,1 1.38410357,1 L2.38446518,1 C2.63961814,1 2.84718305,1.20840864 2.84718305,1.46585462 C2.84718305,1.72330059 2.63961814,1.93170923 2.38446518,1.93170923 L1.38410357,1.93170923 C1.12996312,1.93170923 0.923410718,2.14113949 0.923410718,2.39756385 L0.923410718,12.6034578 C0.923410718,12.8598821 1.12996312,13.0682908 1.38410357,13.0682908 L12.6148839,13.0682908 C12.8700369,13.0682908 13.0765893,12.8598821 13.0765893,12.6034578 L13.0765893,2.39756385 C13.0765893,2.14113949 12.8700369,1.93170923 12.6148839,1.93170923 L11.3836696,1.93170923 C11.1285167,1.93170923 10.9219643,1.72330059 10.9219643,1.46585462 C10.9219643,1.20840864 11.1285167,1 11.3836696,1 L12.6148839,1 C13.3783178,1 14,1.62726916 14,2.39756385 L14,12.6034578 C14,13.3737525 13.3783178,14 12.6148839,14" id="Fill-1"></path>
                        <path d="M4.5,4 C4.248,4 4.044,3.76903481 4.044,3.48372488 L4.044,0.51627512 C4.044,0.230965185 4.248,0 4.5,0 C4.752,0 4.956,0.230965185 4.956,0.51627512 L4.956,3.48372488 C4.956,3.76903481 4.752,4 4.5,4" id="Fill-3"></path>
                        <path d="M9.5,4 C9.248,4 9.044,3.76903481 9.044,3.48372488 L9.044,0.51627512 C9.044,0.230965185 9.248,0 9.5,0 C9.752,0 9.956,0.230965185 9.956,0.51627512 L9.956,3.48372488 C9.956,3.76903481 9.752,4 9.5,4" id="Fill-5"></path>
                        <path d="M7.61273885,1.956 L6.38726115,1.956 C6.17324841,1.956 6,1.752 6,1.5 C6,1.248 6.17324841,1.044 6.38726115,1.044 L7.61273885,1.044 C7.82675159,1.044 8,1.248 8,1.5 C8,1.752 7.82675159,1.956 7.61273885,1.956" id="Fill-7"></path>
                        <path d="M5.59746147,5.40535021 C5.86219402,5.68000817 5.99365367,6.03226465 5.99365367,6.46211967 C5.99365367,6.87870125 5.8513146,7.26567286 5.56754306,7.62405554 C5.3961922,7.82009394 5.09519492,8.08352052 4.66545784,8.41331427 C4.19673617,8.76148662 3.91659112,9.07085971 3.82320943,9.3404125 L6,9.3404125 L6,10 L3,10 C3,9.51092506 3.14415231,9.08209108 3.43245694,8.71554013 C3.58295558,8.51439657 3.91115141,8.21625485 4.41432457,7.822136 C4.71078876,7.58525628 4.91840435,7.39636512 5.03717135,7.25852563 C5.23662738,7.00735144 5.33544878,6.73984072 5.33544878,6.45599347 C5.33544878,6.18133551 5.26926564,5.97508679 5.13417951,5.83826833 C5,5.70042883 4.80326383,5.6320196 4.54306437,5.6320196 C4.26563917,5.6320196 4.05893019,5.73718603 3.92021759,5.94751889 C3.77787851,6.14968348 3.70081596,6.44884623 3.68902992,6.84704921 L3.02447869,6.84704921 C3.03263826,6.29773331 3.17225748,5.85766796 3.44514959,5.52889524 C3.72166818,5.17561773 4.09610154,5 4.56663645,5 C4.9900272,5 5.33363554,5.13477639 5.59746147,5.40535021" id="Fill-9"></path>
                        <path d="M9.54532333,5.3505609 C9.79387991,5.58894231 9.91859122,5.91245994 9.91859122,6.32111378 C9.91859122,6.85096154 9.68908776,7.20452724 9.23181293,7.37880609 C9.47170901,7.46394231 9.65877598,7.59715545 9.7904157,7.77644231 C9.92984988,7.95673077 10,8.19010417 10,8.4775641 C10,8.92127404 9.86836028,9.28585737 9.60334873,9.5693109 C9.32015012,9.85677083 8.95727483,10 8.51472286,10 C8.09122402,10 7.74913395,9.87479968 7.48931871,9.62339744 C7.19745958,9.33894231 7.03550808,8.92828526 7,8.38942308 L7.6408776,8.38942308 C7.65213626,8.71694712 7.74393764,8.96634615 7.91454965,9.13762019 C8.06610855,9.29887821 8.26443418,9.38000801 8.50866051,9.38000801 C8.772806,9.38000801 8.98758661,9.29086538 9.15560046,9.11057692 C9.2993649,8.9443109 9.37124711,8.74499199 9.37124711,8.51061699 C9.37124711,8.22816506 9.29503464,8.01883013 9.14347575,7.88361378 C9.00404157,7.75040064 8.79618938,7.68229167 8.51991917,7.68229167 L8.21766744,7.68229167 L8.21766744,7.12940705 L8.51472286,7.12940705 C8.7676097,7.12940705 8.95900693,7.06430288 9.0915127,6.93409455 C9.22315242,6.80388622 9.28897229,6.61758814 9.28897229,6.37419872 C9.28897229,6.13681891 9.22921478,5.95352564 9.10883372,5.82331731 C8.98498845,5.69210737 8.79618938,5.62700321 8.54416859,5.62700321 C8.29128176,5.62700321 8.09468822,5.7021234 7.95525404,5.84935897 C7.81148961,6.00160256 7.72748268,6.22495994 7.70496536,6.51642628 L7.08140878,6.51642628 C7.11605081,6.03966346 7.2693418,5.66706731 7.54214781,5.39863782 C7.79416859,5.13321314 8.12586605,5 8.53810624,5 C8.95727483,5 9.29330254,5.1181891 9.54532333,5.3505609" id="Fill-11"></path>
                    </g>
                </g>
            </g>
        </g>
    </g>
</svg>