<svg xmlns="http://www.w3.org/2000/svg" viewBox="0 0 11.51 11"><defs><style>.cls-1{ }</style></defs><title>资源 55</title><g id="图层_2" data-name="图层 2"><g id="图层_1-2" data-name="图层 1"><path class="cls-1" d="M9,11a.47.47,0,0,1-.17,0L5.76,9.88,2.68,11a.5.5,0,0,1-.47-.07.47.47,0,0,1-.2-.41L2.1,7.22l-2-2.6A.49.49,0,0,1,0,4.17a.53.53,0,0,1,.34-.33L3.5,2.92,5.34.22A.51.51,0,0,1,5.76,0h0a.49.49,0,0,1,.41.22L8,2.92l3.14.92a.52.52,0,0,1,.33.33.49.49,0,0,1-.08.45l-2,2.6.09,3.27a.51.51,0,0,1-.21.41A.46.46,0,0,1,9,11ZM1.34,4.59,3,6.75a.46.46,0,0,1,.1.32L3,9.78l2.56-.91a.47.47,0,0,1,.33,0l2.57.91L8.41,7.07a.52.52,0,0,1,.11-.32l1.65-2.16L7.56,3.82a.52.52,0,0,1-.27-.19L5.76,1.38,4.22,3.63A.48.48,0,0,1,4,3.82Z"/></g></g></svg>