<?xml version="1.0" encoding="UTF-8"?>
<svg width="17px" height="15px" viewBox="0 0 17 15" version="1.1" xmlns="http://www.w3.org/2000/svg" xmlns:xlink="http://www.w3.org/1999/xlink">
    <!-- Generator: Sketch 52.2 (67145) - http://www.bohemiancoding.com/sketch -->
    <title>讨论选中</title>
    <desc>Created with Sketch.</desc>
    <g id="Page-1" stroke="none" stroke-width="1" fill="none" fill-rule="evenodd">
        <g id="模版设置" transform="translate(-914.000000, -580.000000)" stroke="#0590FF" stroke-width="0.912">
            <g id="分组-8" transform="translate(270.000000, 181.000000)">
                <g id="分组-10-copy-4" transform="translate(622.000000, 387.000000)">
                    <g id="讨论选中" transform="translate(23.000000, 13.000000)">
                        <path d="M14.2099,11.7379 L9.4419,11.7379 L8.1969,13.0489 C7.9989,13.2569 7.6789,13.2569 7.4809,13.0489 L6.2349,11.7379 L1.4689,11.7379 C0.9089,11.7379 0.4559,11.2599 0.4559,10.6719 L0.4559,1.5219 C0.4559,0.9329 0.9089,0.4559 1.4689,0.4559 L14.2099,0.4559 C14.7689,0.4559 15.2219,0.9329 15.2219,1.5219 L15.2219,10.6719 C15.2219,11.2599 14.7689,11.7379 14.2099,11.7379 Z" id="Stroke-1"></path>
                        <path d="M4.1084,8.1842 L11.5704,8.1842" id="Stroke-3" stroke-linecap="round"></path>
                        <path d="M4.1084,4.5426 L11.5704,4.5426" id="Stroke-5" stroke-linecap="round"></path>
                    </g>
                </g>
            </g>
        </g>
    </g>
</svg>