<?xml version="1.0" encoding="UTF-8"?>
<svg width="20px" height="16px" viewBox="0 0 20 16" version="1.1" xmlns="http://www.w3.org/2000/svg" xmlns:xlink="http://www.w3.org/1999/xlink">
    <!-- Generator: Sketch 52.2 (67145) - http://www.bohemiancoding.com/sketch -->
    <title>弹窗1_本地上传</title>
    <desc>Created with Sketch.</desc>
    <g id="Page-1" stroke="none" stroke-width="1" fill="none" fill-rule="evenodd" stroke-linecap="round">
        <g id="弹窗1" transform="translate(-445.000000, -476.000000)" stroke="#0590FF">
            <g id="分组-4" transform="translate(446.000000, 476.000000)">
                <g id="弹窗1_本地上传" transform="translate(0.000000, 1.000000)">
                    <path d="M14.4371182,11.8364273 C16.4893909,11.8364273 18.1528455,10.1729727 18.1528455,8.1207 C18.1528455,6.19124545 16.6815727,4.60606364 14.7998455,4.42406364 C14.7133,2.96297273 13.5042091,1.80415455 12.0221182,1.80415455 C11.6753,1.80415455 11.3450273,1.87097273 11.0383,1.98615455 C10.2943909,0.976881818 9.09993636,0.317609091 7.74893636,0.317609091 C5.49175455,0.317609091 3.66220909,2.14779091 3.66220909,4.40497273 C3.66220909,4.66079091 3.6883,4.90960909 3.73348182,5.15206364 C3.70993636,5.15142727 3.68575455,5.14824545 3.66220909,5.14824545 C1.81548182,5.14824545 0.318118182,6.64560909 0.318118182,8.49233636 C0.318118182,10.3390636 1.81548182,11.8364273 3.66220909,11.8364273" id="Stroke-1"></path>
                    <path d="M9.60724545,6.20301818 L9.60724545,13.6344727" id="Stroke-3"></path>
                    <polyline id="Stroke-5" points="6.50872727 8.67261818 9.66127273 5.52007273 12.705 8.5638"></polyline>
                </g>
            </g>
        </g>
    </g>
</svg>