<svg xmlns="http://www.w3.org/2000/svg" viewBox="0 0 16.75 16.75"><defs><style>.cls-1{ }</style></defs><title>资源 52</title><g id="图层_2" data-name="图层 2"><g id="图层_1-2" data-name="图层 1"><path class="cls-1" d="M5.41,16.75a1.51,1.51,0,0,1-1.07-.44l-3.9-3.9A1.61,1.61,0,0,1,.5,10.14l9-9A2.53,2.53,0,0,1,11.09.37L15.24,0a1.35,1.35,0,0,1,1.1.39,1.38,1.38,0,0,1,.4,1.11l-.36,4.14a.5.5,0,0,1-.54.46.5.5,0,0,1-.46-.54l.37-4.15a.39.39,0,0,0-.11-.31A.37.37,0,0,0,15.33,1l-4.15.36a1.52,1.52,0,0,0-.93.45l-9,9a.62.62,0,0,0-.06.86L5,15.6a.62.62,0,0,0,.86-.06l6.83-6.83a.5.5,0,0,1,.7,0,.5.5,0,0,1,0,.71L6.61,16.25A1.71,1.71,0,0,1,5.41,16.75Z"/><path class="cls-1" d="M12,7A2.25,2.25,0,0,1,9.77,4.73,2.25,2.25,0,1,1,12,7Zm0-3.49a1.25,1.25,0,0,0-1.25,1.24,1.22,1.22,0,0,0,.37.88,1.24,1.24,0,0,0,1.76,0,1.26,1.26,0,0,0,0-1.76A1.24,1.24,0,0,0,12,3.49Z"/><path class="cls-1" d="M15.64,9.53h0A.5.5,0,0,1,15.14,9a1.67,1.67,0,0,0-1.47-1.78A2.35,2.35,0,0,1,12,6.38a2.43,2.43,0,0,1-.44-1.72.5.5,0,1,1,1,.15,1.44,1.44,0,0,0,.24,1,1.45,1.45,0,0,0,1,.47,2.65,2.65,0,0,1,2.37,2.81A.5.5,0,0,1,15.64,9.53Z"/></g></g></svg>