<svg xmlns="http://www.w3.org/2000/svg" viewBox="0 0 15.58 17"><defs><style>.cls-1{ }</style></defs><title>资源 50</title><g id="图层_2" data-name="图层 2"><g id="图层_1-2" data-name="图层 1"><path class="cls-1" d="M9.68,10.87H5.9a.5.5,0,0,1-.43-.25.5.5,0,0,1,0-.5l1-1.67a2.43,2.43,0,0,1-.85-2.14,2.26,2.26,0,0,1,2-1.93,2.3,2.3,0,0,1,1.74.56,2.24,2.24,0,0,1-.11,3.42l.95,1.76a.5.5,0,0,1,0,.5A.52.52,0,0,1,9.68,10.87Zm-2.91-1H8.82L8.29,9a1.07,1.07,0,0,1,.26-1.38A1.23,1.23,0,0,0,9,6.6a1.25,1.25,0,0,0-.41-.92A1.23,1.23,0,1,0,7,7.58,1.06,1.06,0,0,1,7.29,9Z"/><path class="cls-1" d="M10.87,12.63H4.71a1.38,1.38,0,1,1,0-2.76h6.16a1.38,1.38,0,0,1,0,2.76ZM4.71,10.87a.38.38,0,0,0,0,.76h6.16a.38.38,0,0,0,0-.76Z"/><path class="cls-1" d="M13.71,17H1.87A1.87,1.87,0,0,1,0,15.13V1.87A1.87,1.87,0,0,1,1.87,0H13.71a1.87,1.87,0,0,1,1.87,1.87V15.13A1.87,1.87,0,0,1,13.71,17ZM1.87,1A.87.87,0,0,0,1,1.87V15.13a.87.87,0,0,0,.87.87H13.71a.87.87,0,0,0,.87-.87V1.87A.87.87,0,0,0,13.71,1Z"/></g></g></svg>