<svg xmlns="http://www.w3.org/2000/svg" viewBox="0 0 16.38 17"><defs><style>.cls-1{ }</style></defs><title>资源 53</title><g id="图层_2" data-name="图层 2"><g id="图层_1-2" data-name="图层 1"><path class="cls-1" d="M2.22,4.44A2.22,2.22,0,1,1,4.44,2.22,2.23,2.23,0,0,1,2.22,4.44ZM2.22,1A1.22,1.22,0,1,0,3.44,2.22,1.22,1.22,0,0,0,2.22,1Z"/><path class="cls-1" d="M14.16,4.44H7.25A2.22,2.22,0,1,1,7.25,0h6.91a2.22,2.22,0,0,1,0,4.44ZM7.25,1a1.22,1.22,0,0,0,0,2.44h6.91a1.22,1.22,0,1,0,0-2.44Z"/><path class="cls-1" d="M2.22,10.72A2.22,2.22,0,1,1,4.44,8.5,2.23,2.23,0,0,1,2.22,10.72Zm0-3.44A1.22,1.22,0,1,0,3.44,8.5,1.22,1.22,0,0,0,2.22,7.28Z"/><path class="cls-1" d="M14.16,10.72H7.25a2.22,2.22,0,1,1,0-4.44h6.91a2.22,2.22,0,0,1,0,4.44ZM7.25,7.28a1.22,1.22,0,1,0,0,2.44h6.91a1.22,1.22,0,1,0,0-2.44Z"/><path class="cls-1" d="M2.22,17a2.22,2.22,0,1,1,2.22-2.22A2.23,2.23,0,0,1,2.22,17Zm0-3.44a1.22,1.22,0,1,0,1.22,1.22A1.22,1.22,0,0,0,2.22,13.56Z"/><path class="cls-1" d="M14.16,17H7.25a2.22,2.22,0,1,1,0-4.44h6.91a2.22,2.22,0,0,1,0,4.44ZM7.25,13.56a1.22,1.22,0,1,0,0,2.44h6.91a1.22,1.22,0,1,0,0-2.44Z"/></g></g></svg>