<svg xmlns="http://www.w3.org/2000/svg" viewBox="0 0 15.72 16.06"><defs><style>.cls-1{ }</style></defs><title>资源 38</title><g id="图层_2" data-name="图层 2"><g id="图层_1-2" data-name="图层 1"><path class="cls-1" d="M9.39,7.23A.5.5,0,0,1,9,7.09l-2-2a.5.5,0,0,1,.71-.71l2,2a.5.5,0,0,1-.35.85Z"/><path class="cls-1" d="M6,10.61a.51.51,0,0,1-.36-.15.51.51,0,0,1,0-.71l4.59-4.59L8.92,3.84,4.34,8.42a.5.5,0,0,1-.71,0,.48.48,0,0,1,0-.7L8.57,2.78a.5.5,0,0,1,.71,0l2,2a.47.47,0,0,1,.15.35.49.49,0,0,1-.15.36L6.37,10.46A.49.49,0,0,1,6,10.61Z"/><path class="cls-1" d="M12,10.62H4a.5.5,0,0,1-.5-.5v-2a.5.5,0,0,1,.5-.5.5.5,0,0,1,.5.5V9.62H12a.5.5,0,0,1,.5.5A.5.5,0,0,1,12,10.62Z"/><path class="cls-1" d="M12.5,13.51h0l-9,0a.5.5,0,0,1,0-1h0l9,0a.5.5,0,0,1,0,1Z"/><path class="cls-1" d="M13.84,16.06h-12A1.83,1.83,0,0,1,0,14.27V1.79A1.83,1.83,0,0,1,1.88,0h12a1.83,1.83,0,0,1,1.88,1.79V14.27A1.83,1.83,0,0,1,13.84,16.06ZM1.88,1A.84.84,0,0,0,1,1.79V14.27a.84.84,0,0,0,.88.79h12a.83.83,0,0,0,.88-.79V1.79A.83.83,0,0,0,13.84,1Z"/></g></g></svg>