<svg xmlns="http://www.w3.org/2000/svg" viewBox="0 0 14.72 16.06"><defs><style>.cls-1{ }</style></defs><title>资源 35</title><g id="图层_2" data-name="图层 2"><g id="图层_1-2" data-name="图层 1"><path class="cls-1" d="M7.36,7.7a.5.5,0,0,1-.5-.5V.5a.5.5,0,0,1,.5-.5.5.5,0,0,1,.5.5V7.2A.5.5,0,0,1,7.36,7.7Z"/><path class="cls-1" d="M7.36,7.7h0A.5.5,0,0,1,7,7.56L4.64,5.19a.51.51,0,0,1,0-.71.5.5,0,0,1,.71,0l2,2,2-2a.5.5,0,0,1,.71,0,.51.51,0,0,1,0,.71L7.72,7.56A.52.52,0,0,1,7.36,7.7Z"/><path class="cls-1" d="M11.16,12.83H3.57a.5.5,0,0,1-.5-.5.5.5,0,0,1,.5-.5h7.59a.5.5,0,0,1,.5.5A.5.5,0,0,1,11.16,12.83Z"/><path class="cls-1" d="M7.93,10.34H3.57a.5.5,0,0,1-.5-.5.5.5,0,0,1,.5-.5H7.93a.5.5,0,0,1,.5.5A.5.5,0,0,1,7.93,10.34Z"/><path class="cls-1" d="M12.93,16.06H1.79A1.79,1.79,0,0,1,0,14.27V6.5A1.79,1.79,0,0,1,1.79,4.71H3.12a.5.5,0,0,1,.5.5.51.51,0,0,1-.5.5H1.79A.79.79,0,0,0,1,6.5v7.77a.79.79,0,0,0,.79.79H12.93a.79.79,0,0,0,.79-.79V6.5a.79.79,0,0,0-.79-.79H11.62a.5.5,0,0,1-.5-.5.5.5,0,0,1,.5-.5h1.31A1.79,1.79,0,0,1,14.72,6.5v7.77A1.79,1.79,0,0,1,12.93,16.06Z"/></g></g></svg>