<svg xmlns="http://www.w3.org/2000/svg" viewBox="0 0 14.74 15.86"><defs><style>.cls-1{ }</style></defs><title>资源 31</title><g id="图层_2" data-name="图层 2"><g id="图层_1-2" data-name="图层 1"><path class="cls-1" d="M13,15.86H1.79A1.79,1.79,0,0,1,0,14.07V5A1.79,1.79,0,0,1,.89,3.46L6.48.24a1.77,1.77,0,0,1,1.78,0l5.59,3.22A1.79,1.79,0,0,1,14.74,5v9.06A1.79,1.79,0,0,1,13,15.86ZM7.37,1A.76.76,0,0,0,7,1.1L1.39,4.33A.79.79,0,0,0,1,5v9.06a.79.79,0,0,0,.79.79H13a.78.78,0,0,0,.78-.79V5a.79.79,0,0,0-.39-.68L7.76,1.1A.76.76,0,0,0,7.37,1Z"/><path class="cls-1" d="M4.34,13A.51.51,0,0,1,4,12.82a.5.5,0,0,1,0-.7l6.07-6.07a.5.5,0,0,1,.71,0,.5.5,0,0,1,0,.7L4.69,12.82A.5.5,0,0,1,4.34,13Z"/><path class="cls-1" d="M7.69,13H4.34a.5.5,0,0,1-.5-.5V9.12a.5.5,0,0,1,.5-.5.5.5,0,0,1,.5.5V12H7.69a.5.5,0,1,1,0,1Z"/></g></g></svg>