<svg xmlns="http://www.w3.org/2000/svg" viewBox="0 0 15.02 16.06"><defs><style>.cls-1{fill:#575962;}</style></defs><title>资源 43</title><g id="图层_2" data-name="图层 2"><g id="图层_1-2" data-name="图层 1"><path class="cls-1" d="M14.52,13.25H9.38a.5.5,0,0,1-.5-.5.5.5,0,0,1,.5-.5h5.14a.5.5,0,0,1,.5.5A.5.5,0,0,1,14.52,13.25Z"/><path class="cls-1" d="M12.33,15.35H9.38a.5.5,0,0,1-.5-.5.5.5,0,0,1,.5-.5h2.95a.5.5,0,0,1,.5.5A.5.5,0,0,1,12.33,15.35Z"/><path class="cls-1" d="M6.31,16.06a8.59,8.59,0,0,1-2.1-.24c-.41-.11-1.14-.37-1.3-1A.9.9,0,0,1,3,14.2c-.18-.21-.37-.42-.58-.64a11.5,11.5,0,0,1-1.19-1.45A6.06,6.06,0,0,1,0,8.64,4.55,4.55,0,0,1,.5,6.76a4.48,4.48,0,0,1,2-1.91C2.35,4.42,2.2,4,2.05,3.52s-.26-.79-.41-1.14l-.07-.11a1.09,1.09,0,0,1-.24-.66C1.37.7,2.63.38,3.58.22A17,17,0,0,1,9,.22c.85.13,2.27.35,2.35,1.34a1.79,1.79,0,0,1-.22.84c0,.08-.07.16-.09.22a15.88,15.88,0,0,1-.81,2.05,5.56,5.56,0,0,1,1.55,1.17,4.32,4.32,0,0,1,1,2.52,4.52,4.52,0,0,1-.38,2.08.49.49,0,0,1-.65.26.51.51,0,0,1-.27-.65,3.68,3.68,0,0,0,.3-1.63A3.32,3.32,0,0,0,11,6.51,5.27,5.27,0,0,0,9.36,5.34a.51.51,0,0,1-.25-.29.5.5,0,0,1,0-.38,19.14,19.14,0,0,0,1-2.36c0-.09.08-.2.12-.31a2.45,2.45,0,0,0,.15-.38c0-.05-.32-.23-1.51-.41a15.7,15.7,0,0,0-5.12,0,2.77,2.77,0,0,0-1.39.45s0,0,.06.06L2.55,2A11.72,11.72,0,0,1,3,3.21a9.16,9.16,0,0,0,.65,1.61.51.51,0,0,1-.23.71,3.91,3.91,0,0,0-2,1.68A3.54,3.54,0,0,0,1,8.66a5.19,5.19,0,0,0,1,2.9,10.69,10.69,0,0,0,1.1,1.32c.31.34.61.66.87,1a.49.49,0,0,1,0,.65l-.09.1s.22.12.59.21a8.24,8.24,0,0,0,1.94.21h0a.5.5,0,0,1,0,1Z"/></g></g></svg>