<svg xmlns="http://www.w3.org/2000/svg" viewBox="0 0 14.74 16.06"><defs><style>.cls-1{fill:#575962;}</style></defs><title>资源 30</title><g id="图层_2" data-name="图层 2"><g id="图层_1-2" data-name="图层 1"><path class="cls-1" d="M6.71,16.06H1.79A1.79,1.79,0,0,1,0,14.27V3.76a1.83,1.83,0,0,1,.25-.91l1.16-2A1.8,1.8,0,0,1,3,0h8.84a1.8,1.8,0,0,1,1.54.88l1.16,2a1.73,1.73,0,0,1,.25.91V8a.5.5,0,0,1-1,0V3.76a.8.8,0,0,0-.11-.4l-1.16-2A.79.79,0,0,0,11.79,1H3a.81.81,0,0,0-.68.39l-1.16,2a.8.8,0,0,0-.11.4V14.27a.79.79,0,0,0,.79.79H6.71a.5.5,0,0,1,.5.5A.5.5,0,0,1,6.71,16.06Z"/><path class="cls-1" d="M14.24,4.09H.5a.5.5,0,0,1,0-1H14.24a.5.5,0,0,1,0,1Z"/><path class="cls-1" d="M10.28,14.86a3.09,3.09,0,1,1,2.23-.95h0A3.08,3.08,0,0,1,10.28,14.86Zm0-5.18a2.09,2.09,0,1,0,1.51,3.54,2.09,2.09,0,0,0-.07-3A2.05,2.05,0,0,0,10.28,9.68Zm1.87,3.88h0Z"/><path class="cls-1" d="M14.24,16.06a.49.49,0,0,1-.34-.14l-2.09-2a.49.49,0,0,1,0-.7.5.5,0,0,1,.71,0l2.09,2a.49.49,0,0,1,0,.7A.48.48,0,0,1,14.24,16.06Z"/><path class="cls-1" d="M9.16,6.43H5.58a.5.5,0,0,1,0-1H9.16a.5.5,0,0,1,0,1Z"/></g></g></svg>