<svg xmlns="http://www.w3.org/2000/svg" viewBox="0 0 15.72 16.06"><defs><style>.cls-1{fill:#575962;}</style></defs><title>资源 34</title><g id="图层_2" data-name="图层 2"><g id="图层_1-2" data-name="图层 1"><path class="cls-1" d="M11.38,13a1.43,1.43,0,0,1-1-.42L7.75,9.92l-.1.09a1,1,0,0,1-.89.29L4.24,9.94a1,1,0,0,1-.87-.85L3,6.53a1,1,0,0,1,.29-.86l.45-.46a.53.53,0,0,1,.71,0L5.55,6.3l.76-.71L5.22,4.45a.49.49,0,0,1,0-.7l.45-.46A1.07,1.07,0,0,1,6.56,3l2.51.36a1,1,0,0,1,.88.85l.35,2.55a1,1,0,0,1-.29.87l-.09.1,2.63,2.63a1.42,1.42,0,0,1,.42,1,1.38,1.38,0,0,1-.42,1l-.16.16A1.42,1.42,0,0,1,11.38,13ZM7.75,8.71a.49.49,0,0,1,.35.15l3,3a.43.43,0,0,0,.6,0l.16-.16h0a.43.43,0,0,0,.13-.3.42.42,0,0,0-.13-.3l-3-3a.52.52,0,0,1-.14-.36.5.5,0,0,1,.14-.35l.46-.45L9,4.38,6.4,4l-.11.11L7,4.85a1,1,0,0,1,.3.71A1.09,1.09,0,0,1,7,6.3L6.29,7A1,1,0,0,1,4.84,7l-.73-.73L4,6.37l.35,2.56,2.55.38.49-.46A.52.52,0,0,1,7.75,8.71Z"/><path class="cls-1" d="M13.84,16.06h-12A1.83,1.83,0,0,1,0,14.27V1.79A1.83,1.83,0,0,1,1.88,0h12a1.83,1.83,0,0,1,1.88,1.79V14.27A1.83,1.83,0,0,1,13.84,16.06ZM1.88,1A.84.84,0,0,0,1,1.79V14.27a.84.84,0,0,0,.88.79h12a.83.83,0,0,0,.88-.79V1.79A.83.83,0,0,0,13.84,1Z"/></g></g></svg>