<svg xmlns="http://www.w3.org/2000/svg" viewBox="0 0 14.83 16.06"><defs><style>.cls-1{fill:#575962;}</style></defs><title>资源 32</title><g id="图层_2" data-name="图层 2"><g id="图层_1-2" data-name="图层 1"><path class="cls-1" d="M7.42,16.06a1.07,1.07,0,0,1-.77-.33,4.55,4.55,0,0,0-4-1.35A1.69,1.69,0,0,1,.87,13.26L.06,10.9A1.13,1.13,0,0,1,.14,10a1.07,1.07,0,0,1,.72-.53,10,10,0,0,1,3.4-.18,7.25,7.25,0,0,1,3.16,1.28A7,7,0,0,1,10.55,9.3,9.65,9.65,0,0,1,14,9.47a1.09,1.09,0,0,1,.8,1.43L14,13.26a1.67,1.67,0,0,1-1.74,1.12,4.6,4.6,0,0,0-4,1.35,1,1,0,0,1-.76.33ZM3.28,13.35A5.38,5.38,0,0,1,7.38,15a5.82,5.82,0,0,1,4.93-1.66.65.65,0,0,0,.7-.45l.82-2.35,0-.62-.1.49a8.88,8.88,0,0,0-3.07-.16,6.17,6.17,0,0,0-3,1.3.5.5,0,0,1-.61,0,6.18,6.18,0,0,0-3-1.3,8.46,8.46,0,0,0-3,.16L1,10.58l.81,2.35a.67.67,0,0,0,.71.45Q2.91,13.35,3.28,13.35Z"/><path class="cls-1" d="M11.21,1H3.62a.5.5,0,0,1-.5-.5.5.5,0,0,1,.5-.5h7.59a.5.5,0,0,1,.5.5A.5.5,0,0,1,11.21,1Z"/><path class="cls-1" d="M11.21,6.91H3.62a.5.5,0,0,1,0-1h7.59a.5.5,0,0,1,0,1Z"/><path class="cls-1" d="M8,4H3.62a.5.5,0,0,1-.5-.5.5.5,0,0,1,.5-.5H8a.51.51,0,0,1,.5.5A.5.5,0,0,1,8,4Z"/></g></g></svg>