<svg xmlns="http://www.w3.org/2000/svg" viewBox="0 0 14.74 16.06"><defs><style>.cls-1{fill:#575962;}</style></defs><title>资源 37</title><g id="图层_2" data-name="图层 2"><g id="图层_1-2" data-name="图层 1"><path class="cls-1" d="M13,16.06H1.79A1.79,1.79,0,0,1,0,14.27V3.76a1.8,1.8,0,0,1,.25-.91l1.16-2A1.8,1.8,0,0,1,3,0h8.84a1.8,1.8,0,0,1,1.54.88l1.16,2a1.73,1.73,0,0,1,.25.91V14.27A1.79,1.79,0,0,1,13,16.06ZM3,1a.81.81,0,0,0-.68.39l-1.16,2a.8.8,0,0,0-.11.4V14.27a.79.79,0,0,0,.79.79H13a.79.79,0,0,0,.79-.79V3.76a.8.8,0,0,0-.11-.4l-1.16-2A.79.79,0,0,0,11.79,1Z"/><path class="cls-1" d="M14.24,4.09H.5a.5.5,0,0,1,0-1H14.24a.5.5,0,0,1,0,1Z"/><path class="cls-1" d="M4.34,13A.5.5,0,0,1,4,12.85a.51.51,0,0,1,0-.71l6.07-6.07a.5.5,0,1,1,.71.71L4.69,12.85A.49.49,0,0,1,4.34,13Z"/><path class="cls-1" d="M7.69,13H4.34a.5.5,0,0,1-.5-.5V9.14a.5.5,0,0,1,.5-.5.51.51,0,0,1,.5.5V12H7.69a.51.51,0,0,1,.5.5A.5.5,0,0,1,7.69,13Z"/></g></g></svg>