<svg xmlns="http://www.w3.org/2000/svg" viewBox="0 0 15.9 16.06"><defs><style>.cls-1{fill:#575962;}</style></defs><title>资源 41</title><g id="图层_2" data-name="图层 2"><g id="图层_1-2" data-name="图层 1"><path class="cls-1" d="M7,9.49a4.75,4.75,0,1,1,4.74-4.75A4.75,4.75,0,0,1,7,9.49ZM7,1a3.75,3.75,0,1,0,3.74,3.74A3.75,3.75,0,0,0,7,1Z"/><path class="cls-1" d="M.5,16.06a.5.5,0,0,1-.5-.5,7,7,0,0,1,11.91-4.94.5.5,0,0,1-.71.71A6,6,0,0,0,1,15.56.5.5,0,0,1,.5,16.06Z"/><path class="cls-1" d="M15.4,14.71H10.5a.51.51,0,0,1-.5-.5.5.5,0,0,1,.5-.5h4.9a.5.5,0,0,1,.5.5A.5.5,0,0,1,15.4,14.71Z"/><path class="cls-1" d="M14.05,16.06a.51.51,0,0,1-.36-.15.5.5,0,0,1,0-.7l1-1-1-1a.5.5,0,0,1,.71-.71l1.35,1.35a.51.51,0,0,1,.15.36.47.47,0,0,1-.15.35L14.4,15.91A.49.49,0,0,1,14.05,16.06Z"/></g></g></svg>