<svg xmlns="http://www.w3.org/2000/svg" viewBox="0 0 14.91 16.06"><defs><style>.cls-1{fill:#575962;}</style></defs><title>资源 39</title><g id="图层_2" data-name="图层 2"><g id="图层_1-2" data-name="图层 1"><path class="cls-1" d="M4.28,10.14a.5.5,0,0,1-.5-.5V.5a.5.5,0,0,1,.5-.5.5.5,0,0,1,.5.5V9.64A.5.5,0,0,1,4.28,10.14Z"/><path class="cls-1" d="M.5,16.06a.5.5,0,0,1-.5-.5V.5A.5.5,0,0,1,.5,0H14.41a.5.5,0,0,1,0,1H1V15.56A.5.5,0,0,1,.5,16.06Z"/><path class="cls-1" d="M14.41,10.14H.5a.5.5,0,0,1,0-1H14.41a.5.5,0,0,1,0,1Z"/><path class="cls-1" d="M14.41,10.14A.49.49,0,0,1,14,9.86L11.72,5.29a.49.49,0,0,1,0-.44L14,.28a.5.5,0,1,1,.9.44L12.73,5.07l2.13,4.35a.5.5,0,0,1-.23.67A.59.59,0,0,1,14.41,10.14Z"/></g></g></svg>