<?xml version="1.0" encoding="UTF-8"?>
<svg width="270px" height="216px" viewBox="0 0 270 216" version="1.1" xmlns="http://www.w3.org/2000/svg" xmlns:xlink="http://www.w3.org/1999/xlink">
    <!-- Generator: Sketch 52.2 (67145) - http://www.bohemiancoding.com/sketch -->
    <title>项目列表_新馆建设</title>
    <desc>Created with Sketch.</desc>
    <g id="Page-1" stroke="none" stroke-width="1" fill="none" fill-rule="evenodd">
        <g id="项目列表" transform="translate(-240.000000, -458.000000)">
            <g id="矩形" transform="translate(240.000000, 458.000000)">
                <g id="项目列表_新馆建设">
                    <rect id="矩形" fill="#FFFFFF" x="0" y="0" width="270" height="216"></rect>
                    <g id="资源-6" transform="translate(41.000000, 47.000000)">
                        <rect id="矩形" fill="#E9F3FF" transform="translate(137.950000, 116.770000) rotate(-180.000000) translate(-137.950000, -116.770000) " x="107.16" y="112.13" width="61.58" height="9.28" rx="4.64"></rect>
                        <path d="M5.2,83.61 L31.72,83.61 C34.0942113,83.8569246 35.8979471,85.8579828 35.8979471,88.245 C35.8979471,90.6320172 34.0942113,92.6330754 31.72,92.88 L26.72,92.88 C24.3237734,93.1027237 22.4912772,95.1134449 22.4912772,97.52 C22.4912772,99.9265551 24.3237734,101.937276 26.72,102.16 L101.5,102.16 C103.896227,101.937276 105.728723,99.9265551 105.728723,97.52 C105.728723,95.1134449 103.896227,93.1027237 101.5,92.88 L53.93,92.88 C51.5557887,92.6330754 49.7520529,90.6320172 49.7520529,88.245 C49.7520529,85.8579828 51.5557887,83.8569246 53.93,83.61 L70.05,83.61 C72.4462266,83.3872763 74.2787228,81.3765551 74.2787228,78.97 C74.2787228,76.5634449 72.4462266,74.5527237 70.05,74.33 L5.2,74.33 C2.80377345,74.5527237 0.971277173,76.5634449 0.971277173,78.97 C0.971277173,81.3765551 2.80377345,83.3872763 5.2,83.61 Z" id="路径" fill="#E9F3FF"></path>
                        <path d="M109.4,70.05 L177.68,70.05 C180.076227,69.8272763 181.908723,67.8165551 181.908723,65.41 C181.908723,63.0034449 180.076227,60.9927237 177.68,60.77 L163.89,60.77 C161.515789,60.5230754 159.712053,58.5220172 159.712053,56.135 C159.712053,53.7479828 161.515789,51.7469246 163.89,51.5 L184.09,51.5 C186.486227,51.2772763 188.318723,49.2665551 188.318723,46.86 C188.318723,44.4534449 186.486227,42.4427237 184.09,42.22 L115.81,42.22 C113.413773,42.4427237 111.581277,44.4534449 111.581277,46.86 C111.581277,49.2665551 113.413773,51.2772763 115.81,51.5 L145.75,51.5 C148.124211,51.7469246 149.927947,53.7479828 149.927947,56.135 C149.927947,58.5220172 148.124211,60.5230754 145.75,60.77 L109.4,60.77 C107.003773,60.9927237 105.171277,63.0034449 105.171277,65.41 C105.171277,67.8165551 107.003773,69.8272763 109.4,70.05 Z" id="路径" fill="#E9F3FF"></path>
                        <path d="M28.31,9.28 L49.08,9.28 C51.513318,9.40933468 53.3877102,11.4756289 53.28,13.91 C53.3878376,16.3461979 51.5148652,18.4153865 49.08,18.55 L34.72,18.55 C32.2851348,18.6846135 30.4121624,20.7538021 30.52,23.19 C30.4121624,25.6261979 32.2851348,27.6953865 34.72,27.83 L103,27.83 C105.434865,27.6953865 107.307838,25.6261979 107.2,23.19 C107.307838,20.7538021 105.434865,18.6846135 103,18.55 L68.52,18.55 C66.0851348,18.4153865 64.2121624,16.3461979 64.32,13.91 C64.2122898,11.4756289 66.086682,9.40933468 68.52,9.28 L96.59,9.28 C99.0208903,9.14013113 100.887983,7.07251528 100.78,4.64 C100.887983,2.20748472 99.0208903,0.139868869 96.59,0 L28.31,0 C25.8751348,0.13461354 24.0021624,2.20380208 24.11,4.64 C24.0021624,7.07619792 25.8751348,9.14538646 28.31,9.28 Z" id="路径" fill="#E9F3FF"></path>
                        <rect id="矩形" stroke="#4585F5" stroke-width="4" fill="#79C3FD" transform="translate(140.322159, 38.029276) rotate(-30.000000) translate(-140.322159, -38.029276) " x="132.462159" y="22.8342762" width="15.72" height="30.39" rx="5"></rect>
                        <path d="M102.6,112.67 L155.81,112.67 C156.184271,112.688403 156.537421,112.496017 156.724921,112.171578 C156.912422,111.847139 156.902802,111.4451 156.7,111.13 L99.38,11.84 C99.1955031,11.3623415 98.6799973,11.1012247 98.1857516,11.2350829 C97.691506,11.3689411 97.3782301,11.8545196 97.46,12.36 L97.46,107.53 C97.46,110.368744 99.7612564,112.67 102.6,112.67 Z" id="路径" stroke="#4585F5" stroke-width="4" fill="#37A3FE"></path>
                        <path d="M98.06,54.77 L107.62,54.77" id="路径" stroke="#4585F5" stroke-width="4" fill="#79C3FD"></path>
                        <path d="M98.06,72.19 L107.62,72.19" id="路径" stroke="#4585F5" stroke-width="4" stroke-linecap="square"></path>
                        <path d="M98.06,89.61 L112.02,89.61" id="路径" stroke="#4585F5" stroke-width="4" stroke-linecap="square"></path>
                        <path d="M69.69,94.47 L58.42,111.47 C58.2342383,111.746429 57.9230475,111.912237 57.59,111.912237 C57.2569525,111.912237 56.9457617,111.746429 56.76,111.47 L45.65,94.72 C45.5441777,94.5561902 45.4885624,94.3650127 45.49,94.17 L45.49,16.33 C45.49,13.5685763 47.7285763,11.33 50.49,11.33 L64.69,11.33 C67.4514237,11.33 69.69,13.5685763 69.69,16.33 L69.69,94.47 Z" id="路径" stroke="#4585F5" stroke-width="4" fill="#37A3FE"></path>
                        <circle id="椭圆形" stroke="#4585F5" stroke-width="4" fill="#EDF1F4" cx="77.22" cy="71.22" r="25.61"></circle>
                        <path d="M65.65,94.45 L88.78,94.45 L88.78,102.16 C88.78,108.356635 83.7566349,113.38 77.56,113.38 L76.87,113.38 C70.6733651,113.38 65.65,108.356635 65.65,102.16 L65.65,94.45 Z" id="路径" stroke="#4585F5" stroke-width="4" fill="#79C3FD"></path>
                        <path d="M65.65,99.61 L88.78,99.61" id="路径" stroke="#4585F5" stroke-width="4"></path>
                        <rect id="矩形" stroke="#4585F5" stroke-width="4" fill="#37A3FE" transform="translate(77.215000, 85.695000) rotate(-180.000000) translate(-77.215000, -85.695000) " x="76.25" y="76.94" width="1.93" height="17.51" rx="0.94"></rect>
                        <circle id="椭圆形" stroke="#4585F5" stroke-width="4" fill="#37A3FE" cx="77.22" cy="76.94" r="5.72"></circle>
                        <rect id="矩形" stroke="#4585F5" fill="#4585F5" x="76.29" y="62.83" width="1.31" height="2.97" rx="0.64"></rect>
                        <rect id="矩形" stroke="#4585F5" fill="#4585F5" transform="translate(69.026556, 67.432580) rotate(-40.000000) translate(-69.026556, -67.432580) " x="68.3715557" y="65.9475799" width="1.31" height="2.97" rx="0.64"></rect>
                        <rect id="矩形" stroke="#4585F5" fill="#4585F5" transform="translate(64.962542, 74.925473) rotate(-80.000000) translate(-64.962542, -74.925473) " x="64.307542" y="73.4404734" width="1.31" height="2.97" rx="0.64"></rect>
                        <rect id="矩形" stroke="#4585F5" fill="#4585F5" transform="translate(89.475190, 74.268736) rotate(80.000000) translate(-89.475190, -74.268736) " x="88.8201902" y="72.7837363" width="1.31" height="2.97" rx="0.64"></rect>
                        <rect id="矩形" stroke="#4585F5" fill="#4585F5" transform="translate(85.030473, 67.016697) rotate(40.000000) translate(-85.030473, -67.016697) " x="84.3754727" y="65.5316973" width="1.31" height="2.97" rx="0.64"></rect>
                    </g>
                </g>
            </g>
        </g>
    </g>
</svg>