<?xml version="1.0" encoding="UTF-8"?>
<svg width="270px" height="216px" viewBox="0 0 270 216" version="1.1" xmlns="http://www.w3.org/2000/svg" xmlns:xlink="http://www.w3.org/1999/xlink">
    <!-- Generator: Sketch 52.2 (67145) - http://www.bohemiancoding.com/sketch -->
    <title>项目列表_抗联展览</title>
    <desc>Created with Sketch.</desc>
    <g id="Page-1" stroke="none" stroke-width="1" fill="none" fill-rule="evenodd">
        <g id="项目列表" transform="translate(-240.000000, -158.000000)">
            <g id="矩形" transform="translate(240.000000, 158.000000)">
                <g id="分组-12">
                    <g id="项目列表_抗联展览">
                        <rect id="矩形" fill="#FFFFFF" x="0" y="0" width="270" height="216"></rect>
                        <g id="资源-3" transform="translate(60.000000, 51.000000)">
                            <rect id="矩形" fill="#E9F3FF" x="84.56" y="0" width="10.33" height="9.28" rx="4.64"></rect>
                            <rect id="矩形" fill="#E9F3FF" x="101.13" y="0" width="29.81" height="9.28" rx="4.64"></rect>
                            <path d="M145.09,64.63 L124.32,64.63 C121.923773,64.4072763 120.091277,62.3965551 120.091277,59.99 C120.091277,57.5834449 121.923773,55.5727237 124.32,55.35 L138.68,55.35 C141.054211,55.1030754 142.857947,53.1020172 142.857947,50.715 C142.857947,48.3279828 141.054211,46.3269246 138.68,46.08 L70.41,46.08 C68.0357887,46.3269246 66.2320529,48.3279828 66.2320529,50.715 C66.2320529,53.1020172 68.0357887,55.1030754 70.41,55.35 L104.88,55.35 C107.276227,55.5727237 109.108723,57.5834449 109.108723,59.99 C109.108723,62.3965551 107.276227,64.4072763 104.88,64.63 L76.81,64.63 C74.4357887,64.8769246 72.6320529,66.8779828 72.6320529,69.265 C72.6320529,71.6520172 74.4357887,73.6530754 76.81,73.9 L145.09,73.9 C147.464211,73.6530754 149.267947,71.6520172 149.267947,69.265 C149.267947,66.8779828 147.464211,64.8769246 145.09,64.63 Z" id="路径" fill="#E9F3FF"></path>
                            <path d="M4.2,90.58 L25,90.58 C27.3962266,90.8027237 29.2287228,92.8134449 29.2287228,95.22 C29.2287228,97.6265551 27.3962266,99.6372763 25,99.86 L10.61,99.86 C8.23578868,100.106925 6.4320529,102.107983 6.4320529,104.495 C6.4320529,106.882017 8.23578868,108.883075 10.61,109.13 L78.88,109.13 C81.2542113,108.883075 83.0579471,106.882017 83.0579471,104.495 C83.0579471,102.107983 81.2542113,100.106925 78.88,99.86 L44.41,99.86 C42.0137734,99.6372763 40.1812772,97.6265551 40.1812772,95.22 C40.1812772,92.8134449 42.0137734,90.8027237 44.41,90.58 L72.48,90.58 C74.8542113,90.3330754 76.6579471,88.3320172 76.6579471,85.945 C76.6579471,83.5579828 74.8542113,81.5569246 72.48,81.31 L4.2,81.31 C1.82578868,81.5569246 0.0220529017,83.5579828 0.0220529017,85.945 C0.0220529017,88.3320172 1.82578868,90.3330754 4.2,90.58 Z" id="路径" fill="#E9F3FF"></path>
                            <path d="M73.21,5.81 C71.3322319,5.81 69.81,7.33223185 69.81,9.21 L69.81,50.72 C71.992617,51.8321554 74.2678639,52.752292 76.61,53.47 L76.61,9.21 C76.61,7.33223185 75.0877681,5.81 73.21,5.81 Z" id="路径" fill="#4585F5"></path>
                            <rect id="矩形" fill="#4585F5" transform="translate(64.837011, 83.491059) rotate(115.900000) translate(-64.837011, -83.491059) " x="33.5620113" y="80.0860589" width="62.55" height="6.81" rx="2.83"></rect>
                            <rect id="矩形" fill="#4585F5" transform="translate(81.583529, 83.492191) rotate(64.100000) translate(-81.583529, -83.492191) " x="50.3085291" y="80.0871911" width="62.55" height="6.81" rx="2.83"></rect>
                            <rect id="矩形" stroke="#4585F5" stroke-width="4" fill="#79C3FD" x="28.74" y="21.73" width="88.95" height="59.6"></rect>
                            <rect id="矩形" stroke="#4585F5" stroke-width="4" fill="#37A3FE" x="21.9" y="75.54" width="102.63" height="11.57" rx="4.81"></rect>
                            <rect id="矩形" stroke="#4585F5" stroke-width="4" fill="#37A3FE" x="21.9" y="15.94" width="102.63" height="11.57" rx="4.81"></rect>
                            <circle id="椭圆形" stroke="#4585F5" stroke-width="4" fill="#EDF1F4" cx="32.22" cy="69.82" r="28.44"></circle>
                            <polyline id="路径" stroke="#4585F5" stroke-width="4" points="45.15 69.82 32.22 69.82 32.22 46.16"></polyline>
                            <path d="M67.82,66.08 C68.67,64.28 76.59,56.77 88.57,51.8 C88.57,51.8 88.62,51.8 88.64,51.8 C93.27,49.52 106.16,38.19 107.51,35.48 C107.537,35.4034962 107.616985,35.3593088 107.696121,35.3771783 C107.775257,35.3950477 107.828494,35.4693173 107.82,35.55 L107.82,65.44 C107.82,65.9922847 107.372285,66.44 106.82,66.44 L74.88,66.44 C74.69,66.45 67.74,66.26 67.82,66.08 Z" id="路径" stroke="#4585F5" stroke-width="4" fill="#EDF1F4"></path>
                        </g>
                    </g>
                </g>
            </g>
        </g>
    </g>
</svg>