<?xml version="1.0" encoding="UTF-8"?>
<svg width="270px" height="216px" viewBox="0 0 270 216" version="1.1" xmlns="http://www.w3.org/2000/svg" xmlns:xlink="http://www.w3.org/1999/xlink">
    <!-- Generator: Sketch 52.2 (67145) - http://www.bohemiancoding.com/sketch -->
    <title>项目列表_智慧博物馆</title>
    <desc>Created with Sketch.</desc>
    <g id="Page-1" stroke="none" stroke-width="1" fill="none" fill-rule="evenodd">
        <g id="项目列表" transform="translate(-840.000000, -158.000000)">
            <g id="矩形" transform="translate(840.000000, 158.000000)">
                <g id="项目列表_智慧博物馆">
                    <rect id="矩形" fill="#FFFFFF" x="0" y="0" width="270" height="216"></rect>
                    <g id="资源-4" transform="translate(53.000000, 53.000000)">
                        <rect id="矩形" fill="#E9F3FF" x="0" y="42.65" width="10.33" height="9.28" rx="4.64"></rect>
                        <rect id="矩形" fill="#E9F3FF" x="16.57" y="42.65" width="29.81" height="9.28" rx="4.64"></rect>
                        <path d="M160.53,98.8 L139.75,98.8 C137.375789,98.5530754 135.572053,96.5520172 135.572053,94.165 C135.572053,91.7779828 137.375789,89.7769246 139.75,89.53 L154.12,89.53 C156.516227,89.3072763 158.348723,87.2965551 158.348723,84.89 C158.348723,82.4834449 156.516227,80.4727237 154.12,80.25 L85.84,80.25 C83.4437734,80.4727237 81.6112772,82.4834449 81.6112772,84.89 C81.6112772,87.2965551 83.4437734,89.3072763 85.84,89.53 L120.31,89.53 C122.684211,89.7769246 124.487947,91.7779828 124.487947,94.165 C124.487947,96.5520172 122.684211,98.5530754 120.31,98.8 L92.25,98.8 C89.8537734,99.0227237 88.0212772,101.033445 88.0212772,103.44 C88.0212772,105.846555 89.8537734,107.857276 92.25,108.08 L160.53,108.08 C162.926227,107.857276 164.758723,105.846555 164.758723,103.44 C164.758723,101.033445 162.926227,99.0227237 160.53,98.8 Z" id="路径" fill="#E9F3FF"></path>
                        <path d="M55.58,27.83 L123.86,27.83 C126.294865,27.6953865 128.167838,25.6261979 128.06,23.19 C128.167838,20.7538021 126.294865,18.6846135 123.86,18.55 L110.07,18.55 C107.63911,18.4101311 105.772017,16.3425153 105.88,13.91 C105.772156,11.4793209 107.640656,9.41460597 110.07,9.28 L130.27,9.28 C132.70342,9.14541803 134.5735,7.07449474 134.46,4.64 C134.5735,2.20550526 132.70342,0.134581971 130.27,-1.77635684e-15 L62,-1.77635684e-15 C59.5651348,0.13461354 57.6921624,2.20380208 57.8,4.64 C57.6921624,7.07619792 59.5651348,9.14538646 62,9.28 L91.93,9.28 C94.363318,9.40933468 96.2377102,11.4756289 96.13,13.91 C96.2378376,16.3461979 94.3648652,18.4153865 91.93,18.55 L55.58,18.55 C53.1451348,18.6846135 51.2721624,20.7538021 51.38,23.19 C51.2721624,25.6261979 53.1451348,27.6953865 55.58,27.83 Z" id="路径" fill="#E9F3FF"></path>
                        <rect id="矩形" fill="#4585F5" transform="translate(78.504229, 45.268606) rotate(45.000000) translate(-78.504229, -45.268606) " x="36.2092294" y="40.6136063" width="84.59" height="9.31"></rect>
                        <path d="M127,20.37 L118.83,21.24 C118.617081,21.2622678 118.405481,21.187275 118.254103,21.0358971 C118.102725,20.8845193 118.027732,20.6729193 118.05,20.46 L118.91,12.28 C118.927907,12.1195054 119.002349,11.9706225 119.12,11.86 L125.54,5.44 C119.026268,2.39880773 111.31056,3.70269237 106.157865,8.71540475 C101.00517,13.7281171 99.4893215,21.4049966 102.35,28 L58.48,71.86 C51.8763204,68.9959276 44.189372,70.517392 39.1746134,75.6810818 C34.1598549,80.8447715 32.8639448,88.5729438 35.92,95.09 L42.34,88.67 C42.4566353,88.5566877 42.608194,88.4861953 42.77,88.47 L50.94,87.61 C51.1518986,87.5843759 51.3639103,87.6568299 51.5158073,87.8067796 C51.6677044,87.9567293 51.7428879,88.1677884 51.72,88.38 L50.86,96.56 C50.8416423,96.7182732 50.7713027,96.8659863 50.66,96.98 L44.23,103.41 C50.747643,106.460568 58.4726084,105.163171 63.6360877,100.150775 C68.7995671,95.1383783 70.3257294,87.4553347 67.47,80.85 L111.34,37 C117.942637,39.8574252 125.624403,38.3329486 130.63551,33.17073 C135.646618,28.0085114 136.942268,20.284857 133.89,13.77 L127.47,20.19 C127.343258,20.3097234 127.174292,20.3744337 127,20.37 Z" id="路径" stroke="#4585F5" stroke-width="4" fill="#37A3FE"></path>
                        <path d="M107.999229,80.4739987 L130.269229,80.4739987 C136.244283,80.4850203 141.083728,85.328938 141.089229,91.3039987 C141.089229,97.2907654 136.235996,102.143999 130.249229,102.143999 L107.999229,102.143999 L107.999229,80.4739987 Z" id="路径" stroke="#4585F5" stroke-width="4" fill="#37A3FE" transform="translate(124.544229, 91.308999) rotate(45.000000) translate(-124.544229, -91.308999) "></path>
                        <rect id="矩形" stroke="#4585F5" stroke-width="4" fill="#37A3FE" transform="translate(110.194229, 76.947963) rotate(45.000000) translate(-110.194229, -76.947963) " x="106.454229" y="59.607963" width="7.48" height="34.68" rx="1"></rect>
                        <polygon id="路径" stroke="#4585F5" stroke-width="4" fill="#37A3FE" points="52.89 27.23 43.16 21.38 39.26 9.71 42.95 6.02 54.62 9.93 60.46 19.65"></polygon>
                        <path d="M82.82,76.51 C75.42,73.05 73.63,68.85 76.45,61.28 C75.0813606,59.5713369 73.5286631,58.0186394 71.82,56.65 C64.25,59.47 60.05,57.65 56.59,50.28 C55.4380494,50.1477289 54.2795192,50.0809548 53.12,50.08 C51.967131,50.080957 50.8152568,50.1477323 49.67,50.28 C46.2,57.68 42,59.47 34.43,56.65 C32.7260763,58.0239228 31.1739228,59.5760763 29.8,61.28 C32.63,68.85 30.8,73.05 23.44,76.51 C23.3027735,77.6615183 23.2359825,78.8203409 23.24,79.98 C23.2359733,81.13301 23.3027657,82.285179 23.44,83.43 C30.83,86.9 32.63,91.1 29.8,98.66 C31.1719917,100.371999 32.7280014,101.928008 34.44,103.3 C42,100.47 46.2,102.3 49.67,109.66 C50.814821,109.797234 51.96699,109.864027 53.12,109.86 C54.2796591,109.864017 55.4384817,109.797227 56.59,109.66 C60.05,102.27 64.25,100.47 71.82,103.3 C73.5239237,101.926077 75.0760772,100.373924 76.45,98.67 C73.63,91.1 75.45,86.9 82.82,83.43 C82.9448277,82.2909916 83.0049243,81.1458176 83,80 C83.0064448,78.8341896 82.946347,77.6689615 82.82,76.51 Z M53.13,88.27 C49.7693309,88.2740271 46.7378978,86.251104 45.4518391,83.1462423 C44.1657804,80.0413805 44.8789384,76.4674177 47.2581603,74.0939358 C49.6373822,71.7204539 53.2130572,71.0159307 56.3148035,72.3094853 C59.4165497,73.6030399 61.4321446,76.6393504 61.42,80 C61.4089731,84.5706281 57.7006414,88.2700133 53.13,88.27 Z" id="形状" stroke="#4585F5" stroke-width="4" fill="#EDF1F4" fill-rule="nonzero"></path>
                    </g>
                </g>
            </g>
        </g>
    </g>
</svg>