<?xml version="1.0" encoding="UTF-8"?>
<svg width="189px" height="128px" viewBox="0 0 189 128" version="1.1" xmlns="http://www.w3.org/2000/svg" xmlns:xlink="http://www.w3.org/1999/xlink">
    <!-- Generator: Sketch 52.6 (67491) - http://www.bohemiancoding.com/sketch -->
    <title>公众号运营</title>
    <desc>Created with Sketch.</desc>
    <g id="公众号运营" stroke="none" stroke-width="1" fill="none" fill-rule="evenodd">
        <g id="资源-7" transform="translate(4.000000, 3.000000)">
            <rect id="矩形" fill="#E9F3FF" transform="translate(150.525000, 4.640000) rotate(180.000000) translate(-150.525000, -4.640000) " x="145.36" y="1.86517468e-14" width="10.33" height="9.28" rx="4.64"></rect>
            <rect id="矩形" fill="#E9F3FF" transform="translate(124.215000, 4.640000) rotate(180.000000) translate(-124.215000, -4.640000) " x="109.31" y="1.50990331e-14" width="29.81" height="9.28" rx="4.64"></rect>
            <path d="M5.2,33.3 L31.72,33.3 C34.1548652,33.1653865 36.0278376,31.0961979 35.92,28.66 C36.0391662,26.2161729 34.1630282,24.1345531 31.72,24 L26.72,24 C24.2851348,23.8653865 22.4121624,21.7961979 22.52,19.36 C22.4122898,16.9256289 24.286682,14.8593347 26.72,14.73 L101.5,14.73 C103.929344,14.864606 105.797844,16.9293209 105.69,19.36 C105.797983,21.7925153 103.93089,23.8601311 101.5,24 L53.93,24 C51.4951348,24.1346135 49.6221624,26.2038021 49.73,28.64 C49.6221624,31.0761979 51.4951348,33.1453865 53.93,33.28 L70.05,33.28 C72.483318,33.4093347 74.3577102,35.4756289 74.25,37.91 C74.3633743,40.3481886 72.4873959,42.4206981 70.05,42.55 L5.2,42.55 C2.77074855,42.4206451 0.897935746,40.360551 1,37.93 C0.892289798,35.4956289 2.766682,33.4293347 5.2,33.3 Z" id="路径" fill="#E9F3FF"></path>
            <path d="M101.78,51.36 L170.06,51.36 C172.434211,51.6069246 174.237947,53.6079828 174.237947,55.995 C174.237947,58.3820172 172.434211,60.3830754 170.06,60.63 L156.27,60.63 C153.873773,60.8527237 152.041277,62.8634449 152.041277,65.27 C152.041277,67.6765551 153.873773,69.6872763 156.27,69.91 L176.46,69.91 C178.834211,70.1569246 180.637947,72.1579828 180.637947,74.545 C180.637947,76.9320172 178.834211,78.9330754 176.46,79.18 L108.19,79.18 C105.815789,78.9330754 104.012053,76.9320172 104.012053,74.545 C104.012053,72.1579828 105.815789,70.1569246 108.19,69.91 L138.13,69.91 C140.526227,69.6872763 142.358723,67.6765551 142.358723,65.27 C142.358723,62.8634449 140.526227,60.8527237 138.13,60.63 L101.78,60.63 C99.4057887,60.3830754 97.6020529,58.3820172 97.6020529,55.995 C97.6020529,53.6079828 99.4057887,51.6069246 101.78,51.36 Z" id="路径" fill="#E9F3FF"></path>
            <path d="M38.19,112.13 L59,112.13 C61.3742113,111.883075 63.1779471,109.882017 63.1779471,107.495 C63.1779471,105.107983 61.3742113,103.106925 59,102.86 L44.6,102.86 C42.2037734,102.637276 40.3712772,100.626555 40.3712772,98.22 C40.3712772,95.8134449 42.2037734,93.8027237 44.6,93.58 L112.88,93.58 C115.276227,93.8027237 117.108723,95.8134449 117.108723,98.22 C117.108723,100.626555 115.276227,102.637276 112.88,102.86 L78.4,102.86 C76.0257887,103.106925 74.2220529,105.107983 74.2220529,107.495 C74.2220529,109.882017 76.0257887,111.883075 78.4,112.13 L106.47,112.13 C108.866227,112.352724 110.698723,114.363445 110.698723,116.77 C110.698723,119.176555 108.866227,121.187276 106.47,121.41 L38.19,121.41 C35.7937734,121.187276 33.9612772,119.176555 33.9612772,116.77 C33.9612772,114.363445 35.7937734,112.352724 38.19,112.13 Z" id="路径" fill="#E9F3FF"></path>
            <path d="M20.24,54 C20.24,64 24.78,73.12 32.24,80.05 C33.53,81.24 27.6,89.6 29.05,90.66 C30.5,91.72 39.61,85.66 41.36,86.6 C49.4934323,90.9953496 58.6051353,93.265536 67.85,93.2 C94.15,93.2 115.46,75.64 115.46,53.99 C115.46,32.34 94.15,14.78 67.85,14.78 C41.55,14.78 20.24,32.33 20.24,54 Z" id="路径" stroke="#4585F5" stroke-width="4" fill="#37A3FE"></path>
            <path d="M155.09,79.91 C154.978611,88.1911942 151.432855,96.0541516 145.3,101.62 C144.25,102.62 149.07,109.57 147.89,110.45 C146.71,111.33 139.3,106.27 137.89,107.07 C131.309582,110.724911 123.897141,112.619355 116.37,112.57 C95,112.57 77.61,98 77.61,79.91 C77.61,61.82 95,47.25 116.35,47.25 C137.7,47.25 155.09,61.88 155.09,79.91 Z" id="路径" stroke="#4585F5" stroke-width="4" fill="#79C3FD"></path>
            <circle id="椭圆形" stroke="#4585F5" stroke-width="4" fill="#37A3FE" cx="112.29" cy="75.86" r="5.48"></circle>
            <circle id="椭圆形" stroke="#4585F5" stroke-width="4" fill="#37A3FE" cx="133.64" cy="75.86" r="5.48"></circle>
            <polyline id="路径" stroke="#4585F5" stroke-width="4" points="24.15 67.85 45.66 42.29 63.16 67.85 83.22 42.29"></polyline>
            <circle id="椭圆形" stroke="#4585F5" stroke-width="4" fill="#EDF1F4" cx="24.15" cy="67.85" r="7.69"></circle>
            <circle id="椭圆形" stroke="#4585F5" stroke-width="4" fill="#EDF1F4" cx="45.66" cy="42.29" r="7.69"></circle>
            <circle id="椭圆形" stroke="#4585F5" stroke-width="4" fill="#EDF1F4" cx="63.16" cy="67.85" r="7.69"></circle>
            <circle id="椭圆形" stroke="#4585F5" stroke-width="4" fill="#EDF1F4" cx="83.22" cy="42.29" r="7.69"></circle>
        </g>
    </g>
</svg>