<?xml version="1.0" encoding="UTF-8"?>
<svg width="270px" height="216px" viewBox="0 0 270 216" version="1.1" xmlns="http://www.w3.org/2000/svg" xmlns:xlink="http://www.w3.org/1999/xlink">
    <!-- Generator: Sketch 52.2 (67145) - http://www.bohemiancoding.com/sketch -->
    <title>项目列表_进校园</title>
    <desc>Created with Sketch.</desc>
    <g id="Page-1" stroke="none" stroke-width="1" fill="none" fill-rule="evenodd">
        <g id="项目列表" transform="translate(-540.000000, -158.000000)">
            <g id="矩形" transform="translate(540.000000, 158.000000)">
                <g id="分组-13">
                    <g id="项目列表_进校园">
                        <rect id="矩形" fill="#FFFFFF" x="0" y="0" width="270" height="216"></rect>
                        <g id="资源-5" transform="translate(43.000000, 49.000000)">
                            <rect id="矩形" fill="#E9F3FF" transform="translate(60.565000, 4.640000) rotate(180.000000) translate(-60.565000, -4.640000) " x="55.4" y="7.10542736e-15" width="10.33" height="9.28" rx="4.64"></rect>
                            <rect id="矩形" fill="#E9F3FF" transform="translate(34.255000, 4.640000) rotate(180.000000) translate(-34.255000, -4.640000) " x="19.35" y="4.4408921e-15" width="29.81" height="9.28" rx="4.64"></rect>
                            <path d="M146.45,19.83 L119.93,19.83 C117.495135,19.9646135 115.622162,22.0338021 115.73,24.47 C115.622162,26.9061979 117.495135,28.9753865 119.93,29.11 L124.93,29.11 C127.364865,29.2446135 129.237838,31.3138021 129.13,33.75 C129.237838,36.1861979 127.364865,38.2553865 124.93,38.39 L50.15,38.39 C47.7350199,38.2292735 45.8913178,36.1678813 46,33.75 C45.8921624,31.3138021 47.7651348,29.2446135 50.2,29.11 L97.72,29.11 C100.154865,28.9753865 102.027838,26.9061979 101.92,24.47 C102.027838,22.0338021 100.154865,19.9646135 97.72,19.83 L81.59,19.83 C79.1581247,19.7007052 77.2866191,17.6326692 77.4,15.2 C77.2865002,12.7655053 79.1565797,10.694582 81.59,10.56 L146.45,10.56 C148.884865,10.6946135 150.757838,12.7638021 150.65,15.2 C150.75771,17.6343711 148.883318,19.7006653 146.45,19.83 Z" id="路径" fill="#E9F3FF"></path>
                            <path d="M104.63,61.92 L172.9,61.92 C175.274211,62.1669246 177.077947,64.1679828 177.077947,66.555 C177.077947,68.9420172 175.274211,70.9430754 172.9,71.19 L159.12,71.19 C156.723773,71.4127237 154.891277,73.4234449 154.891277,75.83 C154.891277,78.2365551 156.723773,80.2472763 159.12,80.47 L179.31,80.47 C181.684211,80.7169246 183.487947,82.7179828 183.487947,85.105 C183.487947,87.4920172 181.684211,89.4930754 179.31,89.74 L111,89.74 C108.625789,89.4930754 106.822053,87.4920172 106.822053,85.105 C106.822053,82.7179828 108.625789,80.7169246 111,80.47 L141,80.47 C143.396227,80.2472763 145.228723,78.2365551 145.228723,75.83 C145.228723,73.4234449 143.396227,71.4127237 141,71.19 L104.63,71.19 C102.255789,70.9430754 100.452053,68.9420172 100.452053,66.555 C100.452053,64.1679828 102.255789,62.1669246 104.63,61.92 Z" id="路径" fill="#E9F3FF"></path>
                            <path d="M5.2,109.19 L26,109.19 C28.3962266,108.967276 30.2287228,106.956555 30.2287228,104.55 C30.2287228,102.143445 28.3962266,100.132724 26,99.91 L11.61,99.91 C9.23578868,99.6630754 7.4320529,97.6620172 7.4320529,95.275 C7.4320529,92.8879828 9.23578868,90.8869246 11.61,90.64 L79.88,90.64 C82.2542113,90.8869246 84.0579471,92.8879828 84.0579471,95.275 C84.0579471,97.6620172 82.2542113,99.6630754 79.88,99.91 L45.41,99.91 C43.0137734,100.132724 41.1812772,102.143445 41.1812772,104.55 C41.1812772,106.956555 43.0137734,108.967276 45.41,109.19 L73.48,109.19 C75.8762266,109.412724 77.7087228,111.423445 77.7087228,113.83 C77.7087228,116.236555 75.8762266,118.247276 73.48,118.47 L5.2,118.47 C2.80377345,118.247276 0.971277173,116.236555 0.971277173,113.83 C0.971277173,111.423445 2.80377345,109.412724 5.2,109.19 Z" id="路径" fill="#E9F3FF"></path>
                            <rect id="矩形" stroke="#4585F5" stroke-width="4" fill="#37A3FE" x="37.34" y="44.2" width="109.21" height="67.02" rx="5"></rect>
                            <path d="M140.15,104.2 L43.75,104.2 L43.75,40.06 C75.27,29.46 90,30.64 92,40.06 C94,30.64 108.64,29.46 140.16,40.06 L140.16,104.2 L140.15,104.2 Z" id="路径" stroke="#4585F5" stroke-width="4" fill="#EDF1F4"></path>
                            <path d="M91.99,40.06 L91.99,103.65" id="路径" stroke="#4585F5" stroke-width="4" fill="#79C3FD"></path>
                            <path d="M92,102.25 C87.35,93.25 69.55,93.41 43.76,102.25" id="路径" stroke="#4585F5" stroke-width="4" fill="#79C3FD"></path>
                            <path d="M140.15,102.25 C114.36,93.41 96.63,93.25 91.99,102.25" id="路径" stroke="#4585F5" stroke-width="4" fill="#79C3FD"></path>
                            <polygon id="路径" stroke="#4585F5" stroke-width="4" fill="#37A3FE" points="100.49 59.12 80.57 39.2 108.49 8.39 131.3 31.21"></polygon>
                            <polygon id="路径" stroke="#4585F5" stroke-width="4" fill="#79C3FD" points="92.7 72 60.9 79.21 67.69 46.99 83.64 42.3 97.81 56.47"></polygon>
                            <ellipse id="椭圆形" stroke="#4585F5" stroke-width="4" fill="#EDF1F4" transform="translate(79.348639, 60.345007) rotate(-45.000000) translate(-79.348639, -60.345007) " cx="79.3486395" cy="60.3450069" rx="5.04" ry="5.6"></ellipse>
                            <path d="M61.8,78.29 L77.77,62.32" id="路径" stroke="#4585F5" stroke-width="4" fill="#EDF1F4"></path>
                        </g>
                    </g>
                </g>
            </g>
        </g>
    </g>
</svg>