<?xml version="1.0" encoding="UTF-8"?>
<svg width="270px" height="216px" viewBox="0 0 270 216" version="1.1" xmlns="http://www.w3.org/2000/svg" xmlns:xlink="http://www.w3.org/1999/xlink">
    <!-- Generator: Sketch 52.2 (67145) - http://www.bohemiancoding.com/sketch -->
    <title>学术研究</title>
    <desc>Created with Sketch.</desc>
    <g id="Page-1" stroke="none" stroke-width="1" fill="none" fill-rule="evenodd">
        <g id="项目列表" transform="translate(-540.000000, -458.000000)">
            <g id="矩形" transform="translate(540.000000, 458.000000)">
                <g id="学术研究">
                    <rect id="矩形" fill="#FFFFFF" x="0" y="0" width="270" height="216"></rect>
                    <g id="资源-1" transform="translate(50.000000, 44.000000)">
                        <rect id="矩形" fill="#E9F3FF" x="24.97" y="0" width="10.33" height="9.28" rx="4.64"></rect>
                        <rect id="矩形" fill="#E9F3FF" x="41.54" y="0" width="29.81" height="9.28" rx="4.64"></rect>
                        <path d="M155.89,39.79 L129.37,39.79 C126.935135,39.6553865 125.062162,37.5861979 125.17,35.15 C125.062162,32.7138021 126.935135,30.6446135 129.37,30.51 L134.37,30.51 C136.804865,30.3753865 138.677838,28.3061979 138.57,25.87 C138.67771,23.4356289 136.803318,21.3693347 134.37,21.24 L59.59,21.24 C57.156682,21.3693347 55.2822898,23.4356289 55.39,25.87 C55.2821624,28.3061979 57.1551348,30.3753865 59.59,30.51 L107.16,30.51 C109.594865,30.6446135 111.467838,32.7138021 111.36,35.15 C111.467838,37.5861979 109.594865,39.6553865 107.16,39.79 L91,39.79 C88.6257887,40.0369246 86.8220529,42.0379828 86.8220529,44.425 C86.8220529,46.8120172 88.6257887,48.8130754 91,49.06 L155.86,49.06 C158.234211,48.8130754 160.037947,46.8120172 160.037947,44.425 C160.037947,42.0379828 158.234211,40.0369246 155.86,39.79 L155.89,39.79 Z" id="路径" fill="#E9F3FF"></path>
                        <path d="M78.88,57.85 L10.61,57.85 C8.23578868,58.0969246 6.4320529,60.0979828 6.4320529,62.485 C6.4320529,64.8720172 8.23578868,66.8730754 10.61,67.12 L24.39,67.12 C26.7862266,67.3427237 28.6187228,69.3534449 28.6187228,71.76 C28.6187228,74.1665551 26.7862266,76.1772763 24.39,76.4 L4.2,76.4 C1.82578868,76.6469246 0.0220529017,78.6479828 0.0220529017,81.035 C0.0220529017,83.4220172 1.82578868,85.4230754 4.2,85.67 L72.48,85.67 C74.8542113,85.4230754 76.6579471,83.4220172 76.6579471,81.035 C76.6579471,78.6479828 74.8542113,76.6469246 72.48,76.4 L42.53,76.4 C40.1337734,76.1772763 38.3012772,74.1665551 38.3012772,71.76 C38.3012772,69.3534449 40.1337734,67.3427237 42.53,67.12 L78.88,67.12 C81.2542113,66.8730754 83.0579471,64.8720172 83.0579471,62.485 C83.0579471,60.0979828 81.2542113,58.0969246 78.88,57.85 Z" id="路径" fill="#E9F3FF"></path>
                        <path d="M165.3,118.14 L144.52,118.14 C142.123773,117.917276 140.291277,115.906555 140.291277,113.5 C140.291277,111.093445 142.123773,109.082724 144.52,108.86 L158.89,108.86 C161.264211,108.613075 163.067947,106.612017 163.067947,104.225 C163.067947,101.837983 161.264211,99.8369246 158.89,99.59 L90.61,99.59 C88.2357887,99.8369246 86.4320529,101.837983 86.4320529,104.225 C86.4320529,106.612017 88.2357887,108.613075 90.61,108.86 L125.08,108.86 C127.476227,109.082724 129.308723,111.093445 129.308723,113.5 C129.308723,115.906555 127.476227,117.917276 125.08,118.14 L97,118.14 C94.6257887,118.386925 92.8220529,120.387983 92.8220529,122.775 C92.8220529,125.162017 94.6257887,127.163075 97,127.41 L165.3,127.41 C167.674211,127.163075 169.477947,125.162017 169.477947,122.775 C169.477947,120.387983 167.674211,118.386925 165.3,118.14 Z" id="路径" fill="#E9F3FF"></path>
                        <rect id="矩形" stroke="#4585F5" stroke-width="4" fill="#79C3FD" x="128.27" y="57.84" width="6.24" height="23.62" rx="3.12"></rect>
                        <circle id="椭圆形" stroke="#4585F5" stroke-width="4" fill="#79C3FD" cx="131.39" cy="81.46" r="6.27"></circle>
                        <path d="M48.72,66.29 L48.72,95.65 C48.7251275,96.1013136 48.7551733,96.5519997 48.81,97 C48.7547875,97.3036749 48.7246857,97.6113822 48.72,97.92 C48.72,99.99 50.01,101.92 52.3,103.71 C53.3727549,104.689596 54.630825,105.444438 56,105.93 C62.45,109.09 72.62,111.12 84.06,111.12 C95.5,111.12 105.67,109.12 112.12,105.93 C113.476348,105.440973 114.723326,104.690068 115.79,103.72 C118.08,101.97 119.37,100 119.37,97.93 C119.365314,97.6213822 119.335213,97.3136749 119.28,97.01 C119.335195,96.5586863 119.365242,96.1046515 119.37,95.65 L119.37,66.29" id="路径" stroke="#4585F5" stroke-width="4" fill="#37A3FE"></path>
                        <path d="M84.31,19.52 L139.79,47.26 C140.000694,47.3717992 140.131736,47.5914878 140.13,47.83 L140.13,55.15 C140.112153,56.3851536 139.378432,57.497443 138.25,58 L84,81.8 L29.8,58 C28.6584619,57.4914522 27.922229,56.35969 27.92,55.11 L27.92,47.83 C27.9182636,47.5914878 28.0493059,47.3717992 28.26,47.26 L83.74,19.52 C83.919512,19.4307202 84.130488,19.4307202 84.31,19.52 Z" id="路径" stroke="#4585F5" stroke-width="4" fill="#79C3FD"></path>
                        <polyline id="路径" stroke="#4585F5" stroke-width="4" fill="#79C3FD" points="140.14 47.44 84.03 71.71 84.03 71.71 27.92 47.44"></polyline>
                        <path d="M84.02,71.71 L84.02,81.8" id="路径" stroke="#4585F5" stroke-width="4" fill="#6CBAFE"></path>
                        <path d="M84.02,71.71 L84.02,81.8" id="路径" stroke="#4585F5" stroke-width="4" fill="#6CBAFE"></path>
                        <path d="M34.4109457,86.7458488 L37.5009457,86.7458488 C40.2623695,86.7458488 42.5009457,88.984425 42.5009457,91.7458488 L42.5009457,126.225849 L29.4109457,126.225849 L29.4109457,91.7458488 C29.4109457,88.984425 31.649522,86.7458488 34.4109457,86.7458488 Z" id="路径" stroke="#4585F5" stroke-width="4" fill="#EDF1F4" transform="translate(35.955946, 106.485849) rotate(132.600000) translate(-35.955946, -106.485849) "></path>
                        <path d="M13.5,95.71 L13.15,87.32 C13.1477676,86.2642693 13.9664994,85.3886203 15.02,85.32 L23.41,84.97" id="路径" fill="#4585F5"></path>
                        <path d="M25.68,97.05 L43.51,113.44" id="路径" stroke="#4585F5" stroke-width="4" fill="#EDF1F4"></path>
                        <path d="M57.5240617,60.257623 L60.6140617,60.257623 C63.3754855,60.257623 65.6140617,62.4961992 65.6140617,65.257623 L65.6140617,117.527623 C65.6140617,119.736762 63.8232007,121.527623 61.6140617,121.527623 L56.5240617,121.527623 C54.3149227,121.527623 52.5240617,119.736762 52.5240617,117.527623 L52.5240617,65.257623 C52.5240617,62.4961992 54.762638,60.257623 57.5240617,60.257623 Z" id="路径" stroke="#4585F5" stroke-width="4" fill="#EDF1F4" transform="translate(59.069062, 90.892623) rotate(162.500000) translate(-59.069062, -90.892623) "></path>
                        <path d="M62.21,79.11 L57.37,80.64" id="路径" stroke="#4585F5" stroke-width="4" fill="#EDF1F4"></path>
                        <path d="M65.3,88.92 L60.46,90.45" id="路径" stroke="#4585F5" stroke-width="4" fill="#EDF1F4"></path>
                        <path d="M68.4,98.73 L61.32,100.96" id="路径" stroke="#4585F5" stroke-width="4" fill="#EDF1F4"></path>
                    </g>
                </g>
            </g>
        </g>
    </g>
</svg>