<?xml version="1.0" encoding="UTF-8"?>
<svg width="260px" height="150px" viewBox="0 0 260 150" version="1.1" xmlns="http://www.w3.org/2000/svg" xmlns:xlink="http://www.w3.org/1999/xlink">
    <!-- Generator: Sketch 52.2 (67145) - http://www.bohemiancoding.com/sketch -->
    <title>审批_藏品出库</title>
    <desc>Created with Sketch.</desc>
    <defs>
        <rect id="path-1" x="0" y="0" width="260" height="150" rx="4"></rect>
        <polygon id="path-3" points="0 0.336908036 54.2181676 0.336908036 54.2181676 18.4689348 0 18.4689348"></polygon>
    </defs>
    <g id="Page-1" stroke="none" stroke-width="1" fill="none" fill-rule="evenodd">
        <g id="审批" transform="translate(-270.000000, -546.000000)">
            <g id="审批_藏品出库" transform="translate(270.000000, 546.000000)">
                <g id="矩形">
                    <mask id="mask-2" fill="white">
                        <use xlink:href="#path-1"></use>
                    </mask>
                    <rect stroke="#EBEDF2" x="0.5" y="0.5" width="259" height="149" rx="4"></rect>
                    <text id="藏品出库" font-family="PingFang-SC-Bold, PingFang SC" font-size="14" font-weight="bold" line-spacing="14" letter-spacing="0.3000001" fill="#575962">
                        <tspan x="101" y="131">藏品出库</tspan>
                    </text>
                </g>
                <g id="分组" transform="translate(75.000000, 30.000000)">
                    <path d="M106.833713,6.67096161 L106.217989,6.67096161 C104.714919,6.67096161 103.496531,5.31720268 103.496531,3.64667589 C103.496531,1.97680089 104.714919,0.622390179 106.217989,0.622390179 L106.833713,0.622390179 C108.336784,0.622390179 109.555172,1.97680089 109.555172,3.64667589 C109.555172,5.31720268 108.336784,6.67096161 106.833713,6.67096161" id="Fill-1" fill="#E9F3FF"></path>
                    <path d="M97.4833994,6.67096161 L84.0785171,6.67096161 C82.4050288,6.67096161 81.0482171,5.31720268 81.0482171,3.64667589 C81.0482171,1.97680089 82.4050288,0.622390179 84.0785171,0.622390179 L97.4833994,0.622390179 C99.1568876,0.622390179 100.513046,1.97680089 100.513046,3.64667589 C100.513046,5.31720268 99.1568876,6.67096161 97.4833994,6.67096161" id="Fill-3" fill="#E9F3FF"></path>
                    <path d="M18.48705,9.71727768 L35.8037029,9.71727768 C37.3929618,9.80526875 38.6159206,11.1531616 38.5460559,12.7415634 C38.6159206,14.3293134 37.3929618,15.6785098 35.8037029,15.7651973 L32.5389971,15.7651973 C30.9490853,15.8531884 29.7261265,17.201733 29.7959912,18.7901348 C29.7261265,20.377233 30.9490853,21.7264295 32.5389971,21.8144205 L81.3659382,21.8144205 C82.9427912,21.709483 84.1461618,20.3661527 84.0749912,18.7901348 C84.1461618,17.201733 82.9232029,15.8531884 81.3326382,15.7651973 L50.3048735,15.7651973 C48.7156147,15.6785098 47.4926559,14.3293134 47.5625206,12.7415634 C47.4926559,11.1531616 48.7156147,9.80526875 50.3048735,9.71727768 L60.8368147,9.71727768 C62.4247676,9.63254554 63.6470735,8.28530446 63.5732912,6.69950982 C63.6470735,5.11306339 62.4260735,3.76256339 60.8368147,3.67457232 L18.48705,3.67457232 C16.8971382,3.76256339 15.6741794,5.11175982 15.74535,6.69950982 C15.6741794,8.28595625 16.8984441,9.63254554 18.48705,9.71727768" id="Fill-5" fill="#E9F3FF"></path>
                    <g transform="translate(0.000000, 42.645036)">
                        <mask id="mask-4" fill="white">
                            <use xlink:href="#path-3"></use>
                        </mask>
                        <g id="Clip-8"></g>
                        <path d="M51.4899618,0.336908036 L6.91301471,0.336908036 C5.24213824,0.510283036 4.02832059,2.00352411 4.20200294,3.67209554 C4.35087353,5.10080982 5.48242059,6.23035446 6.91301471,6.37896161 L15.9111971,6.37896161 C17.5840324,6.53408661 18.8148265,8.01364018 18.6594265,9.68416696 C18.5236147,11.1396045 17.3692147,12.2919616 15.9111971,12.427533 L2.72831471,12.427533 C1.05678529,12.600908 -0.157685294,14.0941491 0.01665,15.7627205 C0.165520588,17.1914348 1.29706765,18.3209795 2.72831471,18.4689348 L47.3307265,18.4689348 C49.0016029,18.2962116 50.2160735,16.8029705 50.0423912,15.1343991 C49.8935206,13.7056848 48.7619735,12.5754884 47.3307265,12.427533 L27.7424912,12.427533 C26.0690029,12.272408 24.8388618,10.7922027 24.9942618,9.12232768 C25.1300735,7.66689018 26.2844735,6.51453304 27.7424912,6.37896161 L51.4899618,6.37896161 C53.1614912,6.20558661 54.3753088,4.71234554 54.2016265,3.04312232 C54.0527559,1.61505982 52.9212088,0.485515179 51.4899618,0.336908036" id="Fill-7" fill="#E9F3FF" mask="url(#mask-4)"></path>
                    </g>
                    <path d="M107.962975,66.3010768 L94.3817982,66.3010768 C92.7089629,66.1459518 91.4781688,64.6657464 91.6335688,62.9958714 C91.7693806,61.5397821 92.9237806,60.387425 94.3817982,60.2525054 L103.777622,60.2525054 C105.448498,60.0784786 106.662969,58.5852375 106.489286,56.9173179 C106.340416,55.4879518 105.208869,54.3590589 103.777622,54.2098 L59.2013276,54.2098 C57.5297982,54.3838268 56.3153276,55.8770679 56.4896629,57.5449875 C56.6385335,58.9743536 57.7700806,60.1032464 59.2013276,60.2525054 L81.70821,60.2525054 C83.3816982,60.4076304 84.6118394,61.8878357 84.4564394,63.5577107 C84.3206276,65.0124964 83.1655747,66.1655054 81.70821,66.3010768 L63.3801512,66.3010768 C61.7066629,66.45555 60.4765218,67.9357554 60.6325747,69.6062821 C60.7677335,71.0617196 61.9221335,72.2140768 63.3801512,72.3489964 L107.962975,72.3489964 C109.636463,72.1938714 110.866604,70.7143179 110.711204,69.0437911 C110.575392,67.5890054 109.420339,66.4359964 107.962975,66.3010768" id="Fill-9" fill="#E9F3FF"></path>
                    <polygon id="Fill-11" fill="#37A3FE" points="25.0630165 25.0425196 51.7434988 9.56456429 78.5989694 25.0418679 51.9178341 40.5198232"></polygon>
                    <polygon id="Stroke-13" stroke="#4585F5" stroke-width="2.6" stroke-linecap="round" stroke-linejoin="round" points="25.0630165 25.0425196 51.7434988 9.56456429 78.5989694 25.0418679 51.9178341 40.5198232"></polygon>
                    <polygon id="Fill-15" fill="#79C3FD" points="51.7934488 40.5198884 51.7059547 71.323933 24.8511371 55.8466295 24.9386312 25.0425848"></polygon>
                    <polygon id="Stroke-17" stroke="#4585F5" stroke-width="2.6" stroke-linecap="round" stroke-linejoin="round" points="51.7934488 40.5198884 51.7059547 71.323933 24.8511371 55.8466295 24.9386312 25.0425848"></polygon>
                    <polygon id="Fill-19" fill="#37A3FE" points="51.7934488 40.5198884 78.4739312 25.041933 78.38709 55.8459777 51.7059547 71.323933"></polygon>
                    <polygon id="Stroke-21" stroke="#4585F5" stroke-width="2.6" stroke-linecap="round" stroke-linejoin="round" points="51.7934488 40.5198884 78.4739312 25.041933 78.38709 55.8459777 51.7059547 71.323933"></polygon>
                    <polygon id="Fill-23" fill="#EDF1F4" points="42.4112718 52.3557955 15.5564541 36.9912509 24.9385659 25.0427152 51.7933835 40.4072598"></polygon>
                    <polygon id="Stroke-25" stroke="#4585F5" stroke-width="2.6" stroke-linecap="round" stroke-linejoin="round" points="42.4112718 52.3557955 15.5564541 36.9912509 24.9385659 25.0427152 51.7933835 40.4072598"></polygon>
                    <polygon id="Fill-27" fill="#79C3FD" points="88.1056624 36.8784268 61.6040859 52.3557304 51.9732035 40.5199536 78.4741271 25.04265"></polygon>
                    <polygon id="Stroke-29" stroke="#4585F5" stroke-width="2.6" stroke-linecap="round" stroke-linejoin="round" points="88.1056624 36.8784268 61.6040859 52.3557304 51.9732035 40.5199536 78.4741271 25.04265"></polygon>
                    <polygon id="Fill-31" fill="#EDF1F4" points="36.3709129 16.8780562 51.9735953 1.30298482 56.5689953 5.89155625 67.5749718 16.8780562 62.9795718 21.4659759 55.3244894 13.8244402 55.3244894 33.5429134 48.8251129 33.5429134 48.8251129 13.621083 40.9669659 21.4659759"></polygon>
                    <polygon id="Stroke-33" stroke="#4585F5" stroke-width="2.6" stroke-linecap="round" stroke-linejoin="round" points="36.3709129 16.8780562 51.9735953 1.30298482 56.5689953 5.89155625 67.5749718 16.8780562 62.9795718 21.4659759 55.3244894 13.8244402 55.3244894 33.5429134 48.8251129 33.5429134 48.8251129 13.621083 40.9669659 21.4659759"></polygon>
                </g>
            </g>
        </g>
    </g>
</svg>