<?xml version="1.0" encoding="UTF-8"?>
<svg width="260px" height="150px" viewBox="0 0 260 150" version="1.1" xmlns="http://www.w3.org/2000/svg" xmlns:xlink="http://www.w3.org/1999/xlink">
    <!-- Generator: Sketch 52.2 (67145) - http://www.bohemiancoding.com/sketch -->
    <title>审批_藏品回库</title>
    <desc>Created with Sketch.</desc>
    <defs>
        <rect id="path-1" x="0" y="0" width="260" height="150" rx="4"></rect>
        <polygon id="path-3" points="0 0.484798214 54.2512717 0.484798214 54.2512717 18.6239946 0 18.6239946"></polygon>
    </defs>
    <g id="Page-1" stroke="none" stroke-width="1" fill="none" fill-rule="evenodd">
        <g id="审批" transform="translate(-560.000000, -546.000000)">
            <g id="审批_藏品回库" transform="translate(560.000000, 546.000000)">
                <g id="矩形">
                    <mask id="mask-2" fill="white">
                        <use xlink:href="#path-1"></use>
                    </mask>
                    <rect stroke="#EBEDF2" x="0.5" y="0.5" width="259" height="149" rx="4"></rect>
                    <text id="藏品回库" font-family="PingFang-SC-Bold, PingFang SC" font-size="14" font-weight="bold" line-spacing="14" letter-spacing="0.3000001" fill="#575962">
                        <tspan x="101" y="131">藏品回库</tspan>
                    </text>
                </g>
                <g id="分组" transform="translate(75.000000, 30.000000)">
                    <path d="M26.9540647,6.6712875 L26.3383412,6.6712875 C24.8346176,6.6712875 23.6162294,5.31687679 23.6162294,3.64635 C23.6162294,1.976475 24.8346176,0.622716071 26.3383412,0.622716071 L26.9540647,0.622716071 C28.4571353,0.622716071 29.6755235,1.976475 29.6755235,3.64635 C29.6755235,5.31687679 28.4571353,6.6712875 26.9540647,6.6712875" id="Fill-1" fill="#E9F3FF"></path>
                    <path d="M17.6034247,6.6712875 L4.19854235,6.6712875 C2.52505412,6.6712875 1.16889529,5.31687679 1.16889529,3.64635 C1.16889529,1.976475 2.52505412,0.622716071 4.19854235,0.622716071 L17.6034247,0.622716071 C19.2769129,0.622716071 20.6330718,1.976475 20.6330718,3.64635 C20.6330718,5.31687679 19.2769129,6.6712875 17.6034247,6.6712875" id="Fill-3" fill="#E9F3FF"></path>
                    <path d="M92.2370171,9.71701696 L74.9210171,9.71701696 C73.3311053,9.80500804 72.1081465,11.1535527 72.1786641,12.7413027 C72.1081465,14.3290527 73.3311053,15.6782491 74.9210171,15.7655884 L78.1857229,15.7655884 C79.7756347,15.8535795 80.9985935,17.2021241 80.9280759,18.7898741 C80.9985935,20.3776241 79.7756347,21.7268205 78.1857229,21.8148116 L29.3587818,21.8148116 C27.7819288,21.7092223 26.5779053,20.365892 26.6490759,18.7898741 C26.5785582,17.2021241 27.8015171,15.8535795 29.3914288,15.7655884 L60.4191935,15.7655884 C62.0091053,15.6782491 63.2320641,14.3290527 63.1615465,12.7419545 C63.2320641,11.1535527 62.0091053,9.80500804 60.4191935,9.71701696 L49.8872524,9.71701696 C48.2992994,9.63293661 47.0769935,8.28504375 47.1514288,6.69924911 C47.0769935,5.11280268 48.2986465,3.76230268 49.8872524,3.67496339 L92.2370171,3.67496339 C93.8269288,3.76295446 95.0498876,5.11149911 94.97937,6.69924911 C95.0498876,8.28634732 93.8256229,9.63293661 92.2370171,9.71701696" id="Fill-5" fill="#E9F3FF"></path>
                    <path d="M59.2344971,42.9816179 L103.810791,42.9816179 C105.482321,43.1556446 106.696138,44.6488857 106.522456,46.3168054 C106.373585,47.7461714 105.242038,48.8750643 103.810791,49.0243232 L94.8132618,49.0243232 C93.1397735,49.1794482 91.9096324,50.6590018 92.0650324,52.3295286 C92.2008441,53.7843143 93.3552441,54.9373232 94.8132618,55.0722429 L107.996144,55.0722429 C109.667674,55.2456179 110.881491,56.7388589 110.707809,58.4074304 C110.558938,59.8361446 109.427391,60.9656893 107.996144,61.1142964 L63.3937324,61.1142964 C61.7222029,60.9409214 60.5083853,59.4476804 60.6820676,57.7791089 C60.8309382,56.3503946 61.9624853,55.22085 63.3937324,55.0722429 L82.9819676,55.0722429 C84.6554559,54.9177696 85.8855971,53.4375643 85.7301971,51.7670375 C85.5943853,50.3116 84.4399853,49.1592429 82.9819676,49.0243232 L59.2344971,49.0243232 C57.5629676,48.8502964 56.34915,47.3570554 56.5228324,45.6884839 C56.6717029,44.2597696 57.80325,43.1308768 59.2344971,42.9816179" id="Fill-7" fill="#E9F3FF"></path>
                    <g transform="translate(0.000000, 53.725393)">
                        <mask id="mask-4" fill="white">
                            <use xlink:href="#path-3"></use>
                        </mask>
                        <g id="Clip-10"></g>
                        <path d="M2.76141882,12.5754232 L16.3425953,12.5754232 C18.0154306,12.4202982 19.2462247,10.9400929 19.0901718,9.27021786 C18.9550129,7.81478036 17.8006129,6.66242321 16.3425953,6.52685179 L6.94677176,6.52685179 C5.27524235,6.35347679 4.06142471,4.86023571 4.23510706,3.19166429 C4.38397765,1.76295 5.51552471,0.633405357 6.94677176,0.484798214 L51.5230659,0.484798214 C53.1945953,0.658173214 54.4084129,2.15141429 54.2347306,3.81998571 C54.08586,5.24935179 52.9543129,6.37824464 51.5230659,6.52685179 L29.0161835,6.52685179 C27.3426953,6.68197679 26.1125541,8.16218214 26.2679541,9.83205714 C26.4031129,11.2874946 27.5581659,12.4398518 29.0161835,12.5754232 L47.3442424,12.5754232 C49.0170776,12.7305482 50.2478718,14.2107536 50.0924718,15.8806286 C49.95666,17.3360661 48.80226,18.4884232 47.3442424,18.6239946 L2.76141882,18.6239946 C1.08793059,18.4688696 -0.142210588,16.9886643 0.0131894118,15.3187893 C0.149001176,13.8633518 1.30340118,12.7109946 2.76141882,12.5754232" id="Fill-9" fill="#E9F3FF" mask="url(#mask-4)"></path>
                    </g>
                    <polygon id="Fill-11" fill="#37A3FE" points="25.0628206 25.0422589 51.7439559 9.56495536 78.5987735 25.0422589 51.9176382 40.5195625"></polygon>
                    <polygon id="Stroke-13" stroke="#4585F5" stroke-width="2.6" stroke-linecap="round" stroke-linejoin="round" points="25.0628206 25.0422589 51.7439559 9.56495536 78.5987735 25.0422589 51.9176382 40.5195625"></polygon>
                    <polygon id="Fill-15" fill="#79C3FD" points="51.7935794 40.5196277 51.7060853 71.3236723 24.8512676 55.8463688 24.9387618 25.0423241"></polygon>
                    <polygon id="Stroke-17" stroke="#4585F5" stroke-width="2.6" stroke-linecap="round" stroke-linejoin="round" points="51.7935794 40.5196277 51.7060853 71.3236723 24.8512676 55.8463688 24.9387618 25.0423241"></polygon>
                    <polygon id="Fill-19" fill="#37A3FE" points="51.7935794 40.5196277 78.4747147 25.0423241 78.3872206 55.845717 51.7060853 71.3236723"></polygon>
                    <polygon id="Stroke-21" stroke="#4585F5" stroke-width="2.6" stroke-linecap="round" stroke-linejoin="round" points="51.7935794 40.5196277 78.4747147 25.0423241 78.3872206 55.845717 51.7060853 71.3236723"></polygon>
                    <polygon id="Fill-23" fill="#EDF1F4" points="42.4113371 52.3561214 15.5565194 36.990925 24.9386312 25.0423893 51.7934488 40.4075857"></polygon>
                    <polygon id="Stroke-25" stroke="#4585F5" stroke-width="2.6" stroke-linecap="round" stroke-linejoin="round" points="42.4113371 52.3561214 15.5565194 36.990925 24.9386312 25.0423893 51.7934488 40.4075857"></polygon>
                    <polygon id="Fill-27" fill="#79C3FD" points="88.1054012 36.8787527 61.6038247 52.3560563 51.9729424 40.5196277 78.4745188 25.0423241"></polygon>
                    <polygon id="Stroke-29" stroke="#4585F5" stroke-width="2.6" stroke-linecap="round" stroke-linejoin="round" points="88.1054012 36.8787527 61.6038247 52.3560563 51.9729424 40.5196277 78.4745188 25.0423241"></polygon>
                    <polygon id="Fill-31" fill="#EDF1F4" points="36.3709782 17.9686893 51.9730076 33.5431089 56.5690606 28.9551893 67.57569 17.9686893 62.9789841 13.3807696 55.3245547 21.0223054 55.3245547 1.30383214 48.8251782 1.30383214 48.8251782 21.2256625 40.9670312 13.3807696"></polygon>
                    <polygon id="Stroke-33" stroke="#4585F5" stroke-width="2.6" stroke-linecap="round" stroke-linejoin="round" points="36.3709782 17.9686893 51.9730076 33.5431089 56.5690606 28.9551893 67.57569 17.9686893 62.9789841 13.3807696 55.3245547 21.0223054 55.3245547 1.30383214 48.8251782 1.30383214 48.8251782 21.2256625 40.9670312 13.3807696"></polygon>
                </g>
            </g>
        </g>
    </g>
</svg>