<?xml version="1.0" encoding="UTF-8"?>
<svg width="260px" height="150px" viewBox="0 0 260 150" version="1.1" xmlns="http://www.w3.org/2000/svg" xmlns:xlink="http://www.w3.org/1999/xlink">
    <!-- Generator: Sketch 52.2 (67145) - http://www.bohemiancoding.com/sketch -->
    <title>审批_计划审核</title>
    <desc>Created with Sketch.</desc>
    <defs>
        <rect id="path-1" x="0" y="0" width="260" height="150" rx="4"></rect>
    </defs>
    <g id="Page-1" stroke="none" stroke-width="1" fill="none" fill-rule="evenodd">
        <g id="审批" transform="translate(-270.000000, -292.000000)">
            <g id="审批_计划审核" transform="translate(270.000000, 292.000000)">
                <g id="矩形">
                    <mask id="mask-2" fill="white">
                        <use xlink:href="#path-1"></use>
                    </mask>
                    <rect stroke="#EBEDF2" x="0.5" y="0.5" width="259" height="149" rx="4"></rect>
                    <text id="计划审核" font-family="PingFang-SC-Bold, PingFang SC" font-size="14" font-weight="bold" line-spacing="14" letter-spacing="0.3000001" fill="#575962">
                        <tspan x="101" y="131">计划审核</tspan>
                    </text>
                </g>
                <g id="分组" transform="translate(71.000000, 30.000000)">
                    <path d="M35.2571639,6.38607568 L34.6439563,6.38607568 C33.146377,6.38607568 31.9329672,5.03883243 31.9329672,3.37634595 C31.9329672,1.71450811 33.146377,0.366616216 34.6439563,0.366616216 L35.2571639,0.366616216 C36.7540929,0.366616216 37.9675027,1.71450811 37.9675027,3.37634595 C37.9675027,5.03883243 36.7540929,6.38607568 35.2571639,6.38607568" id="Fill-1" fill="#E9F3FF"></path>
                    <path d="M25.9447311,6.38607568 L12.5946219,6.38607568 C10.9286219,6.38607568 9.5773541,5.03883243 9.5773541,3.37634595 C9.5773541,1.71450811 10.9286219,0.366616216 12.5946219,0.366616216 L25.9447311,0.366616216 C27.6113814,0.366616216 28.9619989,1.71450811 28.9619989,3.37634595 C28.9619989,5.03883243 27.6113814,6.38607568 25.9447311,6.38607568" id="Fill-3" fill="#E9F3FF"></path>
                    <path d="M100.273367,11.5581405 L83.0281208,11.5581405 C81.4447055,11.6457081 80.2267437,12.9877622 80.2969732,14.5678703 C80.2267437,16.1479784 81.4447055,17.4906811 83.0281208,17.5776 L86.2794869,17.5776 C87.8629022,17.6651676 89.0808639,19.006573 89.0106344,20.5873297 C89.0808639,22.1674378 87.8629022,23.5101405 86.2794869,23.5970595 L37.6520552,23.5970595 C36.0816454,23.492627 34.8825415,22.1557622 34.9534213,20.5873297 C34.8831918,19.006573 36.1011536,17.6651676 37.6845689,17.5776 L68.5855525,17.5776 C70.1689678,17.4906811 71.3869295,16.1479784 71.3167,14.5678703 C71.3869295,12.9877622 70.1689678,11.6457081 68.5855525,11.5581405 L58.0966454,11.5581405 C56.5151809,11.4744649 55.2978694,10.1330595 55.3720005,8.5548973 C55.2978694,6.97608649 56.5145306,5.63208649 58.0966454,5.54451892 L100.273367,5.54451892 C101.856782,5.63208649 103.074744,6.97478919 103.004514,8.5548973 C103.074744,10.1343568 101.855481,11.4744649 100.273367,11.5581405" id="Fill-5" fill="#E9F3FF"></path>
                    <path d="M67.4056967,44.6626378 L111.79985,44.6626378 C113.464549,44.835827 114.673407,46.3218811 114.500434,47.981773 C114.352172,49.4042595 113.225249,50.5277189 111.79985,50.6762595 L102.839085,50.6762595 C101.172434,50.8299892 99.9473197,52.3024216 100.102085,53.9655568 C100.237342,55.4133405 101.387025,56.5608 102.839085,56.6950703 L115.968101,56.6950703 C117.632801,56.8676108 118.841658,58.3536649 118.668686,60.0142054 C118.520423,61.4360432 117.3935,62.5601514 115.968101,62.7080432 L71.5479372,62.7080432 C69.8832377,62.5355027 68.6743798,61.0494486 68.8473525,59.3889081 C68.9956148,57.9670703 70.1225383,56.8429622 71.5479372,56.6950703 L91.0561339,56.6950703 C92.7227842,56.5406919 93.9478989,55.0676108 93.7931339,53.405773 C93.657877,51.9573405 92.508194,50.8105297 91.0561339,50.6762595 L67.4056967,50.6762595 C65.7409973,50.5030703 64.5321393,49.0170162 64.705112,47.3564757 C64.8533743,45.9346378 65.9802978,44.8111784 67.4056967,44.6626378" id="Fill-7" fill="#E9F3FF"></path>
                    <path d="M2.74987541,65.7145946 L16.2755585,65.7145946 C17.9422087,65.5602162 19.1673235,64.0871351 19.0125585,62.4252973 C18.8773016,60.9768649 17.7276186,59.8300541 16.2755585,59.6951351 L6.91812678,59.6951351 C5.2540776,59.5225946 4.0445694,58.0365405 4.21754208,56.376 C4.36580437,54.9541622 5.49272787,53.8300541 6.91812678,53.6821622 L51.3122798,53.6821622 C52.9769792,53.8547027 54.1864874,55.3407568 54.0128645,57.0012973 C53.8646022,58.4237838 52.738329,59.5472432 51.3122798,59.6951351 L28.8973617,59.6951351 C27.2307115,59.8495135 26.0055967,61.3225946 26.1603617,62.9844324 C26.2956186,64.4328649 27.4459519,65.5796757 28.8973617,65.7145946 L47.1505311,65.7145946 C48.8171814,65.868973 50.0422962,67.3420541 49.8875311,69.0038919 C49.7522743,70.4523243 48.6025913,71.5991351 47.1505311,71.7340541 L2.74987541,71.7340541 C1.08322514,71.5796757 -0.141889617,70.1065946 0.0135256831,68.4447568 C0.14813224,66.9963243 1.29846557,65.8495135 2.74987541,65.7145946" id="Fill-9" fill="#E9F3FF"></path>
                    <path d="M66.6913066,18.0712216 L46.8898366,18.0712216 L46.8898366,8.25197838 C46.8898366,6.9948973 47.916618,5.97132973 49.1768475,5.97132973 L64.4042956,5.97132973 C65.6645251,5.97132973 66.6913066,6.9948973 66.6913066,8.25197838 L66.6913066,18.0712216 Z M64.4042956,1.29781622 L49.1768475,1.29781622 C45.3272301,1.29781622 42.204618,4.41132973 42.204618,8.25197838 L42.204618,21.4908973 C42.204618,22.1836541 42.7671044,22.7447351 43.4609459,22.7447351 L70.1201973,22.7447351 C70.8140388,22.7447351 71.3765251,22.1836541 71.3765251,21.4908973 L71.3765251,8.25197838 C71.3765251,4.41132973 68.2545634,1.29781622 64.4042956,1.29781622 Z" id="Fill-11" fill="#37A3FE"></path>
                    <path d="M66.6913066,18.0712216 L46.8898366,18.0712216 L46.8898366,8.25197838 C46.8898366,6.9948973 47.916618,5.97132973 49.1768475,5.97132973 L64.4042956,5.97132973 C65.6645251,5.97132973 66.6913066,6.9948973 66.6913066,8.25197838 L66.6913066,18.0712216 Z M64.4042956,1.29781622 L49.1768475,1.29781622 C45.3272301,1.29781622 42.204618,4.41132973 42.204618,8.25197838 L42.204618,21.4908973 C42.204618,22.1836541 42.7671044,22.7447351 43.4609459,22.7447351 L70.1201973,22.7447351 C70.8140388,22.7447351 71.3765251,22.1836541 71.3765251,21.4908973 L71.3765251,8.25197838 C71.3765251,4.41132973 68.2545634,1.29781622 64.4042956,1.29781622 Z" id="Stroke-13" stroke="#4585F5" stroke-width="2.6"></path>
                    <path d="M82.7744492,68.4865297 L30.8065639,68.4865297 C27.6566404,68.4865297 25.1030175,65.9386378 25.1030175,62.7972324 L25.1030175,35.871827 L88.4779956,35.871827 L88.4779956,62.7972324 C88.4779956,65.9386378 85.9243727,68.4865297 82.7744492,68.4865297" id="Fill-15" fill="#37A3FE"></path>
                    <path d="M82.7744492,68.4865297 L30.8065639,68.4865297 C27.6566404,68.4865297 25.1030175,65.9386378 25.1030175,62.7972324 L25.1030175,35.871827 L88.4779956,35.871827 L88.4779956,62.7972324 C88.4779956,65.9386378 85.9243727,68.4865297 82.7744492,68.4865297 Z" id="Stroke-17" stroke="#4585F5" stroke-width="2.6"></path>
                    <path d="M29.3625022,62.6898811 L29.3625022,36.4040432 L84.2189011,36.4040432 L84.2189011,62.6898811 C84.2189011,63.5441514 83.5244093,64.2375568 82.6673492,64.2375568 L30.9140541,64.2375568 C30.056994,64.2375568 29.3625022,63.5441514 29.3625022,62.6898811" id="Fill-19" fill="#37A3FE"></path>
                    <path d="M29.3625022,62.6898811 L29.3625022,36.4040432 L84.2189011,36.4040432 L84.2189011,62.6898811 C84.2189011,63.5441514 83.5244093,64.2375568 82.6673492,64.2375568 L30.9140541,64.2375568 C30.056994,64.2375568 29.3625022,63.5441514 29.3625022,62.6898811 Z" id="Stroke-21" stroke="#4585F5" stroke-width="2.6"></path>
                    <path d="M80.494071,40.2462486 L33.0872022,40.2462486 C27.7530109,40.2462486 23.4280437,35.9327351 23.4280437,30.6112216 L23.4280437,15.514573 C23.4280437,12.7694919 25.6591311,10.5439784 28.4110874,10.5439784 L85.1701858,10.5439784 C87.9221421,10.5439784 90.1532295,12.7694919 90.1532295,15.514573 L90.1532295,30.6112216 C90.1532295,35.9327351 85.8289126,40.2462486 80.494071,40.2462486" id="Fill-23" fill="#79C3FD"></path>
                    <path d="M80.494071,40.2462486 L33.0872022,40.2462486 C27.7530109,40.2462486 23.4280437,35.9327351 23.4280437,30.6112216 L23.4280437,15.514573 C23.4280437,12.7694919 25.6591311,10.5439784 28.4110874,10.5439784 L85.1701858,10.5439784 C87.9221421,10.5439784 90.1532295,12.7694919 90.1532295,15.514573 L90.1532295,30.6112216 C90.1532295,35.9327351 85.8289126,40.2462486 80.494071,40.2462486 Z" id="Stroke-25" stroke="#4585F5" stroke-width="2.6"></path>
                    <path d="M76.0494536,26.2489946 C74.451082,24.6552649 71.8603934,24.6552649 70.2626721,26.2489946 L55.7615792,40.7138595 L47.3509454,32.3229405 C45.7525738,30.7292108 43.1618852,30.7292108 41.5635137,32.3229405 C39.9657923,33.9173189 39.9657923,36.5021838 41.5635137,38.0959135 L52.8685137,49.3720216 C54.466235,50.9657514 57.0569235,50.9657514 58.6552951,49.3720216 L76.0494536,32.0213189 C77.6471749,30.4275892 77.6471749,27.843373 76.0494536,26.2489946" id="Fill-27" fill="#EDF1F4"></path>
                    <path d="M76.0494536,26.2489946 C74.451082,24.6552649 71.8603934,24.6552649 70.2626721,26.2489946 L55.7615792,40.7138595 L47.3509454,32.3229405 C45.7525738,30.7292108 43.1618852,30.7292108 41.5635137,32.3229405 C39.9657923,33.9173189 39.9657923,36.5021838 41.5635137,38.0959135 L52.8685137,49.3720216 C54.466235,50.9657514 57.0569235,50.9657514 58.6552951,49.3720216 L76.0494536,32.0213189 C77.6471749,30.4275892 77.6471749,27.843373 76.0494536,26.2489946 Z" id="Stroke-29" stroke="#4585F5" stroke-width="2.6" stroke-linecap="round" stroke-linejoin="round"></path>
                </g>
            </g>
        </g>
    </g>
</svg>