<?xml version="1.0" encoding="UTF-8"?>
<svg width="16px" height="17px" viewBox="0 0 16 17" version="1.1" xmlns="http://www.w3.org/2000/svg" xmlns:xlink="http://www.w3.org/1999/xlink">
    <!-- Generator: Sketch 52.2 (67145) - http://www.bohemiancoding.com/sketch -->
    <title>藏品系统首页_藏品管理</title>
    <desc>Created with Sketch.</desc>
    <g id="Page-1" stroke="none" stroke-width="1" fill="none" fill-rule="evenodd" stroke-linecap="round" stroke-linejoin="round">
        <g id="藏品系统首页" transform="translate(-54.000000, -209.000000)" stroke="#0590FF">
            <g id="分组-3" transform="translate(30.000000, 170.000000)">
                <g id="藏品系统首页_藏品管理" transform="translate(25.000000, 39.000000)">
                    <path d="M9.34898824,12.9991529 L14.4906353,12.9991529" id="Stroke-1"></path>
                    <path d="M9.34898824,15.0910118 L12.3052235,15.0910118" id="Stroke-2"></path>
                    <path d="M11.9335529,10.4863059 C12.1632,9.9376 12.3100235,9.32583529 12.2704941,8.63501176 C12.2234353,7.78795294 11.8535529,6.94277647 11.3839059,6.41665882 C10.8822588,5.85665882 10.2422588,5.4736 9.5552,5.13665882 C9.93355294,4.36489412 10.2573176,3.58654118 10.5481412,2.70936471 C10.6272,2.47030588 10.8540235,2.06183529 10.8352,1.84724706 C10.7862588,1.25336471 9.56837647,1.06136471 8.90390588,0.959717647 C7.12225882,0.688658824 5.43096471,0.661364706 3.63049412,0.959717647 C2.96602353,1.06983529 1.82343529,1.31642353 1.80272941,1.8736 C1.7952,2.05995294 1.98908235,2.25383529 2.06343529,2.42230588 C2.45496471,3.29854118 2.69872941,4.47407059 3.18625882,5.31924706 C2.26672941,5.72771765 1.36696471,6.32442353 0.914258824,7.22512941 C0.687435294,7.67783529 0.481317647,8.3056 0.470964706,8.8976 C0.449317647,10.1681882 1.03849412,11.2467765 1.59378824,12.0797176 C2.19143529,12.9785412 3.0112,13.6712471 3.57778824,14.4298353 C2.97449412,15.0152471 3.68508235,15.4208941 4.30908235,15.5790118 C4.93402353,15.7380706 5.65402353,15.8105412 6.37402353,15.8039529" id="Stroke-4"></path>
                </g>
            </g>
        </g>
    </g>
</svg>